<svg width="39" height="16" viewBox="0 0 39 16" fill="none" xmlns="http://www.w3.org/2000/svg">
<path d="M34.9151 11.1748H34.9532L37.1241 4.16406H38.9981L35.7608 13.2373C35.0219 15.3154 34.1758 16.001 32.378 16.001C32.2407 16.001 31.7834 15.9855 31.6768 15.9551V14.5312C31.791 14.5465 32.073 14.5625 32.2178 14.5625C33.0329 14.5625 33.4906 14.2196 33.7725 13.3291L33.9395 12.8037L30.8164 4.16406H32.7442L34.9151 11.1748ZM7.7891 3.11328C8.20087 3.14378 9.38891 3.26639 10.1504 4.39258C10.0886 4.43874 8.74092 5.21467 8.7559 6.84277C8.7711 8.78696 10.4547 9.43601 10.4776 9.4541C10.4622 9.50015 10.2107 10.3754 9.59379 11.2734C9.05296 12.065 8.49693 12.8412 7.61332 12.8564C6.76035 12.8716 6.47843 12.3468 5.49614 12.3467C4.52122 12.3467 4.20077 12.8415 3.3936 12.8721C2.54045 12.9025 1.89245 12.0348 1.3516 11.2432C0.247011 9.64464 -0.598695 6.73636 0.543987 4.77246C1.10012 3.79062 2.11388 3.1744 3.20317 3.15918C4.04089 3.14417 4.81005 3.71475 5.32035 3.71484C5.82313 3.71484 6.73022 3.05239 7.7891 3.11328ZM26.6192 4.05078C28.7293 4.05078 30.1006 5.15451 30.1006 6.86719V12.7744H28.3946V11.3506H28.3565C27.869 12.2792 26.7946 12.8652 25.6368 12.8652C23.9227 12.8652 22.7266 11.8452 22.7266 10.3076C22.7267 8.78536 23.8849 7.90967 26.0254 7.78027L28.3262 7.64355V6.98926C28.3262 6.02266 27.6936 5.4972 26.5664 5.49707C25.6372 5.49707 24.9586 5.97644 24.8213 6.70703H23.1612C23.2147 5.16963 24.6616 4.05084 26.6192 4.05078ZM18.3623 0.90625C20.6629 0.90625 22.2705 2.48966 22.2705 4.80371C22.2705 7.1177 20.6328 8.71582 18.3018 8.71582H15.75V12.7734H13.9063V0.90625H18.3623ZM26.2774 9.0127C25.1272 9.08124 24.5254 9.51481 24.5254 10.2607C24.5255 10.9838 25.1502 11.4561 26.1329 11.4561C27.3821 11.456 28.3272 10.664 28.3272 9.55273V8.88281L26.2774 9.0127ZM15.75 7.1709H17.8682C19.4752 7.17076 20.3895 6.3107 20.3897 4.81152C20.3897 3.31196 19.4748 2.45898 17.875 2.45898H15.75V7.1709ZM7.79594 0C7.8721 0.761026 7.5753 1.50686 7.12602 2.0625C6.66897 2.60292 5.93737 3.02958 5.2061 2.96875C5.1147 2.23812 5.47275 1.462 5.89164 0.982422C6.34869 0.426776 7.14844 0.030487 7.79594 0Z" fill="white"/>
</svg>
