<svg width="38" height="16" viewBox="0 0 38 16" fill="none" xmlns="http://www.w3.org/2000/svg">
<path d="M34.0752 10.2873H34.1016L36.3125 4.59394H37.8662L33.0898 16.009H31.6162L33.3916 12.0158L30.2578 4.59394H31.8115L34.0752 10.2873ZM26.6006 4.33612C27.6568 4.33618 28.491 4.63196 29.1035 5.21405C29.716 5.79637 30.0185 6.61 30.0186 7.63593V12.5256H28.6514V11.426H28.5889C27.9941 12.3315 27.2128 12.7843 26.2275 12.7844C25.3931 12.7844 24.6823 12.5256 24.123 12.008C23.5728 11.5274 23.2626 10.8151 23.2803 10.0666C23.2804 9.2442 23.5821 8.59741 24.1768 8.10761C24.7715 7.61778 25.5703 7.3772 26.5645 7.37714C27.4167 7.37714 28.1097 7.54334 28.6602 7.85761V7.51581C28.6602 7.00747 28.447 6.5263 28.0742 6.19355C27.6926 5.84245 27.2041 5.64869 26.6982 5.64862C25.8993 5.64864 25.2683 5.99986 24.8066 6.70234L23.5459 5.88007C24.2206 4.85408 25.2423 4.33614 26.6006 4.33612ZM19.8262 0.933781C20.7404 0.915336 21.6283 1.2753 22.2764 1.94062C23.5724 3.19753 23.6523 5.31426 22.4365 6.67304C22.3833 6.72847 22.3296 6.7846 22.2764 6.84003C21.6106 7.49623 20.7938 7.82926 19.8262 7.82929H17.4648V12.5246H16.0352V0.933781H19.8262ZM26.7871 8.57831C26.2101 8.57834 25.7217 8.72642 25.3311 9.01288C24.9493 9.29941 24.7539 9.66053 24.7539 10.0949C24.7541 10.4828 24.9318 10.8429 25.2246 11.0646C25.5441 11.3233 25.9346 11.4624 26.334 11.4533C26.9377 11.4533 27.5152 11.2035 27.9414 10.76C28.4119 10.2979 28.6522 9.75256 28.6523 9.12421C28.2084 8.75448 27.5862 8.56907 26.7871 8.57831ZM17.4648 6.40546H19.8623C20.395 6.42393 20.9104 6.20134 21.2744 5.8039C22.0198 4.9997 22.0018 3.70615 21.2295 2.92987C20.8655 2.56021 20.3772 2.35664 19.8623 2.35663H17.4648V6.40546Z" fill="white"/>
<path d="M12.5292 6.80459C12.5292 6.35167 12.4937 5.89875 12.4226 5.45508H6.39453V8.01546H9.84804C9.70599 8.83811 9.24434 9.57757 8.56962 10.0397V11.7035H10.6293C11.8367 10.5481 12.5292 8.83811 12.5292 6.80459Z" fill="#4285F4"/>
<path d="M6.39405 13.3112C8.11636 13.3112 9.57234 12.7197 10.6288 11.7029L8.56914 10.0391C7.99207 10.4458 7.25521 10.6769 6.39405 10.6769C4.725 10.6769 3.31341 9.503 2.80737 7.93164H0.685547V9.65089C1.76865 11.897 3.97925 13.3112 6.39405 13.3112Z" fill="#34A853"/>
<path d="M2.80809 7.93107C2.54171 7.10842 2.54171 6.21182 2.80809 5.37993V3.66992H0.685928C-0.228643 5.5463 -0.228643 7.76469 0.685928 9.64107L2.80809 7.93107Z" fill="#FFD60A"/>
<path d="M6.39401 2.63473C7.30843 2.61625 8.18735 2.97673 8.84431 3.63301L10.6732 1.72889C9.51016 0.601215 7.98315 -0.0180843 6.39401 0.000402276C3.97921 0.000402276 1.76861 1.42387 0.685505 3.66998L2.80733 5.38923C3.31337 3.80863 4.72496 2.63473 6.39401 2.63473Z" fill="#EA4335"/>
</svg>
