<svg width="37" height="23" viewBox="0 0 37 23" fill="none" xmlns="http://www.w3.org/2000/svg">
<path d="M25.6562 0C31.8242 0 36.8251 4.94059 36.8252 11.0352C36.8252 17.1298 31.8243 22.0703 25.6562 22.0703C22.8912 22.0702 20.3625 21.0754 18.4121 19.4307C16.4617 21.0753 13.9331 22.0703 11.168 22.0703C5.00005 22.0702 0 17.1297 0 11.0352C7.51104e-05 4.94067 5.0001 0.000120698 11.168 0C13.933 0 16.4617 0.995048 18.4121 2.63965C20.3625 0.994941 22.8912 0.000100226 25.6562 0Z" fill="#ED0006"/>
<path d="M25.6566 0C31.8245 0 36.8245 4.94059 36.8245 11.0352C36.8245 17.1298 31.8246 22.0703 25.6566 22.0703C22.8912 22.0703 20.3629 21.0747 18.4124 19.4297C20.8124 17.4056 22.3363 14.3973 22.3363 11.0352C22.3362 7.67279 20.8127 4.66369 18.4124 2.63965C20.3628 0.994972 22.8915 2.25455e-05 25.6566 0Z" fill="#FFD60A"/>
<path d="M18.4124 2.64014C20.8126 4.6642 22.3362 7.67333 22.3362 11.0356C22.3361 14.3975 20.8121 17.4052 18.4124 19.4292C16.0127 17.4052 14.4887 14.3975 14.4885 11.0356C14.4885 7.67338 16.0122 4.6642 18.4124 2.64014Z" fill="#FF5E00"/>
</svg>
