<svg width="42" height="8" viewBox="0 0 42 8" fill="none" xmlns="http://www.w3.org/2000/svg">
<path d="M12.2874 7.81072V2.30364C12.2874 0.741582 11.3915 0 9.88784 0C8.63681 0 7.55524 0.694161 7.08188 1.38832C6.77756 0.520416 6.01695 0 4.81715 0C3.56612 0 2.48455 0.725639 2.1465 1.18351V0.189281H0V7.81031H2.1465V2.68261C2.46747 2.25663 3.09321 1.78323 3.83673 1.78323C4.71556 1.78323 5.05361 2.28811 5.05361 2.99821V7.81031H7.21675V2.66667C7.52108 2.25622 8.14638 1.78282 8.90698 1.78282C9.78581 1.78282 10.1243 2.2877 10.1243 2.9978V7.81031L12.2874 7.81072ZM18.1862 8C15.4989 8 13.8765 6.16976 13.8765 3.99203C13.8765 1.83024 15.4989 0 18.1862 0C20.8905 0 22.5129 1.83024 22.5129 3.99203C22.5129 6.16976 20.8905 8 18.1862 8ZM18.1862 6.21718C19.5217 6.21718 20.2819 5.19107 20.2819 3.99203C20.2819 2.80853 19.5213 1.78323 18.1862 1.78323C16.8506 1.78323 16.1071 2.80853 16.1071 3.99203C16.1071 5.19148 16.8511 6.21718 18.1862 6.21718ZM31.7579 7.81072V2.42997C31.7579 0.946804 30.8962 0 29.1043 0C27.7688 0 26.7722 0.599726 26.248 1.18351V0.189281H24.1015V7.81072H26.248V2.68261C26.6027 2.22474 27.2622 1.78323 28.1073 1.78323C29.0198 1.78323 29.6114 2.14625 29.6114 3.20344V7.81072H31.7579ZM37.6733 8C34.986 8 33.3636 6.16976 33.3636 3.99203C33.3636 1.83024 34.986 0 37.6733 0C40.3776 0 42 1.83024 42 3.99203C42 6.16976 40.3776 8 37.6733 8ZM37.6733 6.21718C39.0088 6.21718 39.769 5.19107 39.769 3.99203C39.769 2.80853 39.0084 1.78323 37.6733 1.78323C36.3377 1.78323 35.5942 2.80853 35.5942 3.99203C35.5942 5.19148 36.3382 6.21718 37.6733 6.21718Z" fill="white"/>
</svg>
