<svg width="39" height="16" viewBox="0 0 39 16" fill="none" xmlns="http://www.w3.org/2000/svg">
<path d="M35.0752 10.2873H35.1016L37.3125 4.59394H38.8662L34.0898 16.009H32.6162L34.3916 12.0158L31.2578 4.59394H32.8115L35.0752 10.2873ZM27.6006 4.33417C28.6568 4.33422 29.491 4.63001 30.1035 5.2121C30.716 5.79441 31.0185 6.60804 31.0186 7.63398V12.5236H29.6514V11.424H29.5889C28.9941 12.3296 28.2128 12.7824 27.2275 12.7824C26.3931 12.7824 25.6823 12.5236 25.123 12.006C24.5728 11.5254 24.2626 10.8132 24.2803 10.0646C24.2804 9.24224 24.5821 8.59546 25.1768 8.10566C25.7715 7.61583 26.5703 7.37525 27.5645 7.37519C28.4167 7.37519 29.1097 7.54138 29.6602 7.85566V7.51386C29.6602 7.00552 29.447 6.52435 29.0742 6.19159C28.6926 5.8405 28.2041 5.64674 27.6982 5.64667C26.8993 5.64668 26.2683 5.99791 25.8066 6.70038L24.5459 5.87812C25.2206 4.85213 26.2423 4.33418 27.6006 4.33417ZM20.8262 0.931828C21.7404 0.913383 22.6283 1.27334 23.2764 1.93866C24.5724 3.19558 24.6523 5.3123 23.4365 6.67109C23.3833 6.72651 23.3296 6.78265 23.2764 6.83808C22.6106 7.49428 21.7938 7.8273 20.8262 7.82734H18.4648V12.5226H17.0352V0.931828H20.8262ZM27.7871 8.57831C27.2101 8.57834 26.7217 8.72642 26.3311 9.01288C25.9493 9.29941 25.7539 9.66053 25.7539 10.0949C25.7541 10.4828 25.9318 10.8429 26.2246 11.0646C26.5441 11.3233 26.9346 11.4624 27.334 11.4533C27.9377 11.4533 28.5152 11.2035 28.9414 10.76C29.4119 10.2979 29.6522 9.75256 29.6523 9.12421C29.2084 8.75448 28.5862 8.56907 27.7871 8.57831ZM18.4648 6.40351H20.8623C21.395 6.42198 21.9104 6.19939 22.2744 5.80194C23.0198 4.99775 23.0018 3.7042 22.2295 2.92792C21.8655 2.55826 21.3772 2.35469 20.8623 2.35468H18.4648V6.40351Z" fill="white"/>
<path d="M6.99982 8.52344V7.91309L9.303 4.5H9.81569V5.39844H9.49038L7.84302 7.84473V7.88379H10.9998V8.52344H6.99982ZM9.52682 9.5V8.33789L9.53202 8.05957V4.5H10.2945V9.5H9.52682Z" fill="white"/>
<path d="M3.00441 9.5V8.9605L4.54441 7.23121C4.70886 7.04335 4.84441 6.87877 4.95108 6.73748C5.05923 6.59457 5.13997 6.4589 5.1933 6.33044C5.24664 6.20199 5.2733 6.06551 5.2733 5.921C5.2733 5.75722 5.23775 5.61593 5.16664 5.49711C5.09553 5.37669 4.99849 5.28436 4.87553 5.22014C4.75256 5.1543 4.61404 5.12139 4.45997 5.12139C4.29701 5.12139 4.15478 5.15751 4.0333 5.22977C3.91182 5.30202 3.81849 5.40398 3.7533 5.53565C3.68812 5.66731 3.65553 5.82145 3.65553 5.99807H2.99997C2.99997 5.69782 3.06367 5.43529 3.19108 5.2105C3.31849 4.98571 3.4933 4.8115 3.71553 4.68786C3.93775 4.56262 4.19034 4.5 4.4733 4.5C4.75923 4.5 5.01108 4.56182 5.22886 4.68545C5.44812 4.80748 5.61923 4.97447 5.74219 5.18642C5.86515 5.39676 5.92664 5.63439 5.92664 5.89933C5.92664 6.08237 5.89478 6.2614 5.83108 6.43642C5.76886 6.61143 5.65997 6.80652 5.50441 7.02168C5.34886 7.23523 5.13256 7.49454 4.85553 7.79961L3.95108 8.82563V8.86175H5.99997V9.5H3.00441Z" fill="white"/>
<circle cx="7" cy="7" r="6.5" stroke="#00B366"/>
</svg>
