<svg width="40" height="13" viewBox="0 0 40 13" fill="none" xmlns="http://www.w3.org/2000/svg">
<path fill-rule="evenodd" clip-rule="evenodd" d="M9.80041 12.7783H6.4079L3.86393 2.78744C3.74318 2.32786 3.4868 1.92157 3.10967 1.73008C2.1685 1.24885 1.13139 0.865867 0 0.67271V0.288063H5.46507C6.21933 0.288063 6.78503 0.865867 6.87931 1.53692L8.19927 8.74365L11.5901 0.288063H14.8884L9.80041 12.7783ZM16.774 12.7783H13.5701L16.2083 0.288063H19.4123L16.774 12.7783ZM23.5574 3.74823C23.6517 3.07552 24.2174 2.69087 24.8773 2.69087C25.9145 2.59429 27.0442 2.78745 27.987 3.26701L28.5527 0.577804C27.6099 0.193156 26.5728 0 25.6316 0C22.5219 0 20.2592 1.73008 20.2592 4.13122C20.2592 5.95788 21.862 6.917 22.9933 7.4948C24.2174 8.07094 24.6888 8.45559 24.5945 9.03173C24.5945 9.89594 23.6517 10.2806 22.7105 10.2806C21.5791 10.2806 20.4477 9.99251 19.4123 9.51129L18.8466 12.2022C19.978 12.6817 21.202 12.8749 22.3334 12.8749C25.8202 12.9698 27.987 11.2414 27.987 8.64708C27.987 5.38007 23.5574 5.18858 23.5574 3.74823ZM39.2 12.7783L36.656 0.288063H33.9235C33.3578 0.288063 32.7921 0.672711 32.6035 1.24885L27.8927 12.7783H31.191L31.8493 10.9533H35.9018L36.2789 12.7783H39.2ZM34.3949 3.65166L35.3361 8.35902H32.6978L34.3949 3.65166Z" fill="white"/>
</svg>
