<svg width="20" height="18" viewBox="0 0 20 18" fill="none" xmlns="http://www.w3.org/2000/svg">
<path d="M1.75732 17.9593C1.26235 17.9593 0.845726 17.7901 0.507436 17.4518C0.169145 17.1136 0 16.6969 0 16.202V1.75732C0 1.26236 0.169145 0.845726 0.507436 0.507436C0.845726 0.169146 1.26235 0 1.75732 0H16.1845C16.6795 0 17.0961 0.169146 17.4344 0.507436C17.7727 0.845726 17.9419 1.26236 17.9419 1.75732V3.47923H10.8426C9.97699 3.47923 9.28614 3.73738 8.77004 4.25366C8.25375 4.76995 7.99561 5.46081 7.99561 6.32624V11.633C7.99561 12.4985 8.25375 13.1893 8.77004 13.7056C9.28614 14.2219 9.97699 14.48 10.8426 14.48H17.9419V16.202C17.9419 16.6969 17.7727 17.1136 17.4344 17.4518C17.0961 17.7901 16.6795 17.9593 16.1845 17.9593H1.75732ZM10.8426 13.4255C10.3263 13.4255 9.89847 13.2559 9.55903 12.9166C9.21979 12.5772 9.05017 12.1493 9.05017 11.633V6.32624C9.05017 5.80995 9.21979 5.38209 9.55903 5.04266C9.89847 4.70342 10.3263 4.5338 10.8426 4.5338H17.2742C17.7903 4.5338 18.2181 4.70342 18.5575 5.04266C18.897 5.38209 19.0667 5.80995 19.0667 6.32624V11.633C19.0667 12.1493 18.897 12.5772 18.5575 12.9166C18.2181 13.2559 17.7903 13.4255 17.2742 13.4255H10.8426ZM13.496 10.6753C13.9792 10.6753 14.3826 10.5135 14.7062 10.1898C15.0298 9.8662 15.1917 9.4628 15.1917 8.97964C15.1917 8.49648 15.0298 8.09308 14.7062 7.76945C14.3826 7.44582 13.9792 7.284 13.496 7.284C13.0127 7.284 12.6092 7.44582 12.2855 7.76945C11.9619 8.09308 11.8001 8.49648 11.8001 8.97964C11.8001 9.4628 11.9619 9.8662 12.2855 10.1898C12.6092 10.5135 13.0127 10.6753 13.496 10.6753Z" fill="white"/>
</svg>
