<svg width="80" height="16" viewBox="0 0 80 16" fill="none" xmlns="http://www.w3.org/2000/svg">
<g clip-path="url(#clip0_158_4572)">
<path d="M3.12416 15.1265V15.9003H2.81654V13.6303H3.12685V13.824C3.20116 13.747 3.28882 13.6842 3.3856 13.6384C3.48381 13.5971 3.58935 13.5761 3.6959 13.5766C3.81572 13.5727 3.93506 13.5936 4.04636 13.638C4.15766 13.6824 4.25851 13.7494 4.34253 13.8347C4.42741 13.919 4.49415 14.0197 4.53864 14.1306C4.58314 14.2415 4.60445 14.3603 4.60127 14.4797C4.60215 14.5972 4.58022 14.7137 4.53669 14.8228C4.49522 14.9294 4.43288 15.0267 4.35329 15.1091C4.27506 15.1968 4.17784 15.2656 4.06899 15.3103C3.95818 15.3554 3.8393 15.3773 3.71967 15.3747C3.608 15.3757 3.49723 15.3547 3.39367 15.313C3.29091 15.2675 3.19789 15.2026 3.11968 15.122M3.11968 14.4618C3.11768 14.5418 3.13176 14.6214 3.16111 14.6958C3.19045 14.7702 3.23446 14.8381 3.29053 14.8953C3.34172 14.9526 3.40471 14.9983 3.47521 15.0292C3.54571 15.0601 3.62206 15.0754 3.69904 15.0742C3.85607 15.0735 4.00639 15.0106 4.11696 14.8994C4.22753 14.7881 4.28931 14.6377 4.28872 14.4811C4.29021 14.4006 4.27569 14.3206 4.24597 14.2457C4.21626 14.1708 4.17196 14.1026 4.11563 14.045C4.06163 13.9886 3.99657 13.944 3.92451 13.9138C3.85245 13.8836 3.77494 13.8686 3.6968 13.8696C3.62077 13.8699 3.54563 13.886 3.47616 13.9168C3.40668 13.9476 3.34438 13.9924 3.29322 14.0485C3.23772 14.102 3.19374 14.1662 3.16398 14.2371C3.13422 14.3081 3.11929 14.3844 3.12013 14.4614" fill="white"/>
<path d="M10.116 15.3358V15.1121C10.043 15.1906 9.95504 15.2537 9.85724 15.2978C9.75974 15.3415 9.65384 15.3635 9.54693 15.3622C9.42762 15.3653 9.30893 15.344 9.19818 15.2996C9.08744 15.2552 8.98698 15.1887 8.903 15.1041C8.8189 15.0196 8.7527 14.9192 8.70832 14.8087C8.66395 14.6982 8.64232 14.5799 8.64471 14.4609C8.64366 14.3434 8.66559 14.2269 8.70928 14.1178C8.7492 14.0121 8.81022 13.9157 8.88865 13.8342C8.96884 13.7487 9.06555 13.6802 9.17295 13.6329C9.28457 13.588 9.40416 13.5661 9.52451 13.5685C9.63619 13.5676 9.74696 13.5886 9.85052 13.6303C9.94847 13.6752 10.0364 13.7393 10.1093 13.8186V13.611H10.4232V15.3264L10.116 15.3358ZM8.95995 14.4663C8.95759 14.5469 8.97172 14.6271 9.00148 14.7021C9.03124 14.7771 9.07601 14.8452 9.13305 14.9024C9.18664 14.9602 9.25191 15.006 9.32457 15.0369C9.39723 15.0677 9.47561 15.0829 9.55456 15.0813C9.63018 15.0809 9.7049 15.0648 9.77393 15.034C9.84296 15.0032 9.90479 14.9584 9.95545 14.9024C10.0114 14.8486 10.0558 14.784 10.0861 14.7126C10.1163 14.6411 10.1316 14.5644 10.1312 14.4868C10.1329 14.4071 10.1184 14.3279 10.0887 14.2539C10.0589 14.1799 10.0145 14.1126 9.95814 14.0561C9.90633 13.9988 9.84284 13.9531 9.77193 13.9223C9.70101 13.8914 9.6243 13.8761 9.54693 13.8772C9.4694 13.8772 9.39262 13.8925 9.32105 13.9223C9.24948 13.952 9.18454 13.9956 9.12996 14.0506C9.07538 14.1055 9.03226 14.1707 9.00308 14.2423C8.9739 14.314 8.95924 14.3907 8.95995 14.468" fill="white"/>
<path d="M14.457 13.6191H14.788L15.2534 14.8962L15.7552 13.6191H16.0888L15.1629 15.8891H14.8382L15.0763 15.2853L14.457 13.6191Z" fill="white"/>
<path d="M21.1675 14.4693C21.1786 14.3127 21.1477 14.156 21.0778 14.0153C21.0484 13.9679 21.0066 13.9295 20.9569 13.904C20.9072 13.8786 20.8515 13.8671 20.7958 13.8708C20.7386 13.8672 20.6815 13.8786 20.6302 13.9039C20.5788 13.9293 20.5351 13.9677 20.5034 14.0153C20.4298 14.1501 20.3966 14.3032 20.4079 14.4563V15.3352H20.1133V13.6199H20.39V13.8239C20.4408 13.7525 20.5072 13.6934 20.5841 13.6512C20.664 13.6102 20.7531 13.5906 20.8429 13.5944C20.9521 13.5902 21.0604 13.615 21.1568 13.6664C21.1545 13.6949 21.1581 13.7236 21.1674 13.7506C21.1768 13.7777 21.1917 13.8025 21.2111 13.8235C21.2306 13.8445 21.2542 13.8613 21.2804 13.8728C21.3067 13.8842 21.335 13.8902 21.3637 13.8902C21.3924 13.8902 21.4207 13.8842 21.447 13.8728C21.4733 13.8613 21.4969 13.8445 21.5163 13.8235C21.5357 13.8025 21.5506 13.7777 21.56 13.7506C21.5693 13.7236 21.573 13.6949 21.5707 13.6664C21.6705 13.6153 21.7818 13.5905 21.894 13.5944C21.9806 13.5904 22.0671 13.6051 22.1474 13.6376C22.2278 13.6701 22.3001 13.7196 22.3594 13.7827C22.4833 13.9251 22.5463 14.1102 22.5352 14.2984V15.3482H22.2249V14.3396C22.2324 14.2182 22.1977 14.098 22.1267 13.9992C22.0966 13.9595 22.0574 13.9276 22.0124 13.906C21.9674 13.8845 21.9179 13.8739 21.868 13.8753C21.8124 13.8704 21.7565 13.88 21.7058 13.903C21.655 13.9261 21.6111 13.9618 21.5783 14.0068C21.5076 14.1408 21.4765 14.292 21.4886 14.4429V15.3406H21.1886L21.1675 14.4693Z" fill="white"/>
<path d="M26.9587 14.5978C26.9795 14.7334 27.0484 14.8571 27.1529 14.9463C27.2421 15.0209 27.352 15.0668 27.4679 15.0778C27.5838 15.0888 27.7004 15.0645 27.8022 15.008C27.8867 14.9573 27.9563 14.8852 28.004 14.7991H28.3506C28.2844 14.9737 28.1695 15.1257 28.0197 15.2375C27.8743 15.3387 27.7005 15.3912 27.5232 15.3873C27.4035 15.3883 27.2848 15.3655 27.1739 15.3202C27.065 15.2743 26.9671 15.2056 26.8869 15.1189C26.8061 15.034 26.7429 14.934 26.7008 14.8246C26.6549 14.717 26.6311 14.6012 26.6309 14.4842C26.63 14.3679 26.651 14.2524 26.6928 14.1438C26.7355 14.0379 26.7977 13.9408 26.8762 13.8576C26.9567 13.7687 27.0543 13.6967 27.1632 13.646C27.2743 13.5989 27.394 13.5752 27.5147 13.5762C27.6617 13.5745 27.8068 13.6101 27.9362 13.6795C28.0659 13.7505 28.1767 13.8512 28.2596 13.9734C28.3082 14.054 28.3456 14.1408 28.3708 14.2315C28.3948 14.3373 28.4061 14.4456 28.4044 14.554V14.5987L26.9587 14.5978ZM28.0654 14.3192C28.0352 14.1919 27.9655 14.0773 27.8663 13.9918C27.7673 13.9147 27.6453 13.8729 27.5197 13.8729C27.3941 13.8729 27.2721 13.9147 27.173 13.9918C27.0708 14.0736 26.9989 14.1871 26.9685 14.3143L28.0654 14.3192Z" fill="white"/>
<path d="M32.8252 15.3362H32.5176V13.6208H32.8149V13.8248C32.8721 13.7537 32.9446 13.6964 33.027 13.657C33.1083 13.6207 33.1966 13.6022 33.2857 13.6029C33.3812 13.5968 33.4768 13.6114 33.5661 13.6457C33.6553 13.6799 33.7361 13.7331 33.8028 13.8015C33.9324 13.9602 33.9965 14.1622 33.9821 14.3664V15.3469H33.6835V14.4358C33.6936 14.2932 33.6572 14.1513 33.5799 14.031C33.5421 13.9854 33.4938 13.9497 33.4391 13.9268C33.3845 13.9039 33.3251 13.8945 33.266 13.8995C33.2013 13.8943 33.1364 13.9058 33.0775 13.9329C33.0186 13.96 32.9677 14.0018 32.9297 14.0542C32.8484 14.2134 32.8126 14.3918 32.8261 14.57L32.8252 15.3362Z" fill="white"/>
<path d="M38.3004 15.3352V13.8985H38.0547V13.6198H38.3004V13.0625H38.608V13.6198H38.8511V13.8985H38.608V15.3352H38.3004Z" fill="white"/>
<path d="M47.905 14.5969C47.9192 14.6876 47.9552 14.7736 48.01 14.8475C48.0647 14.9214 48.1365 14.9811 48.2193 15.0213C48.302 15.0616 48.3933 15.0813 48.4854 15.0789C48.5775 15.0764 48.6676 15.0517 48.7481 15.007C48.8331 14.957 48.9028 14.8848 48.9498 14.7981H49.2992C49.2311 14.9724 49.1155 15.1242 48.9655 15.2365C48.8202 15.3377 48.6463 15.3902 48.4691 15.3863C48.3502 15.3875 48.2323 15.3647 48.1225 15.3192C48.0135 15.2733 47.9157 15.2047 47.8355 15.118C47.7547 15.0325 47.6907 14.9326 47.6467 14.8236C47.5605 14.6047 47.5605 14.3613 47.6467 14.1424C47.6881 14.0367 47.749 13.9396 47.8261 13.8561C47.9587 13.7137 48.1348 13.6189 48.327 13.5865C48.5192 13.5542 48.7167 13.5861 48.8889 13.6772C48.9953 13.7337 49.0886 13.8117 49.163 13.9063C49.2374 14.0009 49.2911 14.11 49.3207 14.2265C49.3457 14.3322 49.3579 14.4404 49.357 14.549V14.5937L47.905 14.5969ZM49.0144 14.3182C48.9832 14.1907 48.9126 14.0761 48.8126 13.9908C48.7165 13.9126 48.5954 13.8715 48.4714 13.8749C48.3436 13.8732 48.2193 13.9161 48.1198 13.9961C48.0184 14.0786 47.9466 14.1918 47.9153 14.3186L49.0144 14.3182Z" fill="white"/>
<path d="M53.7712 15.3359H53.4609V13.6205H53.7582V13.8245C53.8147 13.7522 53.8875 13.6943 53.9706 13.6555C54.0538 13.6166 54.1449 13.5979 54.2367 13.6008C54.3321 13.5951 54.4277 13.6098 54.5169 13.6441C54.6061 13.6783 54.6868 13.7313 54.7537 13.7994C54.8824 13.9586 54.9465 14.1603 54.9331 14.3644V15.3448H54.6277V14.4355C54.6386 14.2932 54.6033 14.1513 54.5268 14.0307C54.4889 13.9853 54.4406 13.9497 54.3859 13.9268C54.3313 13.9039 54.272 13.8944 54.2129 13.8992C54.1482 13.8937 54.0832 13.9051 54.0243 13.9322C53.9653 13.9594 53.9144 14.0013 53.8766 14.0539C53.7941 14.2127 53.7582 14.3914 53.773 14.5697L53.7712 15.3359Z" fill="white"/>
<path d="M59.1673 15.4714H59.4956C59.5407 15.5485 59.6059 15.6119 59.6843 15.6548C59.7641 15.6969 59.8529 15.719 59.9431 15.7192C60.0206 15.7223 60.0978 15.7097 60.1703 15.6822C60.2427 15.6547 60.3088 15.6128 60.3646 15.5591C60.418 15.5049 60.4596 15.4402 60.4868 15.3691C60.5139 15.2981 60.5261 15.2222 60.5225 15.1463V15.1127C60.4497 15.1914 60.3617 15.2546 60.2637 15.2983C60.1649 15.342 60.0579 15.364 59.9498 15.3628C59.8305 15.3659 59.7118 15.3446 59.6011 15.3002C59.4903 15.2558 59.3899 15.1893 59.3059 15.1047C59.2211 15.0197 59.1545 14.9185 59.1101 14.8072C59.0656 14.6959 59.0442 14.5768 59.0471 14.457C59.0461 14.3395 59.068 14.223 59.1117 14.1139C59.152 14.0075 59.2145 13.9108 59.2951 13.8303C59.3745 13.7449 59.4705 13.6764 59.5772 13.6291C59.6888 13.5841 59.8084 13.5622 59.9287 13.5646C60.0404 13.5637 60.1512 13.5847 60.2547 13.6264C60.357 13.6701 60.4494 13.7342 60.526 13.8147V13.6098H60.8363V15.0411C60.8512 15.2953 60.7679 15.5455 60.6036 15.7403C60.5219 15.8271 60.4222 15.8952 60.3115 15.9398C60.2008 15.9844 60.0816 16.0043 59.9624 15.9983C59.784 16.0036 59.6082 15.9551 59.4579 15.8592C59.3175 15.7655 59.2127 15.6273 59.1606 15.467M59.3673 14.461C59.3655 14.5415 59.3799 14.6216 59.4096 14.6965C59.4394 14.7714 59.4838 14.8396 59.5404 14.8971C59.5943 14.9546 59.6596 15.0002 59.7322 15.031C59.8048 15.0618 59.8831 15.0771 59.9619 15.076C60.038 15.0757 60.1131 15.0597 60.1826 15.0289C60.252 14.9981 60.3143 14.9532 60.3655 14.8971C60.4211 14.8432 60.4651 14.7785 60.4949 14.7071C60.5246 14.6357 60.5395 14.5589 60.5386 14.4816C60.5401 14.4021 60.5258 14.3231 60.4964 14.2491C60.4671 14.1752 60.4234 14.1078 60.3678 14.0508C60.3156 13.9939 60.2521 13.9486 60.1812 13.9177C60.1104 13.8869 60.0338 13.8713 59.9566 13.8719C59.8792 13.8719 59.8027 13.887 59.7313 13.9166C59.6598 13.9461 59.595 13.9894 59.5404 14.044C59.4858 14.0987 59.4426 14.1635 59.4132 14.2348C59.3838 14.3061 59.3688 14.3826 59.3691 14.4597" fill="white"/>
<path d="M65.3506 13.4184H65.043V13.0605H65.3506V13.4184ZM65.0452 13.6197H65.3506V15.3323H65.0452V13.6197Z" fill="white"/>
<path d="M69.8708 15.3362H69.5605V13.6208H69.8578V13.8248C69.9151 13.7537 69.9875 13.6964 70.0699 13.657C70.1513 13.6207 70.2395 13.6022 70.3287 13.6029C70.4241 13.5968 70.5198 13.6114 70.609 13.6457C70.6983 13.6799 70.779 13.7331 70.8457 13.8015C70.9753 13.9602 71.0395 14.1622 71.0251 14.3664V15.3469H70.7148V14.4358C70.7257 14.2935 70.6903 14.1516 70.6139 14.031C70.5757 13.9859 70.5273 13.9505 70.4728 13.9276C70.4182 13.9048 70.359 13.8951 70.3 13.8995C70.2357 13.894 70.171 13.9054 70.1125 13.9326C70.054 13.9597 70.0036 14.0017 69.9664 14.0542C69.8838 14.213 69.8479 14.3918 69.8628 14.57L69.8708 15.3362Z" fill="white"/>
<path d="M75.4701 14.5978C75.4897 14.7338 75.5589 14.8578 75.6643 14.9463C75.753 15.0208 75.8624 15.0667 75.9779 15.0777C76.0934 15.0888 76.2096 15.0644 76.3109 15.008C76.3968 14.9591 76.4668 14.8866 76.5127 14.7991H76.8714C76.8052 14.9737 76.6904 15.1257 76.5405 15.2375C76.3951 15.3387 76.2213 15.3911 76.0441 15.3873C75.9243 15.3883 75.8056 15.3655 75.6948 15.3202C75.5858 15.2743 75.488 15.2056 75.4078 15.1189C75.3271 15.0336 75.263 14.9339 75.219 14.8251C75.1327 14.6061 75.1327 14.3628 75.219 14.1438C75.2604 14.0381 75.3212 13.941 75.3984 13.8576C75.4804 13.7692 75.5788 13.6973 75.688 13.646C75.7992 13.5989 75.9189 13.5752 76.0396 13.5762C76.1866 13.5745 76.3316 13.6101 76.4611 13.6795C76.59 13.7506 76.6999 13.8514 76.7817 13.9734C76.8327 14.0528 76.8702 14.14 76.8929 14.2315C76.9193 14.3369 76.9315 14.4454 76.9293 14.554V14.5987L75.4701 14.5978ZM76.5768 14.3192C76.5456 14.1923 76.4761 14.078 76.3777 13.9918C76.2787 13.9147 76.1567 13.8729 76.0311 13.8729C75.9055 13.8729 75.7835 13.9147 75.6844 13.9918C75.5816 14.0734 75.5088 14.1869 75.4777 14.3143L76.5768 14.3192Z" fill="white"/>
<path d="M58.7963 0.0399689H56.2098V10.0306H57.3757V6.10164H58.5551C59.8429 6.10164 60.8326 5.82909 61.5241 5.28399C61.869 5.00681 62.1427 4.65168 62.3226 4.24798C62.5025 3.84429 62.5834 3.40365 62.5586 2.96256C62.5586 1.01923 61.3078 0.048472 58.8062 0.0502612M60.6604 4.61618C60.1999 4.94897 59.4528 5.11402 58.4232 5.11402H57.3712V1.04592H58.6645C59.3746 0.991819 60.0839 1.16142 60.6922 1.53079C60.9135 1.705 61.0886 1.93063 61.2021 2.18795C61.3157 2.44527 61.3644 2.72643 61.3438 3.00684C61.3697 3.30983 61.32 3.61451 61.199 3.89364C61.078 4.17276 60.8896 4.41764 60.6506 4.60636M67.2271 0.00195312L63.2675 10.0315H64.4563L65.6769 6.86114H69.6908L70.9374 10.0391H72.1427L68.2065 0.00195312H67.2271ZM66.089 5.80867L67.2684 2.71298C67.4398 2.24089 67.5839 1.75942 67.7002 1.27092C67.8302 1.75931 67.9856 2.24065 68.1657 2.71298L69.3316 5.80867H66.089ZM78.7404 0.0386312L76.0705 5.03485L73.418 0.0399689H72.1432L75.4794 6.21256V10.0329H76.6588V6.16337L80 0.0471216L78.7404 0.0386312ZM9.79894 6.19602C9.58786 6.97328 9.42314 7.76234 9.30567 8.55904C9.17246 7.7508 8.98673 6.95205 8.74963 6.16784L6.86626 0.0399689H5.63264L3.83895 6.11506C3.59711 6.91587 3.41382 7.73313 3.29053 8.5604C3.17354 7.76903 3.01382 6.98453 2.81207 6.21034L1.23182 0.0377303H0L2.66363 10.0284H3.81429L5.7721 3.38077C5.97569 2.73347 6.13554 2.07328 6.25057 1.40465C6.29529 1.67921 6.35745 1.95068 6.43666 2.21738C6.5555 2.6687 6.66447 3.04263 6.75998 3.33963L8.77788 10.0284H9.92854L12.6052 0.0377303H11.3716L9.79894 6.19602ZM16.7585 0.00507902L12.7989 10.0347H13.9782L15.2119 6.8589H19.223L20.4696 10.0369H21.6768L17.7405 0.00731765L16.7585 0.00507902ZM15.6204 5.81L16.7997 2.71432C16.9711 2.24223 17.1153 1.76076 17.2315 1.27225C17.3921 1.84255 17.5455 2.32204 17.697 2.71432L18.8629 5.81H15.6204ZM25.6005 5.0362L22.9494 0.0399689H21.6768L25.013 6.21256V10.0329H26.1848V6.16337L29.5479 0.0417571H28.2883L25.6005 5.0362Z" fill="white"/>
<mask id="mask0_158_4572" style="mask-type:luminance" maskUnits="userSpaceOnUse" x="31" y="0" width="24" height="11">
<path d="M41.3791 8.52598V7.64615C41.1835 7.55644 41.0246 7.40273 40.9286 7.21052C40.8326 7.01831 40.8054 6.79915 40.8514 6.58938C40.8975 6.37962 41.014 6.19184 41.1817 6.05722C41.3494 5.92259 41.5582 5.84919 41.7735 5.84919C41.9888 5.84919 42.1976 5.92259 42.3653 6.05722C42.533 6.19184 42.6496 6.37962 42.6956 6.58938C42.7416 6.79915 42.7144 7.01831 42.6184 7.21052C42.5224 7.40273 42.3635 7.55644 42.1679 7.64615V8.52598C42.172 8.58013 42.1648 8.63455 42.1469 8.68582C42.1289 8.73709 42.1005 8.7841 42.0635 8.82392C42.0265 8.86374 41.9816 8.89551 41.9317 8.91723C41.8818 8.93896 41.828 8.95017 41.7735 8.95017C41.7191 8.95017 41.6652 8.93896 41.6153 8.91723C41.5654 8.89551 41.5205 8.86374 41.4835 8.82392C41.4465 8.7841 41.4181 8.73709 41.4001 8.68582C41.3822 8.63455 41.375 8.58013 41.3791 8.52598ZM44.4436 5.05367V5.09258H39.1137V5.05367H38.1361V5.09258C38.1361 6.65243 38.4567 7.87607 39.098 8.76349C39.395 9.19031 39.7949 9.53572 40.2608 9.76787C40.7268 10 41.2438 10.1115 41.7643 10.0919C42.2901 10.117 42.8138 10.0107 43.2881 9.78282C43.7623 9.5549 44.172 9.21254 44.48 8.78675C45.1161 7.91483 45.4342 6.68776 45.4342 5.10555V5.05412L44.4436 5.05367ZM31.3945 0.0337393V10.0222H32.5604V5.75547H36.7079V4.72357H32.5573V1.06608H36.9743V0.0373157L31.3945 0.0337393ZM48.683 1.05535H50.196C50.8529 1.00312 51.5098 1.1555 52.0762 1.49146C52.2829 1.66487 52.4442 1.88571 52.5465 2.13501C52.6487 2.38431 52.6888 2.65463 52.6632 2.92278C52.6829 3.19448 52.6414 3.46713 52.5416 3.7207C52.4418 3.97427 52.2863 4.20232 52.0866 4.3881C51.5587 4.75632 50.9182 4.92879 50.2763 4.87564H48.6808L48.683 1.05535ZM47.5171 0.0364147V10.0249H48.683V5.87177H50.7727L53.1942 10.0249H54.5699L51.852 5.5363C53.1934 5.07201 53.865 4.17952 53.8668 2.85883C53.8958 2.46162 53.8312 2.06314 53.678 1.69535C53.5248 1.32756 53.2874 1.00067 52.9848 0.740901C52.3976 0.271545 51.4899 0.0368652 50.2615 0.0368652L47.5171 0.0364147ZM39.0845 1.32596C38.4482 2.19549 38.1303 3.13166 38.1303 4.72535V4.7768H39.1132V4.73788C39.0428 3.79144 39.2835 2.84786 39.7989 2.05012C40.0133 1.71827 40.3113 1.44834 40.663 1.26727C41.0147 1.0862 41.4079 1.00032 41.8033 1.01822C42.1942 0.997989 42.5834 1.08111 42.9317 1.25917C43.28 1.43723 43.575 1.70392 43.7867 2.03222C44.2351 2.70808 44.4593 3.41883 44.4593 4.72804V4.76651H45.4369V4.72804C45.5127 3.52222 45.1742 2.32665 44.4773 1.33848C44.1801 0.910382 43.7795 0.563962 43.3125 0.331286C42.8455 0.0986104 42.3272 -0.0127962 41.8056 0.00735347C41.28 -0.017185 40.7565 0.0895835 40.2827 0.317977C39.809 0.546371 39.3999 0.889151 39.0926 1.31522" fill="white"/>
</mask>
<g mask="url(#mask0_158_4572)">
<path d="M54.5641 0.0175781H31.3945V10.0937H54.5641V0.0175781Z" fill="white"/>
</g>
</g>
<defs>
<clipPath id="clip0_158_4572">
<rect width="80" height="16" fill="white"/>
</clipPath>
</defs>
</svg>
