<svg width="81" height="20" viewBox="0 0 81 20" fill="none" xmlns="http://www.w3.org/2000/svg">
<path d="M9.9365 9.5967C9.9546 9.5727 9.9911 9.5911 9.9912 9.6211L9.6172 13.7471C9.6172 13.7651 9.6475 13.7832 9.6475 13.7832H11.584C11.6081 13.7832 11.6084 13.832 11.6084 13.832L7.44531 19.2793C7.42722 19.3033 7.39077 19.285 7.39062 19.2549L7.76465 15.1289C7.76465 15.1111 7.73438 15.0928 7.73438 15.0928H5.79785C5.77371 15.0928 5.77344 15.0439 5.77344 15.0439L9.9365 9.5967ZM8.8877 0C9.5152 0 10.0828 0.35599 10.3604 0.91699L17.8125 16.0576H14.5723L8.9248 4.65723L3.27051 16.0576H0L7.5 0.8623C7.75942 0.3377 8.29658 0.00016 8.8877 0ZM64.6787 2.84766H56.165V13.2227H64.6787V16.0576H54.668C53.8776 16.0574 53.2383 15.4179 53.2383 14.6279V0H64.6787V2.84766ZM74.3281 0.00585997C76.8864 0.00605997 79.131 1.86991 79.3242 4.64453C79.4569 6.55073 78.6417 8.02852 76.7832 9.4521L80.9229 16.0576H77.4775L73.3506 9.4521H69.9053V16.0576H66.9844V0.00585997H74.3281ZM51.9961 16.0566L48.5273 16.0498L44.7617 10.0537L46.6504 7.55078L51.9961 16.0566ZM39.6006 10.1465L47.2334 0H50.9443C50.914 0.04013 39.2758 15.4217 39.2207 15.4971C38.8225 16.0279 38.1521 16.1057 37.8203 16.0273C36.9817 15.8402 36.668 15.1705 36.668 14.6338V0H39.6006V10.1465ZM30.8037 10.1465V0H33.7363V14.6338C33.7363 15.1706 33.4218 15.8343 32.583 16.0273C32.251 16.1055 31.5816 16.0215 31.1836 15.4971C31.1473 15.4548 25.8316 8.41522 22.3682 3.84277V16.0459H19.4414V0H23.1709L30.8037 10.1465ZM63.1963 9.4463H57.4336V6.60547H63.1963V9.4463ZM69.9053 6.60547H74.3096C75.631 6.60547 76.4941 5.88097 76.4941 4.65039C76.494 3.9868 75.9747 2.84082 74.3096 2.84082H69.9053V6.60547Z" fill="#080A0F"/>
</svg>
