<svg width="120" height="28" viewBox="0 0 120 28" fill="none" xmlns="http://www.w3.org/2000/svg">
<path d="M33.0164 13.0927C34.841 13.0927 36.0658 13.9176 36.8157 14.9424L36.8157 0.345115C36.8157 0.070167 36.4907 -0.1048 36.2658 0.0701674L18.2442 13.2427L18.7191 13.2427C20.5937 13.2427 21.5436 14.4425 21.5436 15.7422C21.5436 16.767 21.0187 17.5169 20.2938 17.8418C20.1688 17.8918 20.1688 18.0668 20.2938 18.1168C21.1186 18.4667 21.7185 19.3415 21.7185 20.3913C21.7185 21.8911 20.7437 23.0658 18.8691 23.0658L13.745 23.0658C13.645 23.0658 13.5451 22.9909 13.5451 22.8659L13.5451 16.667L0.122591 26.4902C-0.102367 26.6902 -0.00238659 27.0401 0.297557 27.0401L36.4907 27.0401C36.6657 27.0401 36.7907 26.9151 36.7907 26.7401L36.7907 21.7661C35.8159 22.6659 34.5411 23.2408 32.9914 23.2408C30.0919 23.2408 27.7424 21.2412 27.7424 18.1668C27.7674 15.0673 30.1419 13.0927 33.0164 13.0927ZM25.8427 22.8909C25.8427 22.9908 25.7678 23.0658 25.6678 23.0658L23.9431 23.0658C23.8431 23.0658 23.7681 22.9908 23.7681 22.8909L23.7681 13.4177C23.7681 13.3177 23.8431 13.2427 23.9431 13.2427L25.6678 13.2427C25.7678 13.2427 25.8427 13.3177 25.8427 13.4177L25.8427 22.8909Z" fill="#E2E2DE"/>
<path d="M15.8446 17.142L18.2692 17.142C18.969 17.142 19.4189 16.742 19.4189 16.1172C19.4189 15.5173 18.969 15.0923 18.2692 15.0923L15.7446 15.0923C15.6946 15.0923 15.6447 15.1423 15.6447 15.1923L15.6447 16.967C15.6447 17.067 15.7446 17.142 15.8446 17.142ZM15.8446 21.2412L18.3691 21.2412C19.144 21.2412 19.6189 20.8163 19.6189 20.1164C19.6189 19.4915 19.169 18.9916 18.3691 18.9916L15.8446 18.9916C15.7446 18.9916 15.6447 19.0666 15.6447 19.1916L15.6447 21.0412C15.6447 21.1412 15.7446 21.2412 15.8446 21.2412ZM35.241 16.0672C34.766 15.4423 33.9662 14.9424 33.0164 14.9424C31.2167 14.9424 29.917 16.3171 29.917 18.1668C29.917 20.0164 31.2167 21.3912 33.0164 21.3912C33.8412 21.3912 34.6161 21.0412 35.041 20.6913C35.066 20.6663 35.091 20.6163 35.091 20.5663L35.091 19.6165C35.091 19.5415 35.016 19.4665 34.941 19.4665L32.7164 19.4665C32.5915 19.4665 32.5165 19.3665 32.5165 19.2666L32.5165 17.8668C32.5165 17.7418 32.6165 17.6669 32.7164 17.6669L36.8407 17.6669L36.8407 15.4423L35.5159 16.1671C35.4159 16.1921 35.2909 16.1421 35.241 16.0672ZM38.3654 18.1668C38.3654 15.1423 40.54 13.0927 43.3394 13.0927C45.1641 13.0927 46.3389 14.0175 47.0387 15.1423C47.0887 15.2173 47.0637 15.3423 46.9637 15.3673L45.839 15.9672C45.764 16.0172 45.664 15.9922 45.639 15.9172C45.1641 15.1673 44.2893 14.6174 43.3394 14.6174C41.4648 14.6174 40.0651 16.0922 40.0651 18.1668C40.0651 20.2164 41.4648 21.7161 43.3394 21.7161C44.2893 21.7161 45.1641 21.1662 45.639 20.4163C45.689 20.3414 45.764 20.3164 45.839 20.3664L46.9637 20.9412C47.0637 20.9912 47.0887 21.0912 47.0387 21.1912C46.3139 22.316 45.1391 23.2658 43.3394 23.2658C40.54 23.2408 38.3654 21.1662 38.3654 18.1668ZM48.0136 18.1668C48.0136 15.7172 49.4133 13.8176 51.5129 13.2677C55.0872 12.3179 58.3616 15.6672 57.5867 19.3915C57.1118 21.6911 55.2872 23.2658 52.8626 23.2658C50.0132 23.2408 48.0136 21.0912 48.0136 18.1668ZM55.987 18.1668C55.987 16.1421 54.7373 14.6174 52.8376 14.6174C50.913 14.6174 49.6882 16.1421 49.6882 18.1668C49.6882 20.1914 50.913 21.7161 52.8376 21.7161C54.7623 21.7161 55.987 20.1664 55.987 18.1668ZM67.8848 22.9409L67.8848 15.4673L64.9104 22.9909C64.9104 23.0159 64.8604 23.0408 64.8354 23.0408L64.2105 23.0408C64.1855 23.0408 64.1355 23.0159 64.1355 22.9909L61.1361 15.4673L61.1361 22.9409C61.1361 23.0158 61.0861 23.0658 61.0111 23.0658L59.5114 23.0658C59.4364 23.0658 59.3864 23.0159 59.3864 22.9409L59.3864 13.3427C59.3864 13.2677 59.4364 13.2177 59.5114 13.2177L61.661 13.2177C61.761 13.2177 61.8359 13.2677 61.8859 13.3677L64.5104 20.1164L67.11 13.3677C67.1349 13.2677 67.2349 13.2177 67.3349 13.2177L69.4845 13.2177C69.5595 13.2177 69.6095 13.2677 69.6095 13.3427L69.6095 22.9409C69.6095 23.0158 69.5595 23.0658 69.4845 23.0658L67.9848 23.0658C67.9598 23.0658 67.8848 23.0158 67.8848 22.9409ZM84.8816 22.8909L84.8816 13.4177C84.8816 13.3177 84.9566 13.2427 85.0566 13.2427L91.4304 13.2427C91.5303 13.2427 91.6053 13.3177 91.6053 13.4177L91.6053 14.5674C91.6053 14.6674 91.5303 14.7424 91.4304 14.7424L86.7812 14.7424C86.6813 14.7424 86.6063 14.8174 86.6063 14.9174L86.6063 17.092C86.6063 17.1919 86.6813 17.2669 86.7812 17.2669L91.3304 17.2669C91.4304 17.2669 91.5054 17.3419 91.5054 17.4419L91.5054 18.5917C91.5054 18.6917 91.4304 18.7666 91.3304 18.7666L86.7812 18.7666C86.6813 18.7666 86.6063 18.8416 86.6063 18.9416L86.6063 21.3162C86.6063 21.4161 86.6813 21.4911 86.7812 21.4911L91.4304 21.4911C91.5303 21.4911 91.6053 21.5661 91.6053 21.6661L91.6053 22.8159C91.6053 22.9159 91.5303 22.9909 91.4304 22.9909L85.0566 22.9909C84.9566 23.0658 84.8816 22.9909 84.8816 22.8909ZM99.6038 22.9659L97.5292 19.4665C97.5042 19.4165 97.4292 19.3915 97.3793 19.3915L95.9295 19.3915C95.8295 19.3915 95.7546 19.4665 95.7546 19.5665L95.7546 22.8909C95.7546 22.9909 95.6796 23.0658 95.5796 23.0658L94.2298 23.0658C94.1299 23.0658 94.0549 22.9909 94.0549 22.8909L94.0549 13.4177C94.0549 13.3177 94.1299 13.2427 94.2298 13.2427L98.3791 13.2427C100.329 13.2427 101.603 14.4925 101.603 16.3171C101.603 17.9418 100.604 18.8666 99.5038 19.1416C99.3789 19.1666 99.3289 19.2915 99.3789 19.4165C99.7788 20.0664 101.029 22.066 101.503 22.7909C101.578 22.9159 101.503 23.0658 101.353 23.0658L99.7788 23.0658C99.7038 23.0658 99.6538 23.0408 99.6038 22.9659ZM99.8288 16.2921C99.8288 15.3423 99.1289 14.7424 98.1541 14.7424L95.9545 14.7424C95.8545 14.7424 95.7795 14.8174 95.7795 14.9174L95.7795 17.6918C95.7795 17.7918 95.8545 17.8668 95.9545 17.8668L98.1541 17.8668C99.1289 17.8668 99.8288 17.2669 99.8288 16.2921ZM113.251 22.8909L113.251 13.4177C113.251 13.3177 113.326 13.2427 113.426 13.2427L119.825 13.2427C119.925 13.2427 120 13.3177 120 13.4177L120 14.5924C120 14.6924 119.925 14.7674 119.825 14.7674L115.151 14.7674C115.051 14.7674 114.976 14.8424 114.976 14.9424L114.976 17.142C114.976 17.2419 115.051 17.3169 115.151 17.3169L119.7 17.3169C119.8 17.3169 119.875 17.3919 119.875 17.4919L119.875 18.6667C119.875 18.7666 119.8 18.8416 119.7 18.8416L115.151 18.8416C115.051 18.8416 114.976 18.9166 114.976 19.0166L114.976 21.4161C114.976 21.5161 115.051 21.5911 115.151 21.5911L119.825 21.5911C119.925 21.5911 120 21.6661 120 21.7661L120 22.9409C120 23.0408 119.925 23.1158 119.825 23.1158L113.426 23.1158C113.326 23.0658 113.251 22.9909 113.251 22.8909ZM102.853 18.1168C102.853 15.0923 105.028 13.0427 107.827 13.0427C109.652 13.0427 110.827 13.9676 111.527 15.0923C111.577 15.1673 111.552 15.2923 111.452 15.3173L110.327 15.9172C110.252 15.9672 110.152 15.9422 110.127 15.8672C109.652 15.1173 108.777 14.5674 107.827 14.5674C105.953 14.5674 104.553 16.0422 104.553 18.1168C104.553 20.1664 105.953 21.6661 107.827 21.6661C108.777 21.6661 109.652 21.1162 110.127 20.3663C110.177 20.2914 110.252 20.2664 110.327 20.3164L111.452 20.8912C111.552 20.9412 111.577 21.0412 111.527 21.1412C110.802 22.266 109.627 23.2158 107.827 23.2158C105.028 23.1908 102.853 21.1412 102.853 18.1168ZM80.6324 22.9409L80.6324 15.4673L77.658 22.9909C77.658 23.0159 77.608 23.0408 77.583 23.0408L76.9581 23.0408C76.9331 23.0408 76.8831 23.0159 76.8831 22.9909L73.8837 15.4673L73.8837 22.9409C73.8837 23.0158 73.8337 23.0658 73.7587 23.0658L72.259 23.0658C72.184 23.0658 72.134 23.0158 72.134 22.9409L72.134 13.3427C72.134 13.2677 72.184 13.2177 72.259 13.2177L74.4086 13.2177C74.5086 13.2177 74.5835 13.2677 74.6335 13.3677L77.258 20.1164L79.8575 13.3677C79.8825 13.2677 79.9825 13.2177 80.0825 13.2177L82.2321 13.2177C82.3071 13.2177 82.3571 13.2677 82.3571 13.3427L82.3571 22.9409C82.3571 23.0158 82.3071 23.0658 82.2321 23.0658L80.7324 23.0658C80.6824 23.0658 80.6324 23.0158 80.6324 22.9409Z" fill="#E2E2DE"/>
</svg>
