<svg width="20" height="20" viewBox="0 0 20 20" fill="none" xmlns="http://www.w3.org/2000/svg">
<g clip-path="url(#clip0_15_1973)">
<path d="M10.5375 11.3861H13.0604C13.7779 11.3861 14.2319 10.9913 14.2319 10.357C14.2319 9.75882 13.7779 9.32788 13.0604 9.32788H10.5375C10.454 9.32788 10.3824 9.39944 10.3824 9.47179V11.2422C10.3937 11.3258 10.4532 11.3861 10.5375 11.3861ZM10.5375 15.4655H13.144C13.945 15.4655 14.4231 15.0587 14.4231 14.3407C14.4231 13.7185 13.9691 13.216 13.144 13.216H10.5375C10.454 13.216 10.3824 13.2875 10.3824 13.3599V15.3104C10.3937 15.406 10.4532 15.4655 10.5375 15.4655Z" fill="#34313F"/>
<path d="M19.7678 0.0442236L12.3067 7.48593H13.5264C15.4274 7.48593 16.5515 8.68227 16.5515 9.98634C16.5515 11.0154 15.8581 11.7688 15.1165 12.104C14.9968 12.1523 14.9968 12.3195 15.1285 12.3669C15.9891 12.7022 16.5989 13.5995 16.5989 14.6519C16.5989 16.1352 15.6066 17.3195 13.6815 17.3195H8.39705C8.31349 17.3195 8.24198 17.248 8.24198 17.1756V11.5404L0.0513988 19.7009C-0.0562663 19.8087 0.0152426 20 0.171116 20H19.8634C19.9349 20 19.9952 19.9405 19.9952 19.8681V0.151958C20.0305 0.020104 19.8634 -0.0514509 19.7678 0.0442236Z" fill="#34313F"/>
</g>
<defs>
<clipPath id="clip0_15_1973">
<rect width="20" height="20" fill="white"/>
</clipPath>
</defs>
</svg>
