<svg width="200" height="132" viewBox="0 0 200 132" fill="none" xmlns="http://www.w3.org/2000/svg">
<path d="M94.3778 0.0618163C92.9878 -0.273184 90.1118 0.809816 87.0828 1.94982C84.7528 2.82682 82.3338 3.73782 80.4328 4.06282C79.0438 4.30082 77.7128 5.78282 77.2548 6.82982C70.7206 21.8352 64.4818 36.9674 58.5418 52.2178C50.4391 53.6067 42.3738 55.2053 34.3538 57.0118C40.8568 40.2918 47.4458 23.8038 53.8728 7.93182C57.0348 0.121817 48.7108 -0.615183 45.4808 7.30182L45.2748 7.80482C41.0378 18.1968 33.2908 37.1908 24.7348 59.2748C17.9483 60.9392 11.1962 62.7413 4.48284 64.6798C-0.663157 66.1658 -0.885156 67.5368 1.34284 70.6238C2.03184 71.5788 3.11884 71.9498 4.14784 72.3008C4.97084 72.5818 5.75784 72.8508 6.27284 73.3948C6.91884 74.0768 7.50884 74.7868 8.09184 75.4878C10.2238 78.0508 12.2518 80.4888 16.4748 80.9398C11.6718 93.7598 6.88084 106.979 2.54184 119.708C-0.182156 127.698 7.58084 129.333 10.5628 120.879C15.3708 107.25 20.4458 93.4538 25.6488 79.6998C29.3368 78.8428 37.4858 77.0788 45.8118 75.2758L45.8168 75.2748L50.1938 74.3268C42.4878 95.4208 37.4218 111.444 35.5138 119.241C35.1908 120.565 35.6278 121.369 35.9498 121.96C35.9928 122.039 36.0328 122.114 36.0698 122.186C37.3158 124.002 38.5328 124.981 39.8328 126.027C41.2388 127.158 42.7398 128.366 44.4798 130.795C45.3898 132.07 48.4198 132.757 49.4578 129.62C56.5848 108.077 63.9178 87.8648 70.7628 69.7438C73.6038 69.1218 78.7188 67.8878 81.8528 63.2168C85.3358 58.0228 87.2668 56.7428 88.5518 55.8918C89.3178 55.3838 89.8538 55.0288 90.3518 54.0868C92.0248 50.9238 90.9178 47.9528 84.9748 48.6868C84.9748 48.6868 82.7308 48.8468 78.5908 49.3188C81.3608 42.1858 83.9858 35.5088 86.4058 29.3508V29.3478C89.7368 20.8718 92.6808 13.3808 95.0858 7.04282C96.4928 3.33282 96.6808 0.616816 94.3778 0.0628163V0.0618163ZM140.484 4.00682C147.74 0.429816 151.342 0.906816 151.42 4.51882C151.521 9.12682 150.854 15.2048 150.36 19.7058L150.33 19.9798C149.431 28.1748 148.33 35.8698 147.249 43.4238C145.092 58.5008 143.016 73.0138 142.788 89.8118C154.647 59.1088 164.596 37.7698 177.398 11.4828C180.531 5.04582 182.789 4.48582 185.185 3.89082C185.902 3.71282 186.631 3.53182 187.4 3.18982C200.417 -2.60218 200.905 0.955816 199.204 8.02782C192.887 34.2718 176.749 116.88 174.277 129.599C173.56 133.279 169.567 131.72 168.524 130.28C166.467 127.437 164.295 125.836 162.567 124.562C160.402 122.966 158.933 121.883 159.258 119.513C162.162 98.3058 172.615 45.0988 175.34 32.5598C161.438 61.0438 147.032 96.6498 139.636 116.838C138.064 121.125 135.21 120.811 133.43 117.674C132.452 115.952 131.115 114.559 129.801 113.191C127.752 111.058 125.76 108.984 125.272 105.813C123.625 95.0868 125.33 78.0658 126.942 61.9798C127.818 53.2368 128.666 44.7698 128.933 37.7398C121.369 59.5448 108.668 101.884 103.105 121.013C100.804 128.928 93.1688 127.636 95.1978 119.922C103.654 87.8198 121.861 31.0438 129.747 10.6258C131.063 7.21882 133.893 6.31582 136.866 5.36582C138.079 4.97782 139.316 4.58282 140.484 4.00682Z" fill="#F2F2F2"/>
</svg>
