<svg width="39" height="10" viewBox="0 0 39 10" fill="none" xmlns="http://www.w3.org/2000/svg">
<path d="M7.66101 0.49H5.56101V4.947C3.72101 3.297 1.88501 1.647 7.62939e-06 0V9.046H2.10001V4.589C3.85201 6.144 5.73301 7.889 7.66201 9.536L7.66101 0.49ZM12.318 9.043H10.218V0.49H12.318V9.043ZM17.761 9.533C16.273 6.733 14.783 3.516 13.295 0.487H15.659L17.759 5.121L19.781 0.487H22.097C20.655 3.524 19.209 6.729 17.764 9.536L17.761 9.533ZM28.738 2.359H25.184V3.835H28.742V5.701H25.184V7.168H28.742V9.034H23.082V0.483999H28.742L28.738 2.359ZM34.074 0C32.629 2.852 31.184 5.927 29.739 9.046H31.933L32.37 8.021H35.791L36.23 9.046H38.503C37.005 5.927 35.517 2.808 34.074 0ZM32.985 6.416L34.074 3.928L35.126 6.416H32.985Z" fill="white"/>
</svg>
