<svg width="120" height="23" viewBox="0 0 120 23" fill="none" xmlns="http://www.w3.org/2000/svg">
<g clip-path="url(#clip0_14_1067)">
<path d="M11.9225 12.0412C11.9225 13.8002 11.3898 15.2819 10.3207 16.4813C9.20504 17.738 7.75533 18.3689 5.98073 18.3689C4.20144 18.3689 2.75641 17.738 1.64073 16.4813C0.57119 15.2819 0.0345459 13.8002 0.0345459 12.0412C0.0345459 10.2773 0.57119 8.79609 1.64073 7.60101C2.76883 6.35602 4.21854 5.73387 5.98073 5.73387C7.75533 5.73387 9.20504 6.35602 10.3207 7.60101C11.3898 8.79609 11.9225 10.2773 11.9225 12.0412ZM8.38918 12.0412C8.38918 11.2444 8.195 10.5719 7.80616 10.0282C7.37118 9.41019 6.76239 9.10314 5.98073 9.10314C5.19883 9.10314 4.59028 9.41019 4.15483 10.0282C3.76201 10.5719 3.56759 11.2444 3.56759 12.0412C3.56759 12.8335 3.76201 13.5141 4.15483 14.0741C4.59028 14.6921 5.19883 14.9997 5.98073 14.9997C6.76239 14.9997 7.37118 14.6921 7.80616 14.0741C8.195 13.5141 8.38918 12.8335 8.38918 12.0412ZM24.6977 12.0412C24.6977 13.6843 24.2158 15.1199 23.248 16.3481C22.2126 17.6925 20.8772 18.3689 19.2544 18.3689C18.109 18.3689 17.1373 18.0412 16.3428 17.394C16.3428 17.543 16.3597 17.9041 16.3936 18.4814C16.4274 19.0617 16.444 19.5348 16.444 19.9083C16.444 21.9712 15.8186 23 14.568 23C14.0564 23 13.6383 22.8215 13.3042 22.4687C12.9747 22.1122 12.8098 21.6839 12.8098 21.1784V7.76293C12.8098 7.27326 12.9789 6.84983 13.3169 6.49333C13.6549 6.14051 14.0735 5.96249 14.5722 5.96249C15.3241 5.96249 15.8736 6.33095 16.2203 7.06603C16.9598 6.178 17.9698 5.73387 19.2502 5.73387C20.8772 5.73387 22.2084 6.39742 23.248 7.72981C24.2116 8.96238 24.6977 10.398 24.6977 12.0412ZM21.1644 12.0412C21.1644 11.2444 20.9662 10.5719 20.5774 10.0282C20.1417 9.41019 19.5334 9.10314 18.7515 9.10314C17.9698 9.10314 17.3613 9.41019 16.9258 10.0282C16.537 10.5719 16.3428 11.2444 16.3428 12.0412C16.3428 12.8335 16.537 13.5141 16.9258 14.0741C17.3613 14.6921 17.9698 14.9997 18.7515 14.9997C19.5334 14.9997 20.1417 14.6921 20.5774 14.0741C20.9662 13.5141 21.1644 12.8335 21.1644 12.0412ZM37.553 11.6681C37.553 12.2484 37.4134 12.6468 37.1344 12.8712C36.8557 13.0909 36.4205 13.2029 35.833 13.2029H29.4558C29.4558 13.8669 29.773 14.377 30.4068 14.7335C30.9182 15.0121 31.5436 15.1535 32.2831 15.1535C32.8581 15.1535 33.5468 14.9661 34.354 14.5974C35.1612 14.2236 35.6807 14.0408 35.9051 14.0408C36.3148 14.0408 36.6613 14.1861 36.9487 14.4849C37.2316 14.7798 37.3757 15.1365 37.3757 15.5475C37.3757 16.4972 36.653 17.2366 35.2073 17.7675C34.1045 18.1656 32.9846 18.3689 31.8397 18.3689C29.9971 18.3689 28.5095 17.7675 27.3727 16.5685C26.2357 15.369 25.6656 13.8628 25.6656 12.0412C25.6656 10.3063 26.257 8.82507 27.4402 7.58905C28.6191 6.35188 30.0859 5.73387 31.8352 5.73387C33.4622 5.73387 34.8229 6.31899 35.9136 7.489C37.0035 8.65947 37.553 10.0535 37.553 11.6681ZM34.0202 10.7962C34.0031 10.2649 33.7539 9.78371 33.272 9.34763C32.7902 8.91224 32.2791 8.69673 31.738 8.69673C31.1803 8.69673 30.6603 8.91224 30.1787 9.34763C29.6971 9.78371 29.4558 10.2649 29.4558 10.7962H34.0202ZM49.4238 16.3187C49.4238 16.8254 49.2589 17.2525 48.9296 17.6095C48.5955 17.9625 48.1772 18.141 47.6658 18.141C46.4319 18.141 45.8146 17.1782 45.8146 15.257C45.8146 14.8876 45.8402 14.3069 45.8908 13.506C45.9458 12.7091 45.9714 12.1242 45.9714 11.7548C45.9714 9.71701 45.2993 8.69673 43.9597 8.69673C42.6198 8.69673 41.9523 9.71701 41.9523 11.7548C41.9523 12.1242 41.9733 12.7091 42.0113 13.506C42.0537 14.3069 42.0748 14.8876 42.0748 15.257C42.0748 17.1782 41.4662 18.141 40.2493 18.141C39.7378 18.141 39.3196 17.9625 38.9898 17.6095C38.656 17.2525 38.4911 16.8254 38.4911 16.3187V7.75925C38.4911 7.25624 38.656 6.82959 38.9898 6.48505C39.3196 6.13637 39.7422 5.96249 40.2536 5.96249C41.0987 5.96249 41.6859 6.33095 42.0155 7.06603C42.5861 6.178 43.5959 5.73387 45.0414 5.73387C46.381 5.73387 47.4461 6.08209 48.2278 6.77508C49.0265 7.51844 49.4238 8.53872 49.4238 9.83776V16.3187ZM60.5081 15.95C60.5081 16.7341 59.9894 17.3562 58.9492 17.8132C58.1255 18.182 57.2303 18.3716 56.325 18.3689C54.5455 18.3689 53.1004 17.738 51.9848 16.4813C50.9157 15.2819 50.379 13.8002 50.379 12.0412C50.379 10.2773 50.9241 8.78804 52.0185 7.56789C53.1131 6.34406 54.5455 5.73387 56.325 5.73387C57.3519 5.73387 58.2352 5.88314 58.9707 6.178C59.9969 6.57636 60.5081 7.19851 60.5081 8.04514C60.5081 8.47225 60.3736 8.84991 60.1026 9.17789C59.8325 9.5015 59.4856 9.66756 59.0633 9.66756C58.7754 9.66756 58.3615 9.57211 57.8206 9.38581C57.28 9.19445 56.8492 9.10314 56.5323 9.10314C55.6911 9.10314 55.036 9.39777 54.567 9.9868C54.1313 10.5181 53.9119 11.1987 53.9119 12.0412C53.9119 12.8335 54.1063 13.506 54.4996 14.0495C54.9343 14.6846 55.5473 14.9997 56.329 14.9997C56.6759 14.9997 57.1488 14.9001 57.7529 14.6963C58.3577 14.4978 58.7932 14.3941 59.0633 14.3941C59.4568 14.3941 59.7941 14.5597 60.082 14.8835C60.3652 15.2113 60.5081 15.5636 60.5081 15.95ZM73.3512 16.3187C73.3512 16.8254 73.1868 17.2525 72.8567 17.6095C72.5232 17.9625 72.1008 18.141 71.5885 18.141C70.8195 18.141 70.2707 17.7714 69.9409 17.037C69.2016 17.9253 68.1914 18.3689 66.911 18.3689C65.2718 18.3689 63.9277 17.6925 62.8875 16.3481C61.9409 15.1199 61.4642 13.6843 61.4642 12.0412C61.4642 10.398 61.9409 8.96238 62.8875 7.72981C63.9446 6.39742 65.284 5.73387 66.911 5.73387C68.1914 5.73387 69.2016 6.178 69.9409 7.06603C70.2707 6.33095 70.8195 5.96249 71.5885 5.96249C72.0877 5.96249 72.5063 6.14051 72.8448 6.49333C73.1821 6.84983 73.3512 7.26912 73.3512 7.75925V16.3187ZM69.8184 12.0412C69.8184 11.2444 69.6242 10.5719 69.2354 10.0282C68.7831 9.41019 68.1745 9.10314 67.4099 9.10314C66.6278 9.10314 66.0195 9.41019 65.5838 10.0282C65.1915 10.5719 64.997 11.2444 64.997 12.0412C64.997 12.8335 65.1865 13.5141 65.5625 14.0741C66.0111 14.6921 66.6278 14.9997 67.4099 14.9997C68.1914 14.9997 68.7997 14.6921 69.2354 14.0741C69.6242 13.5141 69.8184 12.8335 69.8184 12.0412ZM82.3654 7.5304C82.3654 8.27307 81.9979 8.78344 81.2624 9.06128C80.5822 9.28576 79.9055 9.51438 79.2299 9.75013C78.4897 10.1655 78.1222 10.9372 78.1222 12.0577V16.3187C78.1222 16.8254 77.9531 17.2525 77.6242 17.6095C77.2897 17.9625 76.8671 18.141 76.356 18.141C75.8409 18.141 75.4177 17.9625 75.0886 17.6095C74.7541 17.2525 74.5896 16.8254 74.5896 16.3187V7.75925C74.5896 7.25624 74.7541 6.82959 75.0839 6.48505C75.4177 6.13637 75.8409 5.96249 76.3523 5.96249C77.1969 5.96249 77.784 6.33095 78.114 7.06603C78.8708 6.178 79.6822 5.73387 80.5569 5.73387C81.0551 5.73387 81.4821 5.91189 81.8372 6.26471C82.1877 6.62167 82.3654 7.04487 82.3654 7.5304ZM91.5823 7.68818C91.5823 8.45983 91.2738 8.94536 90.6618 9.15328C90.3608 9.25678 89.7309 9.3106 88.7719 9.3106V16.3187C88.7719 16.8254 88.6028 17.2525 88.2739 17.6095C87.9392 17.9625 87.5169 18.141 87.0055 18.141C86.5075 18.141 86.084 17.9625 85.7458 17.6095C85.4085 17.2525 85.2391 16.8254 85.2391 16.3187V9.3106C84.512 9.3106 83.9841 9.21929 83.6505 9.04127C83.1944 8.79218 82.9691 8.33977 82.9691 7.68818C82.9691 7.03705 83.2019 6.59292 83.6709 6.35602C83.9878 6.18168 84.512 6.09083 85.2391 6.09083V4.60526C85.2391 2.85841 85.8261 1.98717 87.0055 1.98717C88.1805 1.98717 88.7719 2.85841 88.7719 4.60526V6.09083C89.7309 6.09083 90.3608 6.14465 90.6618 6.24815C91.2738 6.45561 91.5823 6.93746 91.5823 7.68818ZM119.965 5.58115C119.956 4.51602 117.951 4.03256 112.763 4.03256C100.588 4.03256 97.4992 3.52196 94.1936 0.106689C95.5841 2.15737 96.3449 6.00366 109.213 5.8123C122.64 5.60921 114.449 9.21147 112.066 13.2813C116.363 9.51484 119.953 7.03222 119.965 5.59656V5.58115ZM102.857 16.5183C102.857 16.997 102.663 17.456 102.319 17.7944C101.974 18.1328 101.506 18.323 101.019 18.3232C100 18.3232 99.1766 17.5145 99.1766 16.5183C99.1764 16.2807 99.224 16.0454 99.3165 15.8258C99.409 15.6063 99.5447 15.4068 99.7158 15.2387C99.8869 15.0707 100.09 14.9374 100.314 14.8466C100.537 14.7557 100.777 14.709 101.019 14.7092C102.034 14.7092 102.857 15.5181 102.857 16.5183ZM111.241 16.5183C111.241 16.997 111.047 17.456 110.703 17.7944C110.358 18.1328 109.891 18.323 109.403 18.3232C108.385 18.3232 107.561 17.5145 107.561 16.5183C107.561 16.2807 107.608 16.0454 107.701 15.8259C107.793 15.6063 107.929 15.4068 108.1 15.2388C108.271 15.0708 108.474 14.9375 108.698 14.8466C108.921 14.7558 109.161 14.709 109.403 14.7092C110.418 14.7092 111.241 15.5181 111.241 16.5183Z" fill="#E2E2DE"/>
</g>
<defs>
<clipPath id="clip0_14_1067">
<rect width="120" height="23" fill="white"/>
</clipPath>
</defs>
</svg>
