<svg width="20" height="20" viewBox="0 0 20 20" fill="none" xmlns="http://www.w3.org/2000/svg">
<g clip-path="url(#clip0_15_1982)">
<path d="M10 20C15.5228 20 20 15.5228 20 10C20 4.47715 15.5228 0 10 0C4.47715 0 0 4.47715 0 10C0 15.5228 4.47715 20 10 20Z" fill="#1FBBEB"/>
<path d="M3.40488 5.25244C5.09672 7.0326 6.67768 7.29876 12.9089 7.29876C19.1382 7.29876 16.3998 8.68516 12.5522 12.1195C13.7718 9.99812 17.9639 8.12052 11.0922 8.22636C4.50608 8.32612 4.11672 6.32116 3.40488 5.25244ZM7.83912 13.8068C7.83886 14.0566 7.73945 14.296 7.56273 14.4724C7.38601 14.6489 7.14645 14.7479 6.89672 14.7478C6.64699 14.7477 6.40753 14.6484 6.23099 14.4718C6.05445 14.2951 5.95528 14.0556 5.95528 13.8059C5.95528 13.5562 6.05445 13.3166 6.23099 13.14C6.40753 12.9634 6.64699 12.8641 6.89672 12.864C7.14645 12.8638 7.38601 12.9629 7.56273 13.1393C7.73945 13.3158 7.83886 13.5552 7.83912 13.8049V13.8068ZM12.1301 13.8068C12.1298 14.0566 12.0304 14.296 11.8537 14.4724C11.677 14.6489 11.4374 14.7479 11.1877 14.7478C10.9379 14.7477 10.6985 14.6484 10.5219 14.4718C10.3454 14.2951 10.2462 14.0556 10.2462 13.8059C10.2462 13.5562 10.3454 13.3166 10.5219 13.14C10.6985 12.9634 10.9379 12.8641 11.1877 12.864C11.4374 12.8638 11.677 12.9629 11.8537 13.1393C12.0304 13.3158 12.1298 13.5552 12.1301 13.8049V13.8068Z" fill="white"/>
</g>
<defs>
<clipPath id="clip0_15_1982">
<rect width="20" height="20" fill="white"/>
</clipPath>
</defs>
</svg>
