<svg width="20" height="20" viewBox="0 0 20 20" fill="none" xmlns="http://www.w3.org/2000/svg">
<g clip-path="url(#clip0_15_1933)">
<path d="M6.48273 15.345C6.64242 15.2739 6.80422 15.2085 6.9675 15.1472C7.15188 15.0779 7.33773 15.0127 7.52609 14.956C7.76055 14.8854 7.99695 14.8215 8.23656 14.7706C8.55987 14.7019 8.8868 14.6513 9.21578 14.6193C9.02981 15.2026 8.82639 15.7801 8.60578 16.3512C8.61487 16.4626 8.62071 16.5744 8.62328 16.6862C9.07671 16.5965 9.5378 16.5513 10 16.5512C10.4712 16.5512 10.9312 16.5983 11.3767 16.6862C11.3793 16.5744 11.3851 16.4626 11.3942 16.3512C11.1736 15.7801 10.9702 15.2026 10.7842 14.6193C11.1135 14.6512 11.4404 14.702 11.7634 14.7706C12.003 14.8215 12.2394 14.8854 12.4738 14.956C12.6623 15.0127 12.8481 15.0779 13.0325 15.1472C13.1959 15.2086 13.3577 15.274 13.5174 15.3451C14.6718 15.8583 15.7002 16.6174 16.5307 17.5694C18.6541 15.7357 20 13.0259 20 10C20 4.47719 15.5228 0 10 0C4.47719 0 0 4.47719 0 10C0 13.0259 1.34586 15.7356 3.4693 17.5694C4.29988 16.6174 5.32831 15.8583 6.48273 15.345Z" fill="#A5DBE8"/>
<path d="M13.5174 15.3452L14.1382 17.4798L14.3143 17.4881C14.4286 17.4881 14.509 17.5181 14.509 17.6324C14.509 17.8224 14.5188 18.0359 14.537 18.2224C14.6917 18.3537 14.8801 18.5018 15.0229 18.6457C15.5576 18.3343 16.0624 17.974 16.5307 17.5695C15.7002 16.6175 14.6718 15.8584 13.5174 15.3452ZM12.3036 15.3238L13.0325 15.1473C12.8481 15.078 12.6623 15.0128 12.4738 14.9561C12.2394 14.8855 12.003 14.8216 11.7634 14.7707C11.4401 14.7019 11.1132 14.6514 10.7842 14.6194C10.9701 15.2027 11.1736 15.7802 11.3942 16.3513C11.3851 16.4627 11.3793 16.5744 11.3767 16.6863C11.8932 16.7881 12.401 16.9652 12.8705 17.1728L12.3036 15.3238Z" fill="#525353"/>
<path d="M4.97711 18.6456C5.09321 18.7133 5.21047 18.7793 5.32969 18.8424C5.37141 18.642 5.43813 18.3643 5.45828 18.1581C5.3036 18.2895 5.11992 18.5017 4.97711 18.6456ZM12.8584 17.1543C12.3833 16.9439 11.8864 16.7869 11.3767 16.6862C10.9233 16.5965 10.4622 16.5514 10 16.5513C9.52875 16.5513 9.06875 16.5983 8.62328 16.6862C8.10688 16.788 7.56805 16.9424 7.09867 17.15L7.04875 17.461H12.9514L12.8584 17.1543Z" fill="#0D0D0D"/>
<path d="M5.44 18.2173C5.45828 18.0309 5.47149 17.8647 5.47149 17.6747C5.47149 17.5604 5.54985 17.4872 5.66414 17.4872L5.85156 17.4807L6.48274 15.345C5.32831 15.8582 4.29988 16.6174 3.4693 17.5693C3.9376 17.9739 4.44236 18.3342 4.97711 18.6456C5.11992 18.5016 5.2688 18.3637 5.42336 18.2323" fill="#525353"/>
<path d="M14.6134 18.5973C14.6538 18.8004 14.663 18.8409 14.6703 18.8424C14.7892 18.7792 14.9067 18.7136 15.0229 18.6457C14.8785 18.5001 14.7281 18.3607 14.572 18.2278L14.6134 18.5973Z" fill="#0D0D0D"/>
<path d="M12.8584 17.1543L12.9514 17.461H14.1587L13.5174 15.3451C13.3578 15.2744 13.1961 15.2084 13.0325 15.1472L12.3036 15.3238L12.8584 17.1543Z" fill="#AA9678"/>
<path d="M5.86243 17.8884C5.86875 17.884 5.87516 17.8795 5.88141 17.875H5.86329C5.86313 17.8795 5.86266 17.884 5.86243 17.8884Z" fill="#C4B6A1"/>
<path d="M14.1367 17.875H14.1185L14.1375 17.8884C14.1374 17.884 14.1369 17.8795 14.1367 17.875Z" fill="#AA9678"/>
<path d="M14.1159 17.844L9.99139 17.8487L9.99999 19.9999C11.535 19.9999 12.9887 19.6531 14.2885 19.035C14.2037 18.6622 14.1951 18.2606 14.1813 17.8699C14.1751 17.8653 14.1159 17.844 14.1159 17.844Z" fill="#AA9678"/>
<path d="M9.99336 17.8576C9.99336 17.8576 5.8461 17.8523 5.83977 17.8568C5.82602 18.2476 5.74539 18.7114 5.71149 19.035C7.01125 19.6531 8.465 19.9999 10 19.9999L10.0023 17.8645L9.99336 17.8576Z" fill="#C4B6A1"/>
<path d="M10 17.668H10.0001V17.8749H10V17.668Z" fill="#786453"/>
<path d="M16.5402 9.93505C16.5405 9.93771 16.5413 9.94005 16.5416 9.94271C16.5418 9.94435 16.5423 9.94583 16.5425 9.94739V9.94802C16.5473 9.98622 16.5491 10.0261 16.5499 10.0664C16.5501 10.0738 16.5513 10.0808 16.5513 10.0881L16.5514 10.0908L16.5513 10.0938C16.5513 10.1018 16.5499 10.1092 16.5499 10.1171C16.5493 10.1559 16.5469 10.1946 16.5426 10.2332V10.2337L16.5415 10.2394C16.5412 10.2425 16.5402 10.2452 16.5399 10.2482C16.5346 10.288 16.5271 10.3275 16.5174 10.3665L16.5173 10.3671L16.5187 10.3656L16.5192 10.3638V10.3639L16.7809 10.0899L16.5171 9.81372L16.5172 9.81427C16.527 9.85278 16.5345 9.89325 16.5402 9.93505Z" fill="#676A6A"/>
<path d="M16.5398 10.2483C16.5405 10.2432 16.5419 10.2386 16.5426 10.2333C16.5472 10.1958 16.5489 10.1567 16.5498 10.1172C16.5499 10.1083 16.5513 10.1 16.5513 10.091C16.5513 10.0826 16.5501 10.0748 16.5499 10.0665C16.5494 10.027 16.547 9.98747 16.5425 9.94816C16.5419 9.94363 16.5407 9.93965 16.5401 9.9352C16.5348 9.89452 16.5272 9.8542 16.5172 9.81441C16.5137 9.80098 16.509 9.78902 16.505 9.77606C16.4813 9.69777 16.449 9.62863 16.4108 9.57121C16.3961 9.54939 16.3801 9.52851 16.3628 9.50871C16.347 9.49122 16.3297 9.47515 16.3111 9.46066C16.3042 9.45543 16.2969 9.45176 16.2899 9.44723C16.2684 9.43306 16.245 9.42179 16.2205 9.41371C16.1974 9.40603 16.1733 9.40186 16.1489 9.40137C16.1244 9.40137 16.1006 9.40652 16.0773 9.41371C16.0527 9.42176 16.0294 9.43303 16.0078 9.44723C16.0009 9.45176 15.9936 9.45535 15.9868 9.46059C15.9546 9.48568 15.9263 9.5154 15.9029 9.54879C15.8974 9.55615 15.8921 9.56365 15.887 9.57129C15.8487 9.62871 15.8164 9.69785 15.7928 9.77613L15.7898 9.78551C15.7794 9.82145 15.7712 9.85926 15.7644 9.89809C15.7624 9.90996 15.7597 9.92137 15.758 9.93356C15.7518 9.97699 15.7486 10.0223 15.7478 10.0687C15.7477 10.0751 15.7467 10.0812 15.7467 10.0876H15.7483C15.7483 10.4686 15.9285 10.7773 16.1508 10.7773C16.189 10.7773 16.2258 10.7673 16.2609 10.7502C16.282 10.7399 16.3018 10.7273 16.3201 10.7128C16.3277 10.7067 16.3348 10.6993 16.3421 10.6925C16.3598 10.6759 16.3767 10.6571 16.3927 10.6363C16.4038 10.6217 16.4148 10.6071 16.4249 10.5907C16.4314 10.5804 16.4373 10.5691 16.4433 10.558C16.4546 10.5372 16.4652 10.5156 16.4748 10.4926C16.4784 10.4843 16.4821 10.4763 16.4854 10.4678C16.4976 10.4358 16.5083 10.4021 16.5174 10.3667C16.527 10.3289 16.5342 10.2893 16.5398 10.2483ZM16.1633 9.99918C16.08 9.99918 16.0124 9.88332 16.0124 9.74051C16.0124 9.59777 16.08 9.48191 16.1633 9.48191C16.2467 9.48191 16.3142 9.59777 16.3142 9.74051C16.3142 9.88332 16.2467 9.99918 16.1633 9.99918Z" fill="#0D0D0D"/>
<path d="M16.1634 9.48169C16.08 9.48169 16.0124 9.59755 16.0124 9.74028C16.0124 9.8831 16.08 9.99896 16.1634 9.99896C16.2467 9.99896 16.3142 9.8831 16.3142 9.74028C16.3142 9.59755 16.2467 9.48169 16.1634 9.48169Z" fill="white"/>
<path d="M15.7928 9.77596C15.8164 9.69768 15.8487 9.62854 15.887 9.57111C15.8922 9.5633 15.8974 9.55603 15.9029 9.54861C15.9263 9.51517 15.9546 9.48544 15.9868 9.46041C15.9936 9.45518 16.0009 9.45158 16.0078 9.44705C16.0293 9.43282 16.0527 9.42155 16.0773 9.41354C16.1005 9.40619 16.1244 9.40119 16.1489 9.40119C16.1734 9.40119 16.1973 9.40619 16.2205 9.41354C16.245 9.42162 16.2684 9.43288 16.2899 9.44705C16.2969 9.45158 16.3042 9.45525 16.3111 9.46049C16.3291 9.47424 16.3462 9.49049 16.3628 9.50853C16.3801 9.52833 16.3961 9.54921 16.4108 9.57104C16.4491 9.62846 16.4813 9.6976 16.505 9.77588V9.77604L16.1489 8.14502L15.7928 9.77596Z" fill="#909393"/>
<path d="M11.4296 10.0756C11.4292 10.0428 11.427 10.0103 11.4234 9.97846C11.4233 9.97807 11.4231 9.9776 11.4231 9.97713C11.4194 9.94595 11.4142 9.91498 11.4074 9.88432L11.4068 9.88197C11.4001 9.85206 11.3919 9.82249 11.3824 9.79338L11.3816 9.79143C11.372 9.76255 11.361 9.73418 11.3486 9.70643C11.3484 9.70588 11.3481 9.70533 11.3478 9.70471C11.2486 9.48385 11.0685 9.3094 10.8446 9.21721L10.8419 9.21619C10.7874 9.19397 10.731 9.17694 10.6733 9.16533C10.6718 9.1651 10.6704 9.16502 10.6689 9.16471C10.6094 9.15296 10.5489 9.14702 10.4882 9.14697C10.4274 9.14697 10.3682 9.15322 10.3106 9.16424L10.3045 9.16518C10.2473 9.17658 10.192 9.1933 10.139 9.21455L10.1348 9.21619C10.0811 9.23795 10.0296 9.26466 9.98095 9.29596C9.93228 9.32736 9.88657 9.36307 9.84454 9.40252L9.84353 9.40572L9.84001 9.4065C9.77269 9.47056 9.71507 9.54409 9.66899 9.62478L9.66728 9.62768C9.65321 9.65244 9.64048 9.67822 9.62876 9.70447C9.62751 9.70729 9.62595 9.70994 9.62478 9.71275C9.61407 9.73705 9.60485 9.76221 9.59626 9.78752C9.59462 9.79252 9.59243 9.79721 9.59087 9.80213C9.58337 9.8258 9.57728 9.8501 9.57149 9.87439C9.57001 9.88143 9.56774 9.88814 9.56626 9.8951C9.56126 9.91916 9.55782 9.94377 9.55462 9.96846C9.55368 9.97604 9.55204 9.9833 9.55126 9.99088C9.54145 10.0844 9.54577 10.1789 9.56407 10.2712C9.56423 10.2724 9.56431 10.2737 9.56462 10.2749C9.57642 10.3338 9.59376 10.3905 9.61603 10.4448C9.61634 10.4456 9.61649 10.4463 9.61688 10.4471C9.66196 10.5561 9.72704 10.6557 9.80876 10.7408C9.87282 10.8076 9.94657 10.8649 10.0277 10.9106L10.0288 10.9113C10.0542 10.9256 10.0803 10.9384 10.107 10.9503C10.1092 10.9512 10.1113 10.9524 10.1135 10.9534C10.1382 10.9642 10.1638 10.9735 10.1895 10.9821C10.1938 10.9836 10.1981 10.9855 10.2024 10.9869C10.2262 10.9945 10.2507 11.0006 10.2752 11.0062C10.2819 11.0078 10.2883 11.0099 10.295 11.0113C10.3188 11.0163 10.3434 11.0196 10.3681 11.0228C10.3755 11.0237 10.3828 11.0254 10.3904 11.0262C10.6104 11.0494 10.8316 10.9942 11.0149 10.8704C11.1152 10.8026 11.2016 10.7162 11.2695 10.616C11.3745 10.4604 11.4306 10.2769 11.4304 10.0892C11.4304 10.0869 11.4301 10.0848 11.4301 10.0827C11.43 10.0803 11.4297 10.078 11.4296 10.0756ZM10.4882 9.96518C10.4417 9.96517 10.3957 9.95601 10.3528 9.93822C10.3098 9.92043 10.2708 9.89435 10.2379 9.86148C10.2051 9.82861 10.179 9.78959 10.1612 9.74664C10.1435 9.7037 10.1343 9.65767 10.1343 9.61119C10.1343 9.56471 10.1435 9.51869 10.1613 9.47575C10.1791 9.4328 10.2051 9.39379 10.238 9.36093C10.2709 9.32806 10.3099 9.302 10.3528 9.28421C10.3958 9.26643 10.4418 9.25728 10.4883 9.25729C10.5822 9.2573 10.6722 9.2946 10.7386 9.36098C10.8049 9.42737 10.8422 9.5174 10.8422 9.61127C10.8422 9.70514 10.8049 9.79516 10.7385 9.86154C10.6721 9.92791 10.5821 9.96519 10.4882 9.96518Z" fill="#0D0D0D"/>
<path d="M10.4882 9.25732C10.3944 9.25732 10.3043 9.29461 10.238 9.36098C10.1716 9.42735 10.1343 9.51737 10.1343 9.61123C10.1343 9.70509 10.1716 9.79511 10.238 9.86148C10.3043 9.92785 10.3944 9.96514 10.4882 9.96514C10.5821 9.96514 10.6721 9.92785 10.7385 9.86148C10.8048 9.79511 10.8421 9.70509 10.8421 9.61123C10.8421 9.51737 10.8048 9.42735 10.7385 9.36098C10.6721 9.29461 10.5821 9.25732 10.4882 9.25732Z" fill="white"/>
<path d="M9.83999 9.40654L9.8435 9.40576L9.84452 9.40256L10.4934 7.41803V6.95357L10.4933 6.94834C10.1271 6.87251 9.75409 6.83403 9.38006 6.8335C9.25311 6.8335 9.12717 6.83889 9.00202 6.8474C8.98381 6.84865 8.96553 6.84975 8.94725 6.85115C8.29592 6.90061 7.65452 7.07037 7.06061 7.34146C6.55131 7.57404 6.07811 7.88037 5.65272 8.24357L5.65202 8.24428C5.5382 8.34174 5.42795 8.44329 5.32147 8.54873C5.30147 8.56826 5.28116 8.58764 5.26139 8.60748C5.16074 8.70899 5.06338 8.81371 4.96944 8.92146C4.94905 8.94498 4.92897 8.96896 4.90881 8.99271C4.81402 9.10393 4.72277 9.21813 4.63522 9.33514C4.62796 9.34498 4.62116 9.35529 4.61397 9.36514C4.53092 9.47855 4.4513 9.59444 4.37522 9.71264C4.3603 9.73568 4.34499 9.75842 4.33038 9.7817C4.26866 9.87959 4.21124 9.98014 4.15421 10.0809H7.11022L9.83999 9.40654Z" fill="#BBBCBD"/>
<path d="M12.3355 9.18316C12.3416 9.10574 12.3465 9.0284 12.3505 8.9509C12.3559 8.84605 12.3595 8.74105 12.3616 8.63613C12.3631 8.55465 12.3629 8.47309 12.3625 8.3916C12.3625 8.36809 12.363 8.34457 12.3628 8.32098C12.3604 8.11058 12.3526 7.90028 12.3396 7.69027L12.3378 7.6891L12.337 7.68762C12.2589 7.64274 12.1807 7.59805 12.1024 7.55355L12.097 7.55043L12.0358 7.51582L12.0347 7.5152L11.9923 7.49144L11.9839 7.48676C11.9737 7.48107 11.9634 7.47547 11.953 7.46996C11.8172 7.39944 11.6785 7.33431 11.5375 7.27473C11.2013 7.13277 10.7485 7.00832 10.4934 6.94824V7.41793L11.1366 9.40566L11.1373 9.4073C11.2038 9.47059 11.2609 9.54332 11.3066 9.62348C11.3216 9.64973 11.3354 9.67691 11.3478 9.70465C11.3481 9.70527 11.3484 9.70582 11.3486 9.70637C11.361 9.73402 11.372 9.76238 11.3816 9.79137L11.3823 9.79332C11.3919 9.8223 11.4001 9.85184 11.4068 9.88191L11.4074 9.88426C11.4141 9.91465 11.4194 9.94566 11.4231 9.97707C11.4231 9.97754 11.4233 9.97801 11.4234 9.9784C11.427 10.0103 11.4291 10.0427 11.4296 10.0755L11.432 10.0808H12.2196C12.2724 9.79178 12.3104 9.50023 12.3334 9.2073C12.334 9.19926 12.3349 9.19121 12.3355 9.18316Z" fill="#E3DDDB"/>
<path d="M13.3655 8.48047C13.365 8.48133 13.3646 8.48234 13.3641 8.4832L13.3655 8.48047Z" fill="#FCB03F"/>
<path d="M9.84454 9.4025C9.88687 9.36283 9.93271 9.32709 9.9815 9.2957C10.03 9.26452 10.0813 9.23789 10.1348 9.21617C10.1362 9.21555 10.1377 9.21516 10.139 9.21453C10.1925 9.19301 10.248 9.17648 10.3045 9.16516L10.3106 9.16422C10.3692 9.15286 10.4286 9.14708 10.4882 9.14695C10.5501 9.14695 10.6104 9.1532 10.6689 9.16469C10.6704 9.165 10.6718 9.16508 10.6733 9.16531C10.7319 9.17708 10.7893 9.19445 10.8446 9.21719C10.9531 9.26193 11.0524 9.3264 11.1374 9.40734L11.1367 9.4057L10.4934 7.41797L9.84454 9.4025Z" fill="#909393"/>
<path d="M9.61603 10.4448C9.59351 10.3899 9.57629 10.3331 9.56462 10.2749C9.56431 10.2737 9.56423 10.2724 9.56407 10.2712C9.54577 10.1789 9.54145 10.0844 9.55126 9.99087C9.55204 9.98329 9.55368 9.97603 9.55462 9.96845C9.55782 9.94376 9.56126 9.91915 9.56626 9.89509C9.56775 9.88813 9.57001 9.88142 9.5715 9.87438C9.57728 9.85009 9.58337 9.82579 9.59087 9.80212C9.59251 9.7972 9.59454 9.79251 9.59626 9.78751C9.60485 9.7622 9.61407 9.73704 9.62478 9.71274C9.62595 9.70993 9.62751 9.70728 9.62876 9.70446C9.64048 9.67821 9.65321 9.65243 9.66728 9.62767L9.669 9.62478C9.71508 9.54408 9.77269 9.47055 9.84001 9.40649L7.11025 10.0809H7.10501L9.80876 10.7408C9.72704 10.6557 9.66196 10.5561 9.61689 10.447C9.6165 10.4463 9.61634 10.4456 9.61603 10.4448Z" fill="#676A6A"/>
<path d="M15.758 9.93345C15.7598 9.92126 15.7623 9.90985 15.7644 9.89798C15.7712 9.85915 15.7794 9.82134 15.7898 9.7854C15.791 9.78134 15.7915 9.77673 15.7927 9.77274L16.1489 8.14181L16.1488 7.21188C15.8578 6.97149 15.5462 6.84009 15.2217 6.84009C14.8117 6.84009 14.4294 7.06649 14.1436 7.3461C13.8308 7.65212 13.5891 8.03712 13.3936 8.42563C13.3846 8.44353 13.3754 8.46071 13.3665 8.47868C13.4267 8.53087 13.4863 8.58376 13.5452 8.63759C13.6781 8.75964 13.8087 8.88417 13.937 9.0111C13.9969 9.07017 14.0556 9.13048 14.1145 9.19056C14.177 9.25423 14.2396 9.31774 14.3012 9.38243C14.4137 9.50069 14.5247 9.62044 14.6341 9.74165C14.728 9.84518 14.8208 9.94964 14.9127 10.055L14.9128 10.0552C14.9282 10.0713 14.939 10.0828 14.9431 10.0875H15.7464C15.7464 10.081 15.7477 10.0751 15.7478 10.0686C15.7486 10.0222 15.7518 9.97688 15.758 9.93345ZM13.3664 8.48298L13.3655 8.48056L13.3641 8.48321L13.3677 8.48665C13.3673 8.48541 13.3669 8.48419 13.3664 8.48298Z" fill="#E3DDDB"/>
<path d="M3.66992 11.1072L3.67711 11.0893C3.78497 10.8094 3.90936 10.5362 4.04961 10.2711C4.07133 10.2298 4.09258 10.1884 4.11508 10.1475C4.1275 10.125 4.14156 10.1034 4.15422 10.0809C4.21125 9.98013 4.26867 9.87958 4.33039 9.78169C4.345 9.75833 4.36031 9.73567 4.37524 9.71263C4.45132 9.59443 4.53094 9.47854 4.61399 9.36513C4.62117 9.35528 4.62797 9.34497 4.63524 9.33513C4.72279 9.21812 4.81403 9.10392 4.90883 8.99271C4.92899 8.96896 4.94899 8.94505 4.96945 8.92146C5.06339 8.8137 5.16076 8.70898 5.26141 8.60747C5.28125 8.58763 5.30149 8.56825 5.32149 8.54872C5.42796 8.44328 5.53822 8.34173 5.65203 8.24427L5.65274 8.24356C6.10203 6.73856 7.55281 5.81372 9.17945 5.81372C9.83414 5.81372 10.4852 6.00239 11.0432 6.34372C11.6155 6.6938 12.0058 7.03583 12.3088 7.63372L12.3133 7.64271C12.3209 7.65786 12.3295 7.67239 12.337 7.68771L12.3378 7.68919L12.3396 7.69036C12.594 7.84779 12.8364 8.02392 13.0647 8.21731C13.1415 8.28213 13.2168 8.34865 13.2906 8.41685C13.315 8.43919 13.3401 8.46044 13.3641 8.48317C13.3646 8.48224 13.365 8.4813 13.3655 8.48044C13.3658 8.47979 13.3661 8.47917 13.3664 8.47856C13.3747 8.46161 13.3828 8.44435 13.3912 8.42763C13.6204 6.98099 14.3487 6.19216 15.1013 6.19216C15.6687 6.19216 16.0811 6.53044 16.3926 7.44106L16.3958 7.45083L16.3966 7.45192C16.4884 7.55212 16.5742 7.65772 16.6534 7.76817L16.6532 7.7681C16.6548 7.77028 16.6566 7.77231 16.6582 7.77458C16.6627 7.78778 16.6665 7.80138 16.6708 7.81458L16.6591 7.76708C15.7227 4.99505 13.1009 2.99927 10.0127 2.99927C6.1393 2.99927 2.9993 6.13927 2.9993 10.0127C2.9993 10.7763 3.12133 11.5115 3.34789 12.1955L3.34883 12.1915C3.42848 11.8226 3.53582 11.4601 3.66992 11.1072Z" fill="#525353"/>
<path d="M16.7638 10.0902L16.5192 10.3639V10.3638L16.5187 10.3656C16.5094 10.4016 16.498 10.4352 16.4854 10.4676C16.4821 10.4761 16.4784 10.4842 16.4748 10.4925C16.4655 10.5148 16.455 10.5366 16.4434 10.5578C16.4373 10.5689 16.4314 10.5802 16.4249 10.5906C16.4148 10.6068 16.4038 10.6216 16.3927 10.6361C16.3774 10.6562 16.3605 10.675 16.3421 10.6923C16.3348 10.6991 16.3278 10.7065 16.3202 10.7126C16.3018 10.7272 16.282 10.7397 16.2609 10.75C16.2259 10.7671 16.1891 10.7771 16.1508 10.7771C15.9285 10.7771 15.7483 10.4684 15.7483 10.0875H14.9407L14.9412 10.0881C15.0929 10.2634 15.2422 10.4409 15.3891 10.6203C15.5303 10.7928 15.6698 10.9667 15.8074 11.1421L15.8277 11.1678C15.9582 11.3343 16.0875 11.5017 16.2155 11.6701L16.2529 11.7189C16.389 11.898 16.5241 12.0777 16.6584 12.2582C16.8948 11.5585 17.0189 10.8259 17.0263 10.0875L16.7992 10.0789L16.7638 10.0902Z" fill="white"/>
<path d="M8.94727 6.85127C8.96555 6.84986 8.98383 6.84877 9.00204 6.84752C9.12786 6.8386 9.25395 6.83396 9.38008 6.83361C9.7604 6.83361 10.132 6.87432 10.4934 6.94846C10.7484 7.00854 11.2013 7.13299 11.5375 7.27494C11.6785 7.33452 11.8172 7.39965 11.9531 7.47018L11.9839 7.48697L11.9923 7.49166C12.0049 7.49869 12.0186 7.50627 12.0347 7.51541L12.0358 7.51604L12.097 7.55064L12.1024 7.55377C12.1888 7.60275 12.2845 7.65768 12.321 7.67861L12.3304 7.684L12.337 7.68783C12.3295 7.67252 12.3209 7.65799 12.3133 7.64283L12.3088 7.63385C12.0058 7.03596 11.5394 6.52314 10.967 6.17307C10.4091 5.83174 9.75798 5.64307 9.10321 5.64307C7.47665 5.64307 6.10204 6.73869 5.65274 8.24369C6.07813 7.88049 6.55133 7.57416 7.06063 7.34158C7.65454 7.07049 8.29594 6.90072 8.94727 6.85127Z" fill="#0D0D0D"/>
<path d="M16.6582 7.77452C16.6566 7.77226 16.6548 7.77022 16.6532 7.76804L16.6533 7.76812C16.5741 7.65766 16.4884 7.55206 16.3966 7.45187L16.3943 7.44913C16.3552 7.40664 16.3148 7.36534 16.2731 7.3253C16.2577 7.31054 16.2418 7.29765 16.2262 7.28351C16.2005 7.26015 16.175 7.23601 16.1489 7.2146V8.14499L16.5051 9.77608C16.509 9.78874 16.5137 9.80054 16.5171 9.81366L16.7638 10.0901L16.7662 10.0874H17.0244C17.0248 10.0635 17.0262 10.0399 17.0262 10.0159V10.0155C17.0261 9.26756 16.9061 8.52444 16.6708 7.81444C16.6665 7.80124 16.6626 7.78772 16.6582 7.77452Z" fill="#BBBCBD"/>
<path d="M14.1436 7.34599C14.4295 7.06638 14.8117 6.83997 15.2217 6.83997C15.5462 6.83997 15.8578 6.97138 16.1488 7.21177L16.1489 7.21458C16.175 7.23599 16.2006 7.26013 16.2263 7.28349C16.2418 7.29763 16.2577 7.31052 16.2731 7.32528C16.3148 7.36532 16.3552 7.40662 16.3943 7.44911L16.3966 7.45185C16.3964 7.4515 16.3961 7.45119 16.3959 7.45091L16.3958 7.45083L16.3926 7.44099C16.0811 6.53036 15.5785 5.93872 15.0113 5.93872C14.2586 5.93872 13.6204 6.98091 13.3912 8.42755L13.3936 8.42552C13.5891 8.037 13.8308 7.652 14.1436 7.34599ZM13.1265 16.2371C13.1265 16.2371 13.0252 16.1568 12.8965 16.0087C12.8366 15.9403 12.7808 15.8683 12.7294 15.7933C12.713 15.7694 12.6967 15.7446 12.6806 15.719C12.6319 15.642 12.5931 15.5483 12.5502 15.4558C12.5007 15.3486 12.5006 15.2772 12.4721 15.1774C12.4512 15.1039 12.4346 15.0292 12.4223 14.9537C12.4026 14.8316 12.3947 14.7079 12.3987 14.5843C12.4009 14.513 12.4082 14.4392 12.4189 14.364C12.4295 14.2894 12.4441 14.2154 12.4624 14.1422C12.5191 13.9154 12.6172 13.6739 12.7702 13.4189L12.8091 13.3315C12.8591 13.2483 12.8702 13.2519 12.9177 13.1717C13.5867 12.0425 13.9477 11.1887 13.7711 9.87403C13.7517 9.73935 13.7298 9.60505 13.7052 9.47122C13.6898 9.56822 13.6735 9.66507 13.6563 9.76177C13.6497 9.79177 13.6315 9.82435 13.6246 9.84474C13.334 10.7049 12.8765 11.3376 12.2182 12.0521C12.1266 12.1512 12.0338 12.2492 11.9399 12.3462C11.7723 12.5195 11.6029 12.6912 11.4317 12.8611C11.3605 12.9319 11.2878 13.0038 11.2139 13.0771C11.146 13.1443 11.0616 13.2879 10.9608 13.3938C10.8986 13.5679 10.8279 13.7643 10.7681 13.9709C10.7412 13.9607 10.7155 13.9515 10.6881 13.9409C9.4093 13.4463 8.55313 12.7854 8.55313 12.7854C8.55313 12.7854 9.21188 13.6432 10.3217 14.4483C10.4238 14.5223 10.5296 14.5908 10.6388 14.6536C10.5931 15.3783 10.9127 16.074 12.3558 16.2815C12.5998 16.3166 12.8496 16.315 13.1013 16.2866C13.0988 16.2791 13.1153 16.2793 13.114 16.2751C13.1126 16.2709 13.1274 16.2598 13.1274 16.2598" fill="#0D0D0D"/>
<path d="M12.3546 14.3718C13.6357 14.5785 15.5317 14.5446 17.5 13.623C17.5474 13.6009 17.5997 13.6593 17.6471 13.636C17.6471 13.636 16.3019 15.01 14.6953 15.7868C14.6484 15.8095 14.602 15.8336 14.5546 15.8552C14.3994 15.9261 14.2415 15.9879 14.083 16.0449C13.7721 16.1566 13.4571 16.2414 13.1444 16.2805C13.13 16.2824 13.1156 16.2852 13.1012 16.2867C13.0993 16.2808 13.0973 16.2749 13.0954 16.269L13.0933 16.2625C13.0933 16.2625 12.9919 16.1821 12.8632 16.0341C12.8033 15.9657 12.7475 15.8937 12.6962 15.8187C12.6245 15.7145 12.5617 15.6045 12.5086 15.4898C12.4637 15.3929 12.4264 15.2927 12.3971 15.19C12.342 14.9973 12.3172 14.7973 12.3236 14.597C12.3263 14.5232 12.333 14.4496 12.3438 14.3766L12.3546 14.3718Z" fill="#9F2254"/>
<path d="M11.4364 12.9133C11.6076 12.7434 11.777 12.5718 11.9447 12.3985C12.0385 12.3015 12.1313 12.2034 12.223 12.1043C12.8812 11.3899 13.3644 10.7213 13.6551 9.86113C13.6619 9.84074 13.6688 9.81387 13.6754 9.78363L13.6785 9.76965C13.6853 9.73754 13.692 9.70184 13.6986 9.6616C13.7013 9.63387 13.7882 9.57793 13.7906 9.55191C13.7177 9.17738 13.5498 8.78363 13.3664 8.48301C13.3669 8.48422 13.3673 8.48544 13.3677 8.48668L13.3641 8.48324C13.3401 8.46051 13.315 8.43926 13.2906 8.41691C13.2168 8.34872 13.1415 8.28219 13.0647 8.21738C12.8364 8.02401 12.594 7.84787 12.3396 7.69043C12.3524 7.9009 12.3606 8.11113 12.3628 8.32113C12.3631 8.34473 12.3625 8.36824 12.3625 8.39176C12.3629 8.47324 12.3631 8.5548 12.3616 8.63629C12.3595 8.74126 12.3558 8.8462 12.3505 8.95105C12.3465 9.02855 12.3416 9.1059 12.3356 9.18332C12.3349 9.19137 12.334 9.19941 12.3334 9.20746C12.3104 9.50039 12.2725 9.79194 12.2196 10.081L12.1271 10.5184C11.9339 11.3017 11.5415 12.0121 11.2188 12.7457C11.1333 12.9403 11.0521 13.137 10.9809 13.3374L10.9608 13.3939C11.0455 13.3046 11.1314 13.2163 11.2186 13.1293C11.2926 13.0561 11.3652 12.9842 11.4364 12.9133Z" fill="#FCB03F"/>
<path d="M7.20297 17.1261C7.67242 16.9184 8.10687 16.7881 8.62328 16.6863C8.62071 16.5744 8.61487 16.4627 8.60578 16.3513C8.82639 15.7802 9.02981 15.2026 9.21578 14.6194C8.88679 14.6514 8.55987 14.7019 8.23656 14.7707C7.99695 14.8216 7.76055 14.8855 7.52609 14.9561C7.33773 15.0128 7.15187 15.078 6.9675 15.1473L7.69648 15.3238L7.10992 17.1649L7.20297 17.1261Z" fill="#525353"/>
<path d="M16.2156 11.6701C16.0875 11.5017 15.9582 11.3343 15.8277 11.1677L15.8074 11.142C15.6681 10.9645 15.5269 10.7884 15.3839 10.6138C15.2387 10.4366 15.0911 10.2613 14.9412 10.088C14.9317 10.077 14.9223 10.0659 14.9127 10.0549C14.7891 9.91302 14.6637 9.77278 14.5364 9.63422C14.4588 9.54953 14.3804 9.46557 14.3012 9.38234C14.2395 9.31791 14.1773 9.25394 14.1145 9.19047C14.0556 9.13039 13.9969 9.07008 13.937 9.01102C13.8087 8.88412 13.6781 8.75959 13.5452 8.6375C13.4863 8.58372 13.4267 8.53072 13.3664 8.47852C13.3661 8.47912 13.3658 8.47975 13.3656 8.48039C13.4923 8.84461 13.6369 9.21336 13.7093 9.5932C13.7281 9.69203 13.7437 9.78812 13.7563 9.88203C13.9329 11.1966 13.5117 12.055 12.8427 13.1841C12.7937 13.2667 12.7445 13.3491 12.6951 13.4313C12.5421 13.6865 12.4442 13.928 12.3874 14.1548C12.369 14.2279 12.3545 14.3019 12.3438 14.3766C13.6558 14.5883 15.6286 14.6277 17.6471 13.6359C17.6471 13.6359 17.2513 13.0541 16.6556 12.2544C16.5223 12.0752 16.388 11.8967 16.2529 11.7188C16.2406 11.7025 16.228 11.6863 16.2156 11.6701Z" fill="#DF0067"/>
<path d="M7.04025 17.4939L7.6965 15.3238L6.96751 15.1472C6.80423 15.2085 6.64243 15.2739 6.48275 15.345L5.83282 17.4939L6.55837 17.5053L7.04025 17.4939Z" fill="#AA9678"/>
<path d="M7.50155 16.5551C7.56561 16.5797 7.63077 16.6019 7.69577 16.6246C8.44032 16.8859 9.22374 17.0192 10.0128 17.0189C10.9104 17.0195 11.7997 16.8471 12.6322 16.5113C12.675 16.4941 12.7169 16.4752 12.7593 16.4571C12.828 16.428 12.8962 16.3977 12.9639 16.3664C13.0244 16.3383 13.0848 16.3104 13.1444 16.2807C13.13 16.2825 13.1156 16.2853 13.1012 16.2868C12.8496 16.3152 12.5998 16.3168 12.3558 16.2818C10.9127 16.0743 10.593 15.3786 10.6388 14.6539C10.5296 14.591 10.4237 14.5225 10.3217 14.4486C9.21186 13.6434 8.55311 12.7857 8.55311 12.7857C8.55311 12.7857 9.40928 13.4465 10.688 13.9411C10.7155 13.9518 10.7412 13.9609 10.7681 13.9711C10.8279 13.7646 10.8986 13.5682 10.9608 13.394L10.9809 13.3375C11.0521 13.1371 11.1333 12.9404 11.2188 12.7458C11.5415 12.0122 11.9339 11.3018 12.1271 10.5185L12.2196 10.0811H11.4304L11.4303 10.0811L11.4304 10.0827L11.4301 10.0829C11.4301 10.085 11.4304 10.0871 11.4304 10.0893C11.4306 10.2771 11.3745 10.4606 11.2694 10.6161C11.167 10.7675 11.0231 10.886 10.8549 10.9574C10.7084 11.0194 10.5486 11.0431 10.3904 11.0264C10.3828 11.0256 10.3755 11.0239 10.368 11.023C10.3433 11.0198 10.3188 11.0164 10.295 11.0115C10.2883 11.01 10.2819 11.0079 10.2752 11.0064C10.2507 11.0007 10.2262 10.9946 10.2024 10.9871C10.198 10.9856 10.1938 10.9838 10.1894 10.9823C10.1637 10.9736 10.1382 10.9643 10.1135 10.9536C10.1112 10.9526 10.1091 10.9514 10.1069 10.9504C10.0803 10.9387 10.0542 10.9257 10.0288 10.9115L10.0276 10.9108C9.94678 10.8652 9.87303 10.808 9.80874 10.741L7.10499 10.0811H4.15421C4.14155 10.1036 4.12749 10.1251 4.11507 10.1477C4.09257 10.1886 4.07132 10.23 4.0496 10.2712C3.97708 10.4082 3.90882 10.5474 3.84491 10.6886C3.78515 10.8205 3.72919 10.9542 3.6771 11.0894L3.66991 11.1074C3.5358 11.4602 3.42847 11.8227 3.34882 12.1917C3.81335 13.6086 4.71718 14.8261 5.89866 15.6842C5.93303 15.7091 5.96928 15.7313 6.00413 15.7557C6.20406 15.896 6.41119 16.0259 6.62468 16.1446C6.90706 16.3017 7.20006 16.4389 7.50155 16.5551Z" fill="white"/>
<path d="M14.5766 18.2323C14.5576 18.0447 14.5478 17.8564 14.5472 17.6679C14.5472 17.613 14.5254 17.5604 14.4866 17.5216C14.4478 17.4828 14.3952 17.461 14.3403 17.4609H5.65968C5.6048 17.461 5.55217 17.4828 5.51337 17.5216C5.47456 17.5604 5.45275 17.613 5.45273 17.6679C5.45273 17.8579 5.44156 18.0459 5.42335 18.2323C5.40312 18.4371 5.37185 18.6408 5.32968 18.8423C5.45554 18.9088 5.58242 18.9736 5.71148 19.035C5.79779 18.6584 5.84833 18.2744 5.86242 17.8883C5.86265 17.8838 5.86312 17.8793 5.86328 17.8748H14.1367C14.1369 17.8793 14.1373 17.8838 14.1375 17.8883C14.1516 18.2744 14.2022 18.6584 14.2885 19.035C14.4171 18.9735 14.5444 18.9092 14.6703 18.8423C14.6281 18.6408 14.5969 18.4371 14.5766 18.2323Z" fill="#8B7460"/>
</g>
<defs>
<clipPath id="clip0_15_1933">
<rect width="20" height="20" fill="white"/>
</clipPath>
</defs>
</svg>
