<svg width="120" height="84" viewBox="0 0 120 84" fill="none" xmlns="http://www.w3.org/2000/svg">
<g clip-path="url(#clip0_14_1074)">
<path d="M49.9368 9.16426C53.807 5.13183 59.195 2.63081 65.1539 2.63081C73.0753 2.63081 79.9863 7.04786 83.6668 13.6051C86.8651 12.1762 90.4053 11.3812 94.13 11.3812C108.417 11.3812 120 23.065 120 37.4769C120 51.8905 108.417 63.5744 94.13 63.5744C92.4187 63.5753 90.7117 63.4053 89.0342 63.0666C85.7933 68.8477 79.6172 72.7538 72.5283 72.7538C69.5607 72.7538 66.7539 72.0684 64.2548 70.8495C60.9693 78.5777 53.3146 83.9965 44.3932 83.9965C35.1026 83.9965 27.1846 78.1179 24.1453 69.8735C22.8172 70.1555 21.4411 70.3025 20.0291 70.3025C8.96757 70.3026 0 61.2428 0 50.065C0 42.5745 4.02907 36.0342 10.0154 32.5351C8.78294 29.6993 8.09742 26.5693 8.09742 23.2786C8.09742 10.424 18.5333 0.00354004 31.4052 0.00354004C38.9624 0.00354004 45.6787 3.59669 49.9368 9.16426Z" fill="#E2E2DE"/>
<path d="M17.3809 43.5602C17.3057 43.7569 17.4083 43.7979 17.4322 43.832C17.6578 43.9961 17.887 44.1142 18.1177 44.2457C19.3416 44.8952 20.4973 45.0849 21.7058 45.0849C24.1673 45.0849 25.6955 43.7756 25.6955 41.6678V41.6269C25.6955 39.6781 23.9708 38.9704 22.3519 38.4593L22.1417 38.391C20.9212 37.9943 19.8682 37.6526 19.8682 36.8491V36.8065C19.8682 36.1193 20.4836 35.6132 21.4375 35.6132C22.4973 35.6132 23.7554 35.9654 24.5656 36.4132C24.5656 36.4132 24.8032 36.5671 24.8904 36.3363C24.9383 36.2132 25.3486 35.1089 25.3913 34.9893C25.4375 34.8593 25.3554 34.7636 25.2717 34.7123C24.3469 34.1499 23.0682 33.7653 21.7452 33.7653L21.4991 33.7669C19.2461 33.7669 17.6735 35.1277 17.6735 37.0781V37.1191C17.6735 39.1755 19.4085 39.8421 21.0342 40.3071L21.2957 40.3875C22.4804 40.7516 23.5009 41.0644 23.5009 41.8986V41.9397C23.5009 42.7021 22.8377 43.2695 21.7676 43.2695C21.3522 43.2695 20.0274 43.261 18.5966 42.3566C18.4239 42.2557 18.3231 42.1823 18.1898 42.102C18.1198 42.0575 17.9437 41.9805 17.8668 42.2131L17.3809 43.5602ZM53.4167 43.5602C53.3415 43.7569 53.4441 43.7979 53.468 43.832C53.6936 43.9961 53.9228 44.1142 54.1534 44.2457C55.3773 44.8952 56.5331 45.0849 57.7415 45.0849C60.203 45.0849 61.7313 43.7756 61.7313 41.6678V41.6269C61.7313 39.6781 60.0065 38.9704 58.3876 38.4593L58.1774 38.391C56.9569 37.9943 55.9038 37.6526 55.9038 36.8491V36.8065C55.9038 36.1193 56.5192 35.6132 57.473 35.6132C58.5328 35.6132 59.791 35.9654 60.6013 36.4132C60.6013 36.4132 60.8389 36.5671 60.926 36.3363C60.9738 36.2132 61.3841 35.1089 61.4269 34.9893C61.4731 34.8593 61.391 34.7636 61.3073 34.7123C60.3825 34.1499 59.1038 33.7653 57.7808 33.7653L57.5345 33.7669C55.2816 33.7669 53.7089 35.1277 53.7089 37.0781V37.1191C53.7089 39.1755 55.444 39.8421 57.0697 40.3071L57.3312 40.3875C58.5158 40.7516 59.5381 41.0644 59.5381 41.8986V41.9397C59.5381 42.7021 58.8731 43.2695 57.803 43.2695C57.3877 43.2695 56.0629 43.261 54.6322 42.3566C54.4595 42.2557 54.357 42.1857 54.2271 42.102C54.1826 42.0729 53.974 41.9925 53.9022 42.2131L53.4167 43.5602ZM78.0174 39.4317C78.0174 40.6232 77.7952 41.5615 77.3576 42.2248C76.925 42.8813 76.2704 43.2009 75.3577 43.2009C74.4432 43.2009 73.7919 42.883 73.3662 42.2248C72.9354 41.5633 72.7168 40.6232 72.7168 39.4317C72.7168 38.242 72.9354 37.3052 73.3662 36.6487C73.7919 35.9993 74.4432 35.683 75.3577 35.683C76.2705 35.683 76.9252 35.9993 77.3594 36.6487C77.7953 37.3051 78.0174 38.2419 78.0174 39.4317ZM80.0722 37.2232C79.8704 36.541 79.5559 35.9393 79.1372 35.4385C78.7183 34.936 78.1885 34.5326 77.5593 34.2385C76.9319 33.9463 76.1901 33.7976 75.3577 33.7976C74.5235 33.7976 73.7816 33.9463 73.1542 34.2385C72.5252 34.5326 71.9953 34.9361 71.5748 35.4385C71.1577 35.9411 70.8431 36.5428 70.6398 37.2232C70.4398 37.9017 70.3389 38.6436 70.3389 39.4317C70.3389 40.2198 70.4398 40.9633 70.6398 41.6402C70.8431 42.3206 71.156 42.9224 71.5766 43.4248C71.9953 43.9274 72.527 44.3291 73.1544 44.6145C73.7833 44.9 74.5235 45.0453 75.3578 45.0453C76.1903 45.0453 76.9304 44.9 77.5594 44.6145C78.1868 44.3291 78.7183 43.9273 79.1373 43.4248C79.556 42.9239 79.8705 42.3223 80.0723 41.6402C80.2741 40.9617 80.3749 40.218 80.3749 39.4317C80.3749 38.6454 80.2739 37.9017 80.0722 37.2232ZM96.9451 42.8827C96.8767 42.6827 96.6836 42.7579 96.6836 42.7579C96.3845 42.8725 96.0664 42.9785 95.728 43.0314C95.3844 43.0843 95.0066 43.1118 94.6014 43.1118C93.6067 43.1118 92.8169 42.8161 92.2512 42.2314C91.6836 41.6468 91.3656 40.7016 91.369 39.4229C91.3725 38.2588 91.6527 37.3835 92.1571 36.717C92.658 36.0538 93.4204 35.7135 94.4375 35.7135C95.2854 35.7135 95.9315 35.8109 96.6083 36.0246C96.6083 36.0246 96.7707 36.0946 96.8476 35.8827C97.027 35.3835 97.1604 35.0263 97.3518 34.4776C97.4066 34.322 97.2733 34.2553 97.2253 34.2365C96.9587 34.1322 96.3296 33.9631 95.8544 33.8913C95.41 33.8229 94.8903 33.787 94.3125 33.787C93.4491 33.787 92.68 33.934 92.022 34.2281C91.3655 34.5203 90.8083 34.9237 90.3673 35.4264C89.9262 35.929 89.5912 36.5305 89.3673 37.2109C89.1451 37.8895 89.0323 38.6348 89.0323 39.4229C89.0323 41.1272 89.4921 42.5048 90.3999 43.5135C91.3092 44.5255 92.6751 45.04 94.4563 45.04C95.5093 45.04 96.5897 44.8264 97.3658 44.5203C97.3658 44.5203 97.5145 44.4485 97.4495 44.276L96.9451 42.8827ZM100.54 38.2903C100.638 37.6288 100.821 37.0783 101.103 36.6493C101.528 35.9981 102.178 35.6408 103.091 35.6408C104.004 35.6408 104.607 35.9997 105.039 36.6493C105.327 37.0783 105.451 37.6528 105.501 38.2903H100.54ZM107.458 36.8355C107.284 36.1774 106.851 35.5124 106.568 35.2081C106.12 34.7261 105.682 34.3894 105.248 34.2013C104.68 33.9585 104 33.7979 103.255 33.7979C102.386 33.7979 101.598 33.9433 100.959 34.2441C100.318 34.545 99.7797 34.9553 99.3574 35.4664C98.935 35.9757 98.6172 36.5826 98.4154 37.2714C98.212 37.957 98.1094 38.704 98.1094 39.4919C98.1094 40.2937 98.2155 41.0407 98.4257 41.7124C98.6377 42.3894 98.9761 42.9859 99.4342 43.4799C99.8906 43.9774 100.479 44.3672 101.183 44.6388C101.882 44.9089 102.732 45.0491 103.708 45.0473C105.716 45.0405 106.774 44.5926 107.21 44.3516C107.287 44.3089 107.361 44.2337 107.268 44.0184L106.814 42.7447C106.745 42.5551 106.552 42.6251 106.552 42.6251C106.055 42.8097 105.347 43.1414 103.697 43.138C102.619 43.1363 101.819 42.8184 101.318 42.3208C100.803 41.8115 100.552 41.0627 100.508 40.0063L107.463 40.0132C107.463 40.0132 107.646 40.0098 107.665 39.8319C107.672 39.757 107.904 38.4031 107.458 36.8355ZM44.8363 38.2903C44.9354 37.6288 45.1166 37.0783 45.3987 36.6493C45.8243 35.9981 46.4739 35.6408 47.3867 35.6408C48.2995 35.6408 48.9029 35.9997 49.337 36.6493C49.6225 37.0783 49.7473 37.6528 49.7969 38.2903H44.8363ZM51.7524 36.8355C51.5781 36.1774 51.1474 35.5124 50.8637 35.2081C50.4157 34.7261 49.9781 34.3894 49.544 34.2013C48.9765 33.9585 48.2962 33.7979 47.5509 33.7979C46.6842 33.7979 45.8944 33.9433 45.2551 34.2441C44.6142 34.545 44.0757 34.9553 43.6535 35.4664C43.2312 35.9757 42.9133 36.5826 42.7116 37.2714C42.5099 37.957 42.4056 38.704 42.4056 39.4919C42.4056 40.2937 42.5116 41.0407 42.7219 41.7124C42.9339 42.3894 43.2724 42.9859 43.7304 43.4799C44.1869 43.9774 44.7749 44.3672 45.4792 44.6388C46.1784 44.9089 47.0279 45.0491 48.004 45.0473C50.0125 45.0405 51.0706 44.5926 51.5065 44.3516C51.5835 44.3089 51.6569 44.2337 51.5647 44.0184L51.1117 42.7447C51.0416 42.5551 50.8485 42.6251 50.8485 42.6251C50.3511 42.8097 49.645 43.1414 47.9921 43.138C46.9152 43.1363 46.1152 42.8184 45.6143 42.3208C45.0997 41.8115 44.8485 41.0627 44.804 40.0063L51.7595 40.0132C51.7595 40.0132 51.9423 40.0098 51.9612 39.8319C51.9678 39.757 52.2002 38.4031 51.7524 36.8355ZM29.8019 42.8447C29.5301 42.6275 29.4925 42.5728 29.4002 42.4326C29.2634 42.219 29.1934 41.9147 29.1934 41.5284C29.1934 40.9164 29.3951 40.4771 29.8139 40.1814C29.8089 40.1832 30.4122 39.66 31.831 39.6788C32.8275 39.6925 33.7181 39.8395 33.7181 39.8395V43.0019H33.7198C33.7198 43.0019 32.836 43.1916 31.8412 43.2514C30.4258 43.3369 29.7968 42.843 29.8019 42.8447ZM32.5694 37.9575C32.2873 37.9369 31.9214 37.9249 31.4838 37.9249C30.8873 37.9249 30.3112 38.0001 29.771 38.1454C29.2275 38.2907 28.7386 38.5182 28.3181 38.8188C27.8982 39.1185 27.5531 39.5111 27.3095 39.9659C27.0634 40.424 26.9386 40.9642 26.9386 41.5693C26.9386 42.1847 27.0446 42.7197 27.2566 43.1575C27.4686 43.5967 27.7745 43.9625 28.1642 44.2447C28.5505 44.5267 29.0275 44.7334 29.5813 44.8582C30.1266 44.983 30.7453 45.0462 31.4223 45.0462C32.1351 45.0462 32.8462 44.9882 33.5351 44.8701C34.2172 44.7538 35.0548 44.5846 35.2872 44.5317C35.4502 44.4925 35.6126 44.4509 35.7744 44.4069C35.9471 44.3643 35.9334 44.1796 35.9334 44.1796L35.93 37.819C35.93 36.424 35.5574 35.3898 34.824 34.7488C34.094 34.1095 33.0189 33.7863 31.6292 33.7863C31.1077 33.7863 30.2685 33.8582 29.7659 33.959C29.7659 33.959 28.2462 34.2531 27.6205 34.742C27.6205 34.742 27.4838 34.8275 27.559 35.019L28.0514 36.3421C28.1129 36.513 28.2788 36.4549 28.2788 36.4549C28.2788 36.4549 28.3318 36.4343 28.3934 36.3984C29.7319 35.6702 31.4241 35.6925 31.4241 35.6925C32.1763 35.6925 32.7541 35.8429 33.1438 36.142C33.5232 36.4325 33.7164 36.8718 33.7164 37.7983V38.0923C33.1181 38.0069 32.5694 37.9575 32.5694 37.9575ZM88.6689 34.3736C88.7218 34.2162 88.6108 34.141 88.5646 34.1239C88.4467 34.0778 87.8552 33.953 87.3988 33.9239C86.5254 33.871 86.04 34.018 85.6056 34.2128C85.1749 34.4077 84.6963 34.7221 84.4295 35.0795V34.2334C84.4295 34.1154 84.3458 34.0214 84.2295 34.0214H82.4466C82.3304 34.0214 82.2467 34.1153 82.2467 34.2334V44.6077C82.2467 44.7239 82.3425 44.8197 82.4586 44.8197H84.286C84.342 44.8194 84.3955 44.7969 84.4349 44.7571C84.4743 44.7174 84.4964 44.6636 84.4962 44.6077V39.4248C84.4962 38.7291 84.5732 38.0352 84.7271 37.5993C84.8775 37.1684 85.0826 36.8232 85.3356 36.5752C85.5903 36.3291 85.8792 36.1565 86.1954 36.0591C86.5184 35.9599 86.8757 35.9274 87.1288 35.9274C87.4928 35.9274 87.8928 36.0214 87.8928 36.0214C88.0261 36.0367 88.1014 35.9547 88.1457 35.8334C88.2655 35.5154 88.604 34.5632 88.6689 34.3736Z" fill="white"/>
<path d="M71.5164 29.5654C71.2942 29.497 71.0925 29.4508 70.8292 29.4013C70.5624 29.3535 70.2446 29.3295 69.884 29.3295C68.6257 29.3295 67.6342 29.685 66.9386 30.3858C66.2462 31.0833 65.7761 32.1448 65.5402 33.5415L65.4546 34.0115H63.8753C63.8753 34.0115 63.6838 34.0047 63.6428 34.2133L63.3847 35.6611C63.3659 35.7979 63.4258 35.885 63.6103 35.885H65.1471L63.5881 44.5893C63.4667 45.2902 63.3265 45.8663 63.1709 46.3038C63.0187 46.7346 62.8701 47.0576 62.6855 47.2936C62.5077 47.5193 62.3402 47.6867 62.0495 47.7841C61.8102 47.8645 61.5333 47.9021 61.2307 47.9021C61.0632 47.9021 60.8394 47.8746 60.6735 47.8405C60.5094 47.8079 60.4222 47.7721 60.2974 47.719C60.2974 47.719 60.118 47.6508 60.0461 47.8302C59.9897 47.979 59.5795 49.1053 59.5298 49.2439C59.482 49.3823 59.5504 49.4901 59.6375 49.5225C59.8426 49.5943 59.9947 49.6421 60.2734 49.7088C60.6598 49.7995 60.9862 49.8045 61.2921 49.8045C61.9314 49.8045 62.516 49.714 62.9999 49.5397C63.4854 49.3636 63.9092 49.0575 64.2853 48.6439C64.6904 48.196 64.9451 47.7277 65.188 47.0867C65.4289 46.4541 65.6359 45.6678 65.7999 44.7517L67.3674 35.885H69.658C69.658 35.885 69.851 35.8919 69.8906 35.6817L70.1503 34.2355C70.1674 34.0972 70.1093 34.0116 69.9229 34.0116H67.699C67.711 33.9621 67.8118 33.1791 68.0665 32.4425C68.176 32.1297 68.381 31.8749 68.5537 31.7005C68.7248 31.5296 68.9213 31.4083 69.1368 31.3381C69.3572 31.2663 69.6086 31.2322 69.8838 31.2322C70.0924 31.2322 70.2991 31.2561 70.4546 31.2885C70.67 31.3348 70.7537 31.3587 70.8103 31.3758C71.0377 31.4442 71.0683 31.3775 71.1129 31.2682L71.6446 29.8084C71.6992 29.6508 71.5642 29.5841 71.5164 29.5654ZM40.4437 44.6081C40.4437 44.7244 40.36 44.8185 40.2437 44.8185H38.3993C38.283 44.8185 38.201 44.7244 38.201 44.6081V29.7637C38.201 29.6475 38.283 29.5535 38.3993 29.5535H40.2437C40.36 29.5535 40.4437 29.6475 40.4437 29.7637V44.6081Z" fill="white"/>
</g>
<defs>
<clipPath id="clip0_14_1074">
<rect width="120" height="84" fill="white"/>
</clipPath>
</defs>
</svg>
