<svg width="20" height="14" viewBox="0 0 20 14" fill="none" xmlns="http://www.w3.org/2000/svg">
<g clip-path="url(#clip0_15_2006)">
<path d="M8.3228 1.52727C8.96783 0.855203 9.86583 0.438366 10.859 0.438366C12.1792 0.438366 13.3311 1.17454 13.9445 2.26742C14.4775 2.02926 15.0675 1.89676 15.6883 1.89676C18.0695 1.89676 20 3.84407 20 6.24605C20 8.64832 18.0695 10.5956 15.6883 10.5956C15.4031 10.5958 15.1186 10.5674 14.839 10.511C14.2989 11.4745 13.2695 12.1255 12.088 12.1255C11.5935 12.1255 11.1256 12.0113 10.7091 11.8082C10.1615 13.0962 8.88577 13.9993 7.39886 13.9993C5.85043 13.9993 4.53077 13.0195 4.02422 11.6455C3.80286 11.6925 3.57351 11.717 3.33818 11.717C1.49459 11.717 0 10.207 0 8.34407C0 7.09564 0.671511 6.00559 1.66923 5.42241C1.46382 4.94978 1.34957 4.42812 1.34957 3.87967C1.34957 1.73722 3.08889 0.000488281 5.23419 0.000488281C6.49373 0.000488281 7.61311 0.599347 8.3228 1.52727Z" fill="#00A1E0"/>
<path d="M2.89682 7.25993C2.88429 7.29271 2.90139 7.29955 2.90537 7.30524C2.94297 7.33259 2.98117 7.35227 3.01962 7.37419C3.22361 7.48244 3.41622 7.51405 3.61764 7.51405C4.02789 7.51405 4.28259 7.29583 4.28259 6.94454V6.93771C4.28259 6.61291 3.99514 6.49497 3.72533 6.40978L3.69029 6.39839C3.48687 6.33229 3.31138 6.27533 3.31138 6.14142V6.13431C3.31138 6.01977 3.41394 5.93543 3.57292 5.93543C3.74955 5.93543 3.95924 5.99413 4.09428 6.06876C4.09428 6.06876 4.13388 6.09441 4.14841 6.05595C4.15638 6.03543 4.22477 5.85139 4.2319 5.83145C4.23958 5.80978 4.22591 5.79383 4.21196 5.78528C4.05782 5.69155 3.84471 5.62744 3.62421 5.62744L3.58319 5.62772C3.20769 5.62772 2.94559 5.85451 2.94559 6.17957V6.18642C2.94559 6.52914 3.23476 6.64025 3.50571 6.71775L3.54929 6.73115C3.74673 6.79183 3.91682 6.84396 3.91682 6.983V6.98984C3.91682 7.11691 3.80629 7.21149 3.62793 7.21149C3.5587 7.21149 3.3379 7.21006 3.09944 7.05933C3.07066 7.04252 3.05386 7.03028 3.03164 7.01689C3.01996 7.00948 2.99061 6.99665 2.9778 7.03541L2.89682 7.25993ZM8.90279 7.25993C8.89025 7.29271 8.90735 7.29955 8.91134 7.30524C8.94893 7.33259 8.98713 7.35227 9.02557 7.37419C9.22955 7.48244 9.42219 7.51405 9.62359 7.51405C10.0338 7.51405 10.2886 7.29583 10.2886 6.94454V6.93771C10.2886 6.61291 10.0011 6.49497 9.73128 6.40978L9.69624 6.39839C9.49282 6.33229 9.3173 6.27533 9.3173 6.14142V6.13431C9.3173 6.01977 9.41986 5.93543 9.57884 5.93543C9.75548 5.93543 9.96517 5.99413 10.1002 6.06876C10.1002 6.06876 10.1398 6.09441 10.1543 6.05595C10.1623 6.03543 10.2307 5.85139 10.2378 5.83145C10.2455 5.80978 10.2318 5.79383 10.2179 5.78528C10.0637 5.69155 9.85063 5.62744 9.63013 5.62744L9.58909 5.62772C9.2136 5.62772 8.9515 5.85451 8.9515 6.17957V6.18642C8.9515 6.52914 9.24066 6.64025 9.51162 6.71775L9.5552 6.73115C9.75264 6.79183 9.92303 6.84396 9.92303 6.983V6.98984C9.92303 7.11691 9.8122 7.21149 9.63384 7.21149C9.56463 7.21149 9.34383 7.21006 9.10537 7.05933C9.07658 7.04252 9.0595 7.03085 9.03786 7.01689C9.03043 7.01205 8.99568 6.99865 8.98371 7.03541L8.90279 7.25993ZM13.0029 6.57185C13.0029 6.77042 12.9659 6.92682 12.8929 7.03737C12.8208 7.14678 12.7117 7.20005 12.5596 7.20005C12.4072 7.20005 12.2987 7.14706 12.2277 7.03737C12.1559 6.92712 12.1195 6.77042 12.1195 6.57185C12.1195 6.37357 12.1559 6.21743 12.2277 6.10802C12.2987 5.99977 12.4072 5.94706 12.5596 5.94706C12.7118 5.94706 12.8209 5.99977 12.8932 6.10802C12.9659 6.21741 13.0029 6.37355 13.0029 6.57185ZM13.3454 6.20376C13.3117 6.09006 13.2593 5.98978 13.1895 5.90632C13.1197 5.82256 13.0314 5.75533 12.9266 5.70632C12.822 5.65761 12.6984 5.63283 12.5596 5.63283C12.4206 5.63283 12.2969 5.65761 12.1924 5.70632C12.0875 5.75533 11.9992 5.82258 11.9291 5.90632C11.8596 5.99008 11.8072 6.09036 11.7733 6.20376C11.74 6.31685 11.7231 6.44049 11.7231 6.57185C11.7231 6.7032 11.74 6.82712 11.7733 6.93993C11.8072 7.05333 11.8593 7.15363 11.9294 7.23737C11.9992 7.32114 12.0878 7.38808 12.1924 7.43565C12.2972 7.48324 12.4206 7.50744 12.5596 7.50744C12.6984 7.50744 12.8217 7.48324 12.9266 7.43565C13.0311 7.38808 13.1197 7.32112 13.1896 7.23737C13.2593 7.15389 13.3118 7.05361 13.3454 6.93993C13.379 6.82684 13.3958 6.7029 13.3958 6.57185C13.3958 6.44079 13.379 6.31685 13.3454 6.20376ZM16.1575 7.14702C16.1461 7.11369 16.1139 7.12622 16.1139 7.12622C16.0641 7.14532 16.0111 7.16298 15.9547 7.17181C15.8974 7.18061 15.8344 7.1852 15.7669 7.1852C15.6011 7.1852 15.4695 7.13591 15.3752 7.03847C15.2806 6.94104 15.2276 6.7835 15.2282 6.57038C15.2288 6.37637 15.2755 6.23049 15.3595 6.11939C15.443 6.00886 15.5701 5.95215 15.7396 5.95215C15.8809 5.95215 15.9886 5.96838 16.1014 6.004C16.1014 6.004 16.1285 6.01567 16.1413 5.98035C16.1712 5.89715 16.1934 5.83761 16.2253 5.74616C16.2344 5.72023 16.2122 5.70912 16.2042 5.70598C16.1598 5.6886 16.0549 5.66041 15.9757 5.64844C15.9017 5.63705 15.8151 5.63107 15.7188 5.63107C15.5749 5.63107 15.4467 5.65557 15.337 5.70458C15.2276 5.75329 15.1347 5.82051 15.0612 5.9043C14.9877 5.98806 14.9319 6.08832 14.8946 6.20172C14.8575 6.31481 14.8387 6.43903 14.8387 6.57038C14.8387 6.85443 14.9154 7.08404 15.0667 7.25215C15.2182 7.42082 15.4458 7.50656 15.7427 7.50656C15.9182 7.50656 16.0983 7.47097 16.2276 7.41995C16.2276 7.41995 16.2524 7.40798 16.2416 7.37923L16.1575 7.14702ZM16.7567 6.38162C16.7729 6.27137 16.8034 6.17961 16.8504 6.10812C16.9214 5.99957 17.0296 5.94003 17.1818 5.94003C17.3339 5.94003 17.4345 5.99985 17.5066 6.10812C17.5544 6.17961 17.5752 6.27537 17.5835 6.38162H16.7567ZM17.9097 6.13915C17.8806 6.02946 17.8086 5.91863 17.7613 5.86792C17.6866 5.78758 17.6137 5.73147 17.5413 5.70011C17.4467 5.65965 17.3333 5.63289 17.2091 5.63289C17.0644 5.63289 16.9331 5.65711 16.8265 5.70724C16.7197 5.75739 16.63 5.82578 16.5596 5.91097C16.4892 5.99585 16.4362 6.09699 16.4026 6.21181C16.3687 6.32606 16.3516 6.45056 16.3516 6.58188C16.3516 6.71551 16.3693 6.84001 16.4043 6.95197C16.4396 7.0648 16.496 7.16422 16.5724 7.24654C16.6484 7.32946 16.7465 7.39443 16.8638 7.43969C16.9804 7.48472 17.122 7.50808 17.2846 7.50778C17.6194 7.50664 17.7957 7.43201 17.8684 7.39183C17.8812 7.38472 17.8935 7.37219 17.8781 7.33629L17.8023 7.12402C17.7909 7.09241 17.7587 7.10408 17.7587 7.10408C17.6758 7.13485 17.5579 7.19012 17.2829 7.18956C17.1031 7.18928 16.9698 7.13629 16.8863 7.05337C16.8006 6.96848 16.7587 6.84368 16.7513 6.66762L17.9105 6.66876C17.9105 6.66876 17.941 6.6682 17.9442 6.63855C17.9453 6.62606 17.9841 6.40041 17.9097 6.13915ZM7.47272 6.38162C7.48923 6.27137 7.51944 6.17961 7.56645 6.10812C7.63738 5.99957 7.74565 5.94003 7.89778 5.94003C8.04991 5.94003 8.15049 5.99985 8.22285 6.10812C8.27041 6.17961 8.29122 6.27537 8.29948 6.38162H7.47272ZM8.62541 6.13915C8.59636 6.02946 8.52457 5.91863 8.47728 5.86792C8.40263 5.78758 8.32969 5.73147 8.25734 5.70011C8.16275 5.65965 8.04937 5.63289 7.92515 5.63289C7.7807 5.63289 7.64907 5.65711 7.54253 5.70724C7.4357 5.75739 7.34595 5.82578 7.27558 5.91097C7.20521 5.99585 7.15222 6.09699 7.1186 6.21181C7.08499 6.32606 7.06761 6.45056 7.06761 6.58188C7.06761 6.71551 7.08527 6.84001 7.12032 6.95197C7.15566 7.0648 7.21208 7.16422 7.28841 7.24654C7.36449 7.32946 7.46249 7.39443 7.57986 7.43969C7.6964 7.48472 7.83798 7.50808 8.00066 7.50778C8.33542 7.50664 8.51178 7.43201 8.58443 7.39183C8.59726 7.38472 8.60949 7.37219 8.59412 7.33629L8.51862 7.12402C8.50693 7.09241 8.47476 7.10408 8.47476 7.10408C8.39186 7.13485 8.27418 7.19012 7.99868 7.18956C7.8192 7.18928 7.68587 7.13629 7.60239 7.05337C7.51662 6.96848 7.47476 6.84368 7.46733 6.66762L8.62659 6.66876C8.62659 6.66876 8.65706 6.6682 8.6602 6.63855C8.66131 6.62606 8.70004 6.40041 8.62541 6.13915ZM4.96699 7.14068C4.92169 7.10448 4.91542 7.09537 4.90004 7.07201C4.87724 7.03639 4.86557 6.98568 4.86557 6.9213C4.86557 6.81929 4.89918 6.74608 4.96899 6.69679C4.96815 6.69709 5.06871 6.6099 5.30517 6.61303C5.47126 6.61531 5.61968 6.63981 5.61968 6.63981V7.16688H5.61996C5.61996 7.16688 5.47268 7.19849 5.30687 7.20846C5.07098 7.22272 4.96613 7.14039 4.96699 7.14068ZM5.42823 6.32614C5.38123 6.32272 5.32024 6.32072 5.24731 6.32072C5.14789 6.32072 5.05188 6.33325 4.96185 6.35747C4.87126 6.38168 4.78977 6.41959 4.71968 6.4697C4.6497 6.51966 4.59218 6.58507 4.5516 6.66088C4.51058 6.73723 4.48977 6.82726 4.48977 6.92812C4.48977 7.03069 4.50743 7.11985 4.54277 7.19281C4.5781 7.26602 4.62909 7.32698 4.69404 7.37401C4.75842 7.42102 4.83792 7.45547 4.93021 7.47627C5.02111 7.49707 5.12423 7.5076 5.23706 7.5076C5.35586 7.5076 5.47438 7.49793 5.58919 7.47825C5.70287 7.45887 5.84247 7.43066 5.88121 7.42186C5.90837 7.41531 5.93544 7.40838 5.96241 7.40106C5.9912 7.39395 5.98891 7.36316 5.98891 7.36316L5.98833 6.30306C5.98833 6.07056 5.92623 5.89819 5.80401 5.79137C5.68235 5.68482 5.50315 5.63095 5.27154 5.63095C5.18463 5.63095 5.04475 5.64294 4.96099 5.65973C4.96099 5.65973 4.70771 5.70874 4.60343 5.79022C4.60343 5.79022 4.58064 5.80448 4.59318 5.83639L4.67524 6.05691C4.68549 6.0854 4.71314 6.07571 4.71314 6.07571C4.71314 6.07571 4.72197 6.07229 4.73224 6.0663C4.95532 5.94494 5.23736 5.94864 5.23736 5.94864C5.36273 5.94864 5.45902 5.97371 5.52397 6.02356C5.58721 6.07199 5.6194 6.1452 5.6194 6.29961V6.34862C5.51968 6.33439 5.42823 6.32614 5.42823 6.32614ZM14.7782 5.72882C14.787 5.7026 14.7685 5.69006 14.7608 5.68722C14.7411 5.67953 14.6425 5.65873 14.5665 5.65389C14.4209 5.64506 14.34 5.66956 14.2676 5.70204C14.1958 5.73451 14.1161 5.78692 14.0716 5.84648V5.70546C14.0716 5.6858 14.0576 5.67012 14.0383 5.67012H13.7411C13.7217 5.67012 13.7078 5.68578 13.7078 5.70546V7.43451C13.7078 7.45389 13.7237 7.46984 13.7431 7.46984H14.0477C14.057 7.46979 14.0659 7.46604 14.0725 7.45942C14.0791 7.45279 14.0827 7.44384 14.0827 7.43451V6.57071C14.0827 6.45475 14.0955 6.33909 14.1212 6.26644C14.1463 6.19463 14.1804 6.13709 14.2226 6.09577C14.265 6.05475 14.3132 6.02598 14.3659 6.00974C14.4197 5.99321 14.4793 5.9878 14.5215 5.9878C14.5821 5.9878 14.6488 6.00346 14.6488 6.00346C14.671 6.00602 14.6836 5.99235 14.691 5.97213C14.7109 5.91913 14.7673 5.76043 14.7782 5.72882Z" fill="white"/>
<path d="M11.9194 4.9275C11.8824 4.91611 11.8487 4.9084 11.8049 4.90016C11.7604 4.89219 11.7074 4.88818 11.6473 4.88818C11.4376 4.88818 11.2724 4.94744 11.1564 5.06424C11.041 5.1805 10.9627 5.35741 10.9234 5.59019L10.9091 5.66852H10.6459C10.6459 5.66852 10.614 5.66738 10.6071 5.70216L10.5641 5.94346C10.561 5.96626 10.571 5.98078 10.6017 5.98078H10.8579L10.598 7.43149C10.5778 7.5483 10.5544 7.64432 10.5285 7.71723C10.5031 7.78904 10.4784 7.84288 10.4476 7.8822C10.418 7.91982 10.39 7.94772 10.3416 7.96396C10.3017 7.97735 10.2555 7.98362 10.2051 7.98362C10.1772 7.98362 10.1399 7.97903 10.1122 7.97335C10.0849 7.96792 10.0704 7.96196 10.0496 7.95311C10.0496 7.95311 10.0197 7.94174 10.0077 7.97165C9.99827 7.99643 9.9299 8.18416 9.92164 8.20726C9.91367 8.23033 9.92506 8.24828 9.93957 8.25369C9.97377 8.26566 9.99911 8.27363 10.0456 8.28474C10.11 8.29986 10.1644 8.3007 10.2153 8.3007C10.3219 8.3007 10.4193 8.2856 10.5 8.25655C10.5809 8.2272 10.6515 8.17619 10.7142 8.10726C10.7817 8.03261 10.8242 7.95455 10.8647 7.84772C10.9048 7.7423 10.9393 7.61125 10.9666 7.45855L11.2279 5.98078H11.6097C11.6097 5.98078 11.6418 5.98192 11.6484 5.94688L11.6917 5.70586C11.6946 5.6828 11.6849 5.66854 11.6538 5.66854H11.2832C11.2852 5.6603 11.302 5.52978 11.3444 5.40702C11.3627 5.35489 11.3968 5.31243 11.4256 5.28336C11.4541 5.25487 11.4869 5.23465 11.5228 5.22296C11.5595 5.21099 11.6014 5.2053 11.6473 5.2053C11.6821 5.2053 11.7165 5.20928 11.7424 5.21469C11.7783 5.2224 11.7923 5.22638 11.8017 5.22924C11.8396 5.24064 11.8447 5.22952 11.8521 5.21131L11.9408 4.968C11.9499 4.94174 11.9274 4.93063 11.9194 4.9275ZM6.74061 7.43463C6.74061 7.45401 6.72666 7.46968 6.70728 7.46968H6.39987C6.38049 7.46968 6.36682 7.45401 6.36682 7.43463V4.96056C6.36682 4.9412 6.38049 4.92552 6.39987 4.92552H6.70728C6.72666 4.92552 6.74061 4.9412 6.74061 4.96056V7.43463Z" fill="white"/>
</g>
<defs>
<clipPath id="clip0_15_2006">
<rect width="20" height="14" fill="white"/>
</clipPath>
</defs>
</svg>
