<svg width="20" height="10" viewBox="0 0 20 10" fill="none" xmlns="http://www.w3.org/2000/svg">
<g clip-path="url(#clip0_15_2016)">
<path fill-rule="evenodd" clip-rule="evenodd" d="M0 9.99931H9.99435L19.7752 0.000732422H0V9.99931Z" fill="url(#paint0_linear_15_2016)"/>
<path fill-rule="evenodd" clip-rule="evenodd" d="M11.7356 2.00033H9.78258L9.78911 6.69522L8.08845 1.99878H6.40215L4.95041 5.92111C4.79606 4.92303 3.7865 4.57863 2.99215 4.32067C2.46758 4.14847 1.91084 3.89517 1.9165 3.61521C1.92084 3.38547 2.21432 3.17239 2.79758 3.20416C3.18889 3.22571 3.53454 3.25793 4.22215 3.59744L4.89824 2.39316C4.27128 2.06699 3.40432 1.86102 2.69345 1.86035H2.68911C1.86019 1.86035 1.16998 2.13476 0.742149 2.58692C0.443888 2.90243 0.283019 3.3037 0.276497 3.74742C0.265627 4.358 0.48454 4.79082 0.94454 5.13677C1.33324 5.42784 1.83041 5.61671 2.26845 5.75535C2.80867 5.92644 3.24998 6.07531 3.24454 6.39215C3.24091 6.50836 3.19521 6.61905 3.11628 6.70277C2.9815 6.84498 2.77498 6.8983 2.48911 6.90408C1.93758 6.91608 1.52889 6.82742 0.877584 6.43392L0.276062 7.65375C0.926714 8.03192 1.61737 8.22167 2.40215 8.22167L2.57867 8.22034C3.26171 8.20767 3.81606 8.04036 4.2565 7.67819C4.28171 7.65753 4.30432 7.63664 4.3278 7.61553L4.25389 8.00481L5.90171 7.99948L6.19737 7.22581C6.50824 7.33424 6.86171 7.39423 7.23693 7.39423C7.60258 7.39423 7.9465 7.33735 8.2515 7.23514L8.45758 7.99948L11.4141 8.00237L11.4213 6.23862H12.0504C13.5711 6.23862 14.47 5.44762 14.47 4.12114C14.4695 2.6438 13.5956 2.00033 11.7356 2.00033ZM7.23693 6.01354C7.02423 6.01502 6.81302 5.97723 6.61345 5.902L7.22998 3.91228H7.24193L7.84845 5.90755C7.66584 5.97421 7.45802 6.01354 7.23693 6.01354ZM11.85 4.87037H11.4208V3.26682H11.8502C12.4219 3.26682 12.8785 3.46146 12.8785 4.05826C12.878 4.67595 12.4219 4.87037 11.8502 4.87037" fill="white"/>
</g>
<defs>
<linearGradient id="paint0_linear_15_2016" x1="9.88761" y1="0.000732422" x2="9.88761" y2="9.99953" gradientUnits="userSpaceOnUse">
<stop stop-color="#00AEEF"/>
<stop offset="0.212" stop-color="#0097DC"/>
<stop offset="0.519" stop-color="#007CC5"/>
<stop offset="0.792" stop-color="#006CB8"/>
<stop offset="1" stop-color="#0066B3"/>
</linearGradient>
<clipPath id="clip0_15_2016">
<rect width="20" height="10" fill="white"/>
</clipPath>
</defs>
</svg>
