<svg width="120" height="59" viewBox="0 0 120 59" fill="none" xmlns="http://www.w3.org/2000/svg">
<g clip-path="url(#clip0_14_1078)">
<path fill-rule="evenodd" clip-rule="evenodd" d="M0 58.9958H59.9661L118.651 0.00415039H0V58.9958Z" fill="#E2E2DE"/>
<path fill-rule="evenodd" clip-rule="evenodd" d="M70.4139 11.8026H58.6957L58.7348 39.5024L48.5309 11.7934H38.413L29.7026 34.9351C28.7765 29.0465 22.7191 27.0145 17.953 25.4926C14.8057 24.4766 11.4652 22.9821 11.4991 21.3304C11.5252 19.9749 13.2861 18.7177 16.7857 18.9052C19.1335 19.0323 21.2074 19.2224 25.333 21.2255L29.3896 14.1203C25.6278 12.1958 20.4261 10.9806 16.1609 10.9767H16.1348C11.1613 10.9767 7.02 12.5957 4.45305 15.2634C2.66348 17.1249 1.69826 19.4925 1.65913 22.1104C1.59392 25.7128 2.90739 28.2665 5.66739 30.3076C7.99957 32.0249 10.9826 33.1392 13.6109 33.9572C16.8522 34.9666 19.5 35.8449 19.4674 37.7143C19.4456 38.3999 19.1714 39.053 18.6978 39.547C17.8891 40.386 16.65 40.7006 14.9348 40.7347C11.6257 40.8055 9.17348 40.2824 5.26566 37.9608L1.65652 45.1577C5.56044 47.3889 9.70435 48.5085 14.413 48.5085L15.4722 48.5006C19.5704 48.4259 22.8965 47.4387 25.5391 45.3019C25.6904 45.18 25.8261 45.0568 25.967 44.9323L25.5235 47.229L35.4104 47.1975L37.1843 42.6329C39.0496 43.2726 41.1704 43.6266 43.4217 43.6266C45.6157 43.6266 47.6791 43.291 49.5091 42.688L50.7457 47.1975L68.4848 47.2146L68.5278 36.8085H72.3026C81.4265 36.8085 86.82 32.1416 86.82 24.3153C86.8174 15.599 81.5739 11.8026 70.4139 11.8026ZM43.4217 35.4805C42.1455 35.4892 40.8783 35.2663 39.6809 34.8224L43.38 23.0831H43.4517L47.0909 34.8552C45.9952 35.2485 44.7483 35.4805 43.4217 35.4805ZM71.1 28.7358H68.5252V19.2748H71.1013C74.5317 19.2748 77.2709 20.4232 77.2709 23.9444C77.2683 27.5887 74.5317 28.7358 71.1013 28.7358" fill="white"/>
</g>
<defs>
<clipPath id="clip0_14_1078">
<rect width="120" height="59" fill="white"/>
</clipPath>
</defs>
</svg>
