<svg width="50" height="50" viewBox="0 0 50 50" fill="none" xmlns="http://www.w3.org/2000/svg">
<g clip-path="url(#clip0_161_7178)">
<path d="M25 50C38.8071 50 50 38.8071 50 25C50 11.1929 38.8071 0 25 0C11.1929 0 0 11.1929 0 25C0 38.8071 11.1929 50 25 50Z" fill="#1FBBEB"/>
<path d="M8.51172 13.131C12.7413 17.5814 16.6937 18.2468 32.2717 18.2468C47.8451 18.2468 40.9989 21.7128 31.3799 30.2986C34.4291 24.9952 44.9093 20.3012 27.7301 20.5658C11.2647 20.8152 10.2913 15.8028 8.51172 13.131ZM19.5973 34.517C19.5967 35.1413 19.3481 35.7398 18.9063 36.1809C18.4645 36.6221 17.8656 36.8697 17.2413 36.8694C16.617 36.8691 16.0184 36.6208 15.577 36.1793C15.1356 35.7377 14.8877 35.1389 14.8877 34.5146C14.8877 33.8903 15.1356 33.2915 15.577 32.8499C16.0184 32.4083 16.617 32.1601 17.2413 32.1598C17.8656 32.1595 18.4645 32.4071 18.9063 32.8482C19.3481 33.2893 19.5967 33.8879 19.5973 34.5122V34.517ZM30.3247 34.517C30.3241 35.1413 30.0755 35.7398 29.6337 36.1809C29.1919 36.6221 28.593 36.8697 27.9687 36.8694C27.3444 36.8691 26.7458 36.6208 26.3044 36.1793C25.8631 35.7377 25.6151 35.1389 25.6151 34.5146C25.6151 33.8903 25.8631 33.2915 26.3044 32.8499C26.7458 32.4083 27.3444 32.1601 27.9687 32.1598C28.593 32.1595 29.1919 32.4071 29.6337 32.8482C30.0755 33.2893 30.3241 33.8879 30.3247 34.5122V34.517Z" fill="white"/>
</g>
<defs>
<clipPath id="clip0_161_7178">
<rect width="50" height="50" fill="white"/>
</clipPath>
</defs>
</svg>
