<svg width="120" height="34" viewBox="0 0 120 34" fill="none" xmlns="http://www.w3.org/2000/svg">
<g clip-path="url(#clip0_14_1082)">
<path d="M13.56 1.18882C13.8 1.18882 13.92 1.3077 14.16 1.42658C12.72 2.02099 11.28 3.56645 10.56 6.89512L7.92 7.6084C8.76 5.23078 10.44 1.18882 13.56 1.18882ZM14.88 2.37763C15.12 3.09092 15.36 3.92309 15.36 5.23078C15.36 5.34966 15.36 5.34966 15.36 5.46854L11.88 6.41959C12.6 3.92309 13.8 2.85316 14.88 2.37763ZM18 4.51749L16.44 4.99302C16.44 4.87414 16.44 4.75526 16.44 4.63637C16.44 3.56644 16.32 2.73428 16.08 2.02099C16.92 2.25875 17.64 3.32868 18 4.51749ZM25.8 6.41959C25.8 6.30071 25.68 6.18183 25.56 6.18183C25.32 6.18183 22.8 5.94407 22.8 5.94407C22.8 5.94407 21 4.16085 20.76 4.04197C20.52 3.80421 20.16 3.92309 20.04 3.92309C20.04 3.92309 19.68 4.04197 19.08 4.27973C18.48 2.6154 17.4 1.06994 15.6 1.06994H15.48C15 0.356654 14.28 0.118892 13.68 0.118892C9.36 1.10269e-05 7.32 5.34966 6.6 8.08393C5.64 8.32169 4.68 8.67833 3.6 9.03498C2.64 9.27274 2.64 9.39162 2.52 10.2238C2.4 10.8182 0 29.6014 0 29.6014L19.08 33.1678L29.4 30.9091C29.4 30.9091 25.8 6.65735 25.8 6.41959Z" fill="#E2E2DE"/>
<path d="M25.44 6.18184C25.32 6.18184 22.8 5.94407 22.8 5.94407C22.8 5.94407 21 4.16086 20.76 4.04198C20.64 3.9231 20.64 3.9231 20.52 3.9231L19.08 33.1679L29.4 30.9091C29.4 30.9091 25.8 6.65736 25.8 6.4196C25.8 6.30072 25.56 6.18184 25.44 6.18184Z" fill="#E2E2DE"/>
<path d="M15.6 11.8881L14.28 15.6923C14.28 15.6923 13.2 15.0979 11.76 15.0979C9.72 15.0979 9.6 16.2867 9.6 16.6433C9.6 18.3077 14.16 19.021 14.16 23.0629C14.16 26.2727 12.12 28.2937 9.36 28.2937C6.12 28.2937 4.44 26.2727 4.44 26.2727L5.28 23.4196C5.28 23.4196 6.96 24.8461 8.4 24.8461C9.36 24.8461 9.72 24.1328 9.72 23.5384C9.72 21.2797 6 21.1608 6 17.4755C6 14.3846 8.28 11.4126 12.72 11.4126C14.76 11.2937 15.6 11.8881 15.6 11.8881Z" fill="#FFFFFE"/>
<path d="M41.52 18.9021C40.44 18.3077 39.96 17.8322 39.96 17.2378C39.96 16.4056 40.68 15.9301 41.88 15.9301C43.2 15.9301 44.4 16.5245 44.4 16.5245L45.36 13.6713C45.36 13.6713 44.52 12.958 42 12.958C38.4 12.958 36 14.979 36 17.8322C36 19.4965 37.2 20.6853 38.64 21.5175C39.84 22.2308 40.32 22.7063 40.32 23.4196C40.32 24.1329 39.72 24.8461 38.52 24.8461C36.84 24.8461 35.16 24.014 35.16 24.014L34.2 26.8671C34.2 26.8671 35.64 27.8182 38.16 27.8182C41.76 27.8182 44.4 26.035 44.4 22.8252C44.4 21.0419 43.08 19.7343 41.52 18.9021ZM56.04 12.8392C54.24 12.8392 52.8 13.6713 51.72 14.979L53.28 6.8951H49.2L45.24 27.4615H49.32L50.64 20.4475C51.12 17.8322 52.56 16.1678 53.88 16.1678C54.84 16.1678 55.2 16.7622 55.2 17.7133C55.2 18.3077 55.2 18.9021 55.08 19.4965L53.52 27.5804H57.6L59.16 19.2587C59.28 18.4266 59.4 17.3566 59.4 16.6433C59.4 14.2657 58.2 12.8392 56.04 12.8392ZM66.48 24.6084C65.04 24.6084 64.56 23.4196 64.56 21.993C64.56 19.7343 65.76 15.9301 67.92 15.9301C69.36 15.9301 69.84 17.1189 69.84 18.3077C69.84 20.9231 68.64 24.6084 66.48 24.6084ZM68.52 12.8392C63.6 12.8392 60.36 17.2378 60.36 22.1119C60.36 25.2028 62.28 27.6993 66 27.6993C70.8 27.6993 74.04 23.4196 74.04 18.4266C74.04 15.5734 72.36 12.8392 68.52 12.8392ZM80.52 24.7273C79.44 24.7273 78.84 24.1329 78.84 24.1329L79.56 20.3287C80.04 17.8322 81.36 16.1678 82.8 16.1678C84 16.1678 84.48 17.3566 84.48 18.4266C84.36 21.0419 82.8 24.7273 80.52 24.7273ZM84.48 12.8392C81.72 12.8392 80.16 15.2168 80.16 15.2168L80.4 13.0769H76.8C76.68 14.5035 76.32 16.7622 75.96 18.4266L73.08 33.1678H77.16L78.24 27.2238H78.36C78.36 27.2238 79.2 27.6993 80.76 27.6993C85.56 27.6993 88.68 22.8252 88.68 17.951C88.68 15.3357 87.48 12.8392 84.48 12.8392ZM94.44 7.13286C93.12 7.13286 92.16 8.20279 92.16 9.51048C92.16 10.6993 92.88 11.5315 94.08 11.5315C95.4 11.5315 96.48 10.6993 96.48 9.15384C96.48 7.96503 95.64 7.13286 94.44 7.13286ZM88.8 27.4615H92.88L95.64 13.1958H91.56L88.8 27.4615ZM105.96 13.1958H103.08L103.2 12.4825C103.44 11.0559 104.28 9.86712 105.6 9.86712C106.32 9.86712 106.92 10.1049 106.92 10.1049L107.76 6.8951C107.76 6.8951 107.04 6.53845 105.6 6.53845C104.16 6.53845 102.72 6.8951 101.64 7.84614C100.2 9.03496 99.6 10.6993 99.24 12.3636L99.12 13.0769H97.2L96.6 16.1678H98.52L96.36 27.4615H100.44L102.6 16.1678H105.36L105.96 13.1958ZM115.68 13.1958C115.68 13.1958 113.16 19.4965 111.96 22.944C111.84 21.8741 111 13.1958 111 13.1958H106.68L109.08 26.2727C109.08 26.5105 109.08 26.7482 108.96 26.986C108.48 27.9371 107.64 28.7692 106.8 29.3636C106.08 29.958 105.12 30.3147 104.52 30.5524L105.6 34C106.44 33.8811 108.12 33.1678 109.56 31.8601C111.36 30.1958 113.16 27.4615 114.84 23.8951L119.76 13.3147L115.68 13.1958Z" fill="#E2E2DE"/>
</g>
<defs>
<clipPath id="clip0_14_1082">
<rect width="120" height="34" fill="white"/>
</clipPath>
</defs>
</svg>
