<svg width="21" height="24" viewBox="0 0 21 24" fill="none" xmlns="http://www.w3.org/2000/svg">
<path d="M9.59344 0.765471C9.76324 0.765471 9.84814 0.850369 10.0179 0.935267C8.99916 1.35976 7.98039 2.46343 7.471 4.84056L5.60325 5.34995C6.19753 3.65199 7.3861 0.765471 9.59344 0.765471ZM10.5273 1.61445C10.6971 2.12383 10.8669 2.71812 10.8669 3.65199C10.8669 3.73689 10.8669 3.73689 10.8669 3.82179L8.40487 4.50097C8.91426 2.71812 9.76324 1.95404 10.5273 1.61445ZM12.7347 3.14261L11.631 3.4822C11.631 3.3973 11.631 3.3124 11.631 3.22751C11.631 2.46343 11.5461 1.86914 11.3763 1.35976C11.9706 1.52955 12.48 2.29363 12.7347 3.14261ZM18.253 4.50097C18.253 4.41607 18.1681 4.33118 18.0832 4.33118C17.9134 4.33118 16.1306 4.16138 16.1306 4.16138C16.1306 4.16138 14.8571 2.88791 14.6873 2.80302C14.5175 2.63322 14.2628 2.71812 14.1779 2.71812C14.1779 2.71812 13.9232 2.80302 13.4987 2.97281C13.0742 1.78424 12.3102 0.680573 11.0367 0.680573H10.9518C10.6122 0.171187 10.1028 0.00139171 9.67834 0.00139171C6.62202 -0.083506 5.17876 3.73689 4.66937 5.68954C3.99019 5.85933 3.31101 6.11403 2.54693 6.36872C1.86775 6.53852 1.86775 6.62341 1.78285 7.2177C1.69795 7.64219 0 21.056 0 21.056L13.4987 23.603L20.7999 21.9899C20.7999 21.9899 18.253 4.67077 18.253 4.50097Z" fill="#8DB849"/>
<path d="M17.9983 4.33107C17.9134 4.33107 16.1306 4.16128 16.1306 4.16128C16.1306 4.16128 14.8571 2.88781 14.6873 2.80292C14.6024 2.71802 14.6024 2.71802 14.5175 2.71802L13.4987 23.6029L20.8 21.9898C20.8 21.9898 18.253 4.67067 18.253 4.50087C18.253 4.41597 18.0832 4.33107 17.9983 4.33107Z" fill="#5A863E"/>
<path d="M11.0367 8.40624L10.1028 11.123C10.1028 11.123 9.33871 10.6985 8.31994 10.6985C6.87667 10.6985 6.79178 11.5475 6.79178 11.8021C6.79178 12.9907 10.0179 13.5001 10.0179 16.3866C10.0179 18.6789 8.57463 20.1221 6.62198 20.1221C4.32974 20.1221 3.14117 18.6789 3.14117 18.6789L3.73546 16.6413C3.73546 16.6413 4.92403 17.6601 5.9428 17.6601C6.62198 17.6601 6.87667 17.1507 6.87667 16.7262C6.87667 15.1132 4.24484 15.0283 4.24484 12.3964C4.24484 10.1891 5.8579 8.06665 8.99912 8.06665C10.4424 7.98175 11.0367 8.40624 11.0367 8.40624Z" fill="#FFFFFE"/>
</svg>
