<svg width="120" height="35" viewBox="0 0 120 35" fill="none" xmlns="http://www.w3.org/2000/svg">
<g clip-path="url(#clip0_14_1069)">
<path d="M44.1257 24.0625C44.1257 24.0625 46.22 26.5024 49.2357 26.5024C51.1623 26.5024 52.6702 25.3245 52.6702 23.4735C52.6702 19.1827 42.8692 19.8557 42.8692 13.5457C42.8692 10.5168 45.5498 8.0769 49.3194 8.0769C51.4974 8.0769 55.0995 9.08652 55.0995 11.863V13.5457H52.4189V12.6202C52.4189 11.5264 50.911 10.7692 49.3194 10.7692C47.1414 10.7692 45.8011 11.9471 45.8011 13.5457C45.8011 17.6683 55.5183 16.7428 55.5183 23.3894C55.5183 26.5024 53.089 29.1947 49.0681 29.1947C44.7959 29.1947 42.3666 26.1658 42.3666 26.1658L44.1257 24.0625ZM60.2094 32.3918C61.2984 32.3918 62.2199 31.5505 62.7225 30.2884L63.3927 28.6899L58.4503 17.1634C58.2827 16.7428 58.0314 16.5745 57.5288 16.5745H57.1937V14.2187H58.8691C60.0419 14.2187 60.4607 14.5553 60.9633 15.649L64.2303 23.8942C64.4817 24.6514 64.733 25.661 64.733 25.661H64.8167C64.8167 25.661 64.9843 24.6514 65.3193 23.8942L68.335 15.649C68.7539 14.4711 69.2565 14.2187 70.4293 14.2187H72.1047V16.5745H71.7696C71.3507 16.5745 71.0157 16.6586 70.8481 17.1634L64.9843 31.3822C64.0628 33.6538 62.3037 34.8317 60.2932 34.8317C58.1152 34.8317 56.8586 33.4014 56.8586 33.4014L58.0314 31.3822C58.1152 31.3822 58.9529 32.3918 60.2094 32.3918ZM74.869 11.4423C74.869 11.0216 74.6177 10.7692 74.1989 10.7692H73.0261V8.41344H75.7905C77.047 8.41344 77.6334 9.00238 77.6334 10.2644V25.7452C77.6334 26.1658 77.8847 26.4182 78.3036 26.4182H79.4763V28.774H76.712C75.4554 28.774 74.869 28.1851 74.869 26.9231V11.4423ZM83.4973 17.1634C83.4973 16.7428 83.246 16.4904 82.8271 16.4904H81.6543V14.1346H84.4187C85.6753 14.1346 86.2617 14.7235 86.2617 15.9856V25.661C86.2617 26.0817 86.513 26.3341 86.9318 26.3341H88.1046V28.6899H85.3402C84.0836 28.6899 83.4973 28.1009 83.4973 26.8389V17.1634ZM83.581 8.41344H86.0941V11.3582H83.581V8.41344ZM91.6229 17.1634C91.6229 16.7428 91.3716 16.4904 90.9527 16.4904H89.78V14.1346H92.5443C93.8847 14.1346 94.3873 14.7235 94.3873 15.9014V22.8005C94.3873 24.8197 94.8061 26.4182 97.0679 26.4182C100.084 26.4182 101.843 23.8101 101.843 20.9495V14.1346H104.607V25.661C104.607 26.0817 104.858 26.3341 105.277 26.3341H106.45V28.6899H103.769C102.513 28.6899 101.926 28.1009 101.926 27.0913V26.5024V25.661H101.843C101.256 27.0913 99.4134 29.0264 96.4815 29.0264C93.2145 29.0264 91.5391 27.2596 91.5391 23.4735V17.1634H91.6229ZM109.633 24.6514C109.633 24.6514 111.392 26.8389 113.989 26.8389C115.33 26.8389 116.502 26.25 116.502 24.988C116.502 22.3798 108.544 22.6322 108.544 17.9207C108.544 15.1442 110.974 13.7981 113.905 13.7981C115.665 13.7981 118.68 14.387 118.68 16.6586V18.0048H116.167V17.2476C116.167 16.4062 114.911 15.9856 113.989 15.9856C112.314 15.9856 111.309 16.5745 111.309 17.7524C111.309 20.5288 119.267 19.9399 119.267 24.8197C119.267 27.4279 117.005 29.1106 113.905 29.1106C110.052 29.1106 108.125 26.5865 108.125 26.5865L109.633 24.6514Z" fill="#E2E2DE"/>
<path d="M5.59186 20.5288L12.5447 34.4952L25.4452 34.5793L28.5446 30.1202L5.59186 20.5288Z" fill="#E2E2DE"/>
<path d="M0.733276 22.0433L10.1154 35H25.4452L28.5447 30.2044L0.733276 22.0433ZM11.9584 6.31012L16.5657 9.84378L20.6704 1.93512L19.2463 1.00964L11.9584 6.31012Z" fill="#E2E2DE"/>
<path d="M25.4452 35L11.9584 6.3101L14.8903 4.20673L30.5551 27.0913L25.4452 35ZM17.9898 1.9351L26.7855 9.08654L20.5866 0L17.9898 1.9351Z" fill="#E2E2DE"/>
</g>
<defs>
<clipPath id="clip0_14_1069">
<rect width="120" height="35" fill="white"/>
</clipPath>
</defs>
</svg>
