<svg width="119" height="34" viewBox="0 0 119 34" fill="none" xmlns="http://www.w3.org/2000/svg">
<g clip-path="url(#clip0_2028_45)">
<path fill-rule="evenodd" clip-rule="evenodd" d="M85.1 25V13.8H70.6V25H66.5V0H70.6V10.7H85.1V0H89.2V25H85.1ZM20.9 32.1L21.7 30L22.5 32.1H20.9ZM23.4 34H24L21.8 28.8L19.5 34H20.1L20.7 32.6H22.8L23.4 34ZM57.3 32.1L58.1 30L58.9 32.1H57.3ZM59.7 34H60.3L58.1 28.8L55.9 34H56.5L57.1 32.6H59.2L59.7 34ZM82.8 29.1H83.4V34H82.8V29.1ZM34.7 0H30.6V25H34.7V0Z" fill="black"/>
<path d="M20.6 0L12.5 16.9L4.3 0H0L12.4 25L24.8 0H20.6ZM53.9 21.6C47.9 21.6 43.4 17.8 43.4 12.5C43.4 7.2 47.8 3.4 53.9 3.4C56.6 3.4 59 4.2 60.9 5.6V1.6C58.8 0.6 56.4 0 53.9 0C46.1 0 39.7 5.6 39.7 12.5C39.7 19.4 46.1 25 53.9 25C56.4 25 58.8 24.4 60.9 23.4V19.4C59 20.8 56.6 21.6 53.9 21.6ZM29.6 34V29.1H30.4C31.5 29.1 32.1 29.5 32.1 30.4C32.1 30.8 31.9 31.1 31.6 31.4C31.9 31.5 32.1 31.6 32.3 31.9C32.5 32.1 32.5 32.4 32.5 32.7C32.5 33.2 32.3 33.5 32 33.8C31.7 34 31.3 34.1 30.8 34.1H29.6V34ZM30.1 29.6V31.2H30.4C30.8 31.2 31.1 31.2 31.2 31.1C31.4 31 31.5 30.8 31.5 30.5C31.5 30.2 31.4 29.9 31.2 29.8C31 29.7 30.8 29.7 30.4 29.7H30.1V29.6ZM30.1 31.6V33.5H30.7C31.6 33.5 31.9 33.2 31.9 32.6C31.9 32 31.5 31.6 30.6 31.6H30.1ZM40.6 28.9C41.3 28.9 42 29.1 42.5 29.6C43 30.1 43.3 30.7 43.3 31.4C43.3 32.1 43 32.7 42.5 33.2C42 33.8 41.4 34 40.6 34C39.9 34 39.2 33.8 38.7 33.3C38.2 32.8 37.9 32.2 37.9 31.5C37.9 30.8 38.2 30.2 38.7 29.7C39.3 29.2 39.9 28.9 40.6 28.9ZM40.6 29.4C40 29.4 39.5 29.6 39.1 30C38.7 30.4 38.5 30.9 38.5 31.4C38.5 32 38.7 32.4 39.1 32.8C39.5 33.2 40 33.4 40.6 33.4C41.2 33.4 41.7 33.2 42.1 32.8C42.5 32.4 42.7 31.9 42.7 31.4C42.7 30.8 42.5 30.4 42.1 30C41.7 29.6 41.2 29.4 40.6 29.4ZM74.6 28.9C75.3 28.9 76 29.1 76.5 29.6C77 30.1 77.3 30.7 77.3 31.4C77.3 32.1 77 32.7 76.5 33.2C76 33.7 75.4 33.9 74.6 33.9C73.9 33.9 73.2 33.7 72.7 33.2C72.2 32.7 71.9 32.1 71.9 31.4C71.9 30.7 72.2 30.1 72.7 29.6C73.2 29.2 73.9 28.9 74.6 28.9ZM74.6 29.4C74 29.4 73.5 29.6 73.1 30C72.7 30.4 72.5 30.9 72.5 31.4C72.5 32 72.7 32.4 73.1 32.8C73.5 33.2 74 33.4 74.6 33.4C75.2 33.4 75.7 33.2 76.1 32.8C76.5 32.4 76.7 31.9 76.7 31.4C76.7 30.8 76.5 30.4 76.1 30C75.7 29.6 75.2 29.4 74.6 29.4ZM108.3 29.7L107.9 30C107.7 29.6 107.4 29.5 107 29.5C106.8 29.5 106.6 29.6 106.4 29.7C106.2 29.8 106.2 30 106.2 30.2C106.2 30.4 106.3 30.5 106.5 30.7C106.6 30.8 106.8 30.9 107 31L107.3 31.1C107.7 31.3 108 31.4 108.1 31.6C108.3 31.8 108.5 32.1 108.5 32.5C108.5 32.9 108.3 33.3 108 33.6C107.7 33.9 107.3 34 106.9 34C106.5 34 106.2 33.9 105.9 33.7C105.6 33.5 105.4 33.2 105.4 32.8L105.9 32.6C105.9 32.9 106 33.1 106.2 33.2C106.4 33.4 106.6 33.5 106.9 33.5C107.2 33.5 107.4 33.4 107.6 33.2C107.8 33 107.9 32.8 107.9 32.5C107.9 32.2 107.8 32 107.6 31.9C107.5 31.8 107.3 31.7 107 31.6L106.7 31.5C106.4 31.4 106.1 31.2 105.9 31C105.7 30.8 105.6 30.5 105.6 30.2C105.6 29.8 105.7 29.5 106 29.3C106.3 29.1 106.6 29 107 29C107.6 28.9 108.1 29.2 108.3 29.7ZM97.9 34V29.1H100.6V29.6H98.4V31.1H100.4V31.6H98.4V33.5H100.6V34H97.9ZM13 29.1V33.5H14.4V34H12.5V29.1H13ZM66.4 29.6V34H65.8V29.6H64.6V29.1H67.6V29.6H66.4ZM48.8 31.8V34H48.2V29.1H49C50.2 29.1 50.8 29.6 50.8 30.5C50.8 30.9 50.7 31.2 50.5 31.4C50.3 31.6 50 31.8 49.6 31.8L51.2 34H50.5L49 31.8H48.8ZM48.8 29.6V31.4H49C49.4 31.4 49.7 31.3 49.9 31.2C50.2 31.1 50.3 30.8 50.3 30.5C50.3 30.1 50.2 29.9 49.9 29.7C49.7 29.6 49.4 29.6 49 29.6H48.8ZM90.1 31.8V34H89.5V29.1H90.2C91.4 29.1 92 29.6 92 30.5C92 30.9 91.9 31.2 91.7 31.4C91.5 31.6 91.2 31.8 90.8 31.8L92.4 34H91.7L90.2 31.8H90.1ZM90.1 29.6V31.4H90.3C90.7 31.4 91 31.3 91.2 31.2C91.5 31.1 91.6 30.8 91.6 30.5C91.6 30.1 91.5 29.9 91.2 29.7C91 29.6 90.7 29.6 90.3 29.6H90.1ZM119 0L107.8 14.2V25H104V14.3L92.8 0H97.2L105.9 11.1L114.6 0H119Z" fill="black"/>
</g>
<defs>
<clipPath id="clip0_2028_45">
<rect width="119" height="34" fill="white"/>
</clipPath>
</defs>
</svg>
