<svg width="20" height="8" viewBox="0 0 20 8" fill="none" xmlns="http://www.w3.org/2000/svg">
<g clip-path="url(#clip0_15_1978)">
<path d="M11.3989 0.292141C11.0258 0.478658 10.8642 0.826824 10.8642 1.77185C10.8642 1.77185 11.0507 1.58533 11.3491 1.47342C11.5667 1.39259 11.7222 1.2869 11.8341 1.20608C12.1574 0.963604 12.2071 0.671393 12.2071 0.161578C12.2009 0.161578 11.6911 0.130492 11.3989 0.292141Z" fill="#FBBD71"/>
<path d="M9.11716 0.509811C8.79386 0.777153 8.71304 1.23723 8.71304 1.23723L7.66854 5.24114L6.81056 1.96465C6.72974 1.61648 6.56809 1.18749 6.32562 0.889063C6.02719 0.509811 5.40546 0.484942 5.33085 0.484942C5.2749 0.484942 4.65939 0.509811 4.33609 0.889063C4.09362 1.18749 3.93197 1.61648 3.85115 1.96465L3.04291 5.24114L1.99841 1.23723C1.99841 1.23723 1.91758 0.808239 1.59429 0.509811C1.08447 0.0497341 0.332184 0.161645 0.332184 0.161645L2.3217 7.65343C2.3217 7.65343 2.9683 7.70939 3.2916 7.54774C3.72059 7.33014 3.93819 7.17471 4.18066 6.14886C4.42314 5.23492 5.06973 2.57394 5.11947 2.38742C5.14434 2.3066 5.20029 2.06412 5.36194 2.06412C5.52359 2.06412 5.57955 2.28173 5.60441 2.38742C5.66037 2.57394 6.30075 5.23492 6.54322 6.14886C6.81056 7.16849 6.99708 7.33014 7.43229 7.54774C7.75558 7.70939 8.40218 7.65343 8.40218 7.65343L10.3793 0.161645C10.3793 0.161645 9.62698 0.0559514 9.11716 0.509811ZM12.2009 1.36779C12.2009 1.36779 12.0641 1.55431 11.7968 1.71596C11.6103 1.82165 11.4486 1.87761 11.2621 1.9833C10.9388 2.14495 10.858 2.3066 10.858 2.54907V7.62857C10.858 7.62857 11.3678 7.68452 11.6911 7.52287C12.1201 7.30527 12.2009 7.09388 12.2009 6.17994V1.66622V1.36779ZM17.1436 3.92308L19.6678 0.186514C19.6678 0.186514 18.6233 -3.91901e-06 18.0824 0.484942C17.7343 0.78337 17.3861 1.34292 17.3861 1.34292L16.4722 2.68585C16.4162 2.76667 16.3665 2.82263 16.2857 2.82263C16.2048 2.82263 16.124 2.7418 16.0991 2.68585L15.1852 1.34292C15.1852 1.34292 14.8122 0.808239 14.4889 0.484942C13.9542 -3.91901e-06 12.9035 0.186514 12.9035 0.186514L15.3468 3.91687L12.8475 7.64722C12.8475 7.64722 13.948 7.784 14.4889 7.29905C14.837 7.00062 15.1603 6.49081 15.1603 6.49081L16.0743 5.14788C16.1302 5.06706 16.18 5.0111 16.2608 5.0111C16.3416 5.0111 16.4224 5.09193 16.4473 5.14788L17.3612 6.49081C17.3612 6.49081 17.7094 7.00062 18.0327 7.29905C18.5674 7.784 19.643 7.64722 19.643 7.64722L17.1436 3.92308Z" fill="#0D0D0D"/>
</g>
<defs>
<clipPath id="clip0_15_1978">
<rect width="20" height="7.784" fill="white"/>
</clipPath>
</defs>
</svg>
