<svg width="50" height="19" viewBox="0 0 50 19" fill="none" xmlns="http://www.w3.org/2000/svg">
<g clip-path="url(#clip0_161_7186)">
<path d="M28.4969 0.713217C27.5643 1.16849 27.1602 2.01833 27.1602 4.32504C27.1602 4.32504 27.6265 3.86977 28.3725 3.5966C28.9165 3.39932 29.3051 3.14133 29.5849 2.94405C30.3931 2.35219 30.5175 1.63894 30.5175 0.394527C30.5019 0.394527 29.2274 0.318648 28.4969 0.713217Z" fill="#FBBD71"/>
<path d="M22.7925 1.24433C21.9843 1.89689 21.7822 3.01989 21.7822 3.01989L19.171 12.7931L17.026 4.79545C16.824 3.94561 16.4198 2.89849 15.8137 2.17005C15.0676 1.24433 13.5133 1.18363 13.3268 1.18363C13.1869 1.18363 11.6481 1.24433 10.8399 2.17005C10.2337 2.89849 9.82955 3.94561 9.62749 4.79545L7.60688 12.7931L4.99564 3.01989C4.99564 3.01989 4.79358 1.97277 3.98533 1.24433C2.7108 0.121329 0.830078 0.394492 0.830078 0.394492L5.80388 18.6812C5.80388 18.6812 7.42036 18.8178 8.22861 18.4232C9.30108 17.8921 9.84509 17.5127 10.4513 15.0087C11.0575 12.7779 12.6739 6.28267 12.7983 5.8274C12.8605 5.63012 13.0003 5.03826 13.4045 5.03826C13.8086 5.03826 13.9485 5.56941 14.0107 5.8274C14.1505 6.28267 15.7515 12.7779 16.3577 15.0087C17.026 17.4975 17.4923 17.8921 18.5803 18.4232C19.3886 18.8178 21.0051 18.6812 21.0051 18.6812L25.9478 0.394492C25.9478 0.394492 24.0671 0.136505 22.7925 1.24433ZM30.5019 3.33858C30.5019 3.33858 30.16 3.79385 29.4916 4.18842C29.0253 4.44641 28.6212 4.58299 28.1549 4.84098C27.3467 5.23555 27.1446 5.63011 27.1446 6.22197V18.6205C27.1446 18.6205 28.4191 18.7571 29.2274 18.3625C30.2999 17.8314 30.5019 17.3154 30.5019 15.0846V4.06702V3.33858ZM42.8587 9.5758L49.1692 0.455195C49.1692 0.455195 46.558 -7.65026e-05 45.2057 1.18363C44.3353 1.91206 43.4649 3.27788 43.4649 3.27788L41.18 6.55583C41.0402 6.75312 40.9158 6.8897 40.7137 6.8897C40.5117 6.8897 40.3096 6.69242 40.2475 6.55583L37.9626 3.27788C37.9626 3.27788 37.03 1.97277 36.2218 1.18363C34.8851 -7.65026e-05 32.2583 0.455195 32.2583 0.455195L38.3667 9.56063L32.1184 18.6661C32.1184 18.6661 34.8695 18.9999 36.2218 17.8162C37.0922 17.0878 37.9004 15.8434 37.9004 15.8434L40.1853 12.5654C40.3252 12.3681 40.4495 12.2316 40.6516 12.2316C40.8536 12.2316 41.0557 12.4288 41.1179 12.5654L43.4027 15.8434C43.4027 15.8434 44.2731 17.0878 45.0814 17.8162C46.4181 18.9999 49.107 18.6661 49.107 18.6661L42.8587 9.5758Z" fill="black"/>
</g>
<defs>
<clipPath id="clip0_161_7186">
<rect width="50" height="19" fill="white"/>
</clipPath>
</defs>
</svg>
