<svg width="120" height="47" viewBox="0 0 120 47" fill="none" xmlns="http://www.w3.org/2000/svg">
<path d="M68.3933 1.76437C66.1551 2.89057 65.1852 4.9928 65.1852 10.6989C65.1852 10.6989 66.3043 9.57268 68.0949 8.89696C69.4005 8.40894 70.3331 7.77076 71.0045 7.28274C72.9443 5.81868 73.2427 4.05431 73.2427 0.976031C73.2054 0.976031 70.1466 0.788331 68.3933 1.76437Z" fill="#E2E2DE"/>
<path d="M54.7029 3.0783C52.7631 4.69251 52.2782 7.47047 52.2782 7.47047L46.0112 31.6462L40.8633 11.8626C40.3784 9.76041 39.4085 7.17015 37.9536 5.36823C36.1631 3.0783 32.4327 2.92814 31.9851 2.92814C31.6493 2.92814 27.9563 3.0783 26.0165 5.36823C24.5617 7.17015 23.5918 9.76041 23.1068 11.8626L18.2574 31.6462L11.9904 7.47047C11.9904 7.47047 11.5054 4.88021 9.56565 3.0783C6.50677 0.300342 1.99304 0.976061 1.99304 0.976061L13.9302 46.2117C13.9302 46.2117 17.8097 46.5495 19.7495 45.5735C22.3235 44.2596 23.6291 43.3211 25.0839 37.127C26.5388 31.6086 30.4183 15.5416 30.7167 14.4154C30.866 13.9273 31.2017 12.4633 32.1716 12.4633C33.1415 12.4633 33.4772 13.7772 33.6264 14.4154C33.9622 15.5416 37.8044 31.6086 39.2593 37.127C40.8633 43.2836 41.9824 44.2596 44.5937 45.5735C46.5334 46.5495 50.413 46.2117 50.413 46.2117L62.2755 0.976061C62.2755 0.976061 57.7618 0.337882 54.7029 3.0783ZM73.2054 8.25881C73.2054 8.25881 72.3848 9.38501 70.7807 10.361C69.6616 10.9992 68.6917 11.3371 67.5726 11.9753C65.6328 12.9513 65.1479 13.9273 65.1479 15.3914V46.0615C65.1479 46.0615 68.2068 46.3994 70.1466 45.4233C72.7205 44.1094 73.2054 42.8331 73.2054 37.3147V10.0607V8.25881ZM102.862 23.6877L118.007 1.12622C118.007 1.12622 111.74 2.2769e-05 108.495 2.92814C106.406 4.73005 104.317 8.10865 104.317 8.10865L98.833 16.2173C98.4972 16.7053 98.1988 17.0432 97.7139 17.0432C97.2289 17.0432 96.744 16.5551 96.5948 16.2173L91.1111 8.10865C91.1111 8.10865 88.8729 4.88021 86.9331 2.92814C83.725 2.2769e-05 77.4207 1.12622 77.4207 1.12622L92.081 23.6502L77.085 46.1741C77.085 46.1741 83.6877 47 86.9331 44.0719C89.0221 42.27 90.9619 39.1917 90.9619 39.1917L96.4455 31.0831C96.7813 30.5951 97.0797 30.2572 97.5646 30.2572C98.0496 30.2572 98.5345 30.7452 98.6838 31.0831L104.167 39.1917C104.167 39.1917 106.256 42.27 108.196 44.0719C111.404 47 117.858 46.1741 117.858 46.1741L102.862 23.6877Z" fill="#E2E2DE"/>
</svg>
