<svg width="20" height="12" viewBox="0 0 20 12" fill="none" xmlns="http://www.w3.org/2000/svg">
<g clip-path="url(#clip0_15_1716)">
<path d="M1.85692 0H18.1349C19.1651 0 19.999 0.831317 19.999 1.85833V8.0526C19.999 9.07962 19.1651 9.91093 18.1349 9.91093H12.2974L13.0987 11.867L9.57487 9.91093H1.86505C0.834912 9.91093 0.00100605 9.07962 0.00100605 8.0526V1.85833C-0.00719631 0.839494 0.826631 0 1.85692 0Z" fill="#9B5C8F"/>
<path d="M1.13974 1.69375C1.25356 1.53971 1.42425 1.45872 1.65188 1.44252C2.06653 1.41005 2.30229 1.6045 2.35916 2.02596C2.61117 3.71975 2.88755 5.15421 3.18017 6.32926L4.96047 2.94987C5.12312 2.64188 5.32638 2.47982 5.57026 2.46362C5.92796 2.43932 6.14739 2.66617 6.23684 3.14433C6.4401 4.22212 6.70023 5.13793 7.00911 5.9159C7.2205 3.85751 7.5782 2.37445 8.08221 1.45872C8.20408 1.23179 8.38297 1.11833 8.61872 1.10205C8.80574 1.08593 8.97642 1.14263 9.13086 1.26419C9.2853 1.38575 9.36662 1.53971 9.38287 1.72614C9.391 1.872 9.36662 1.99357 9.30163 2.11513C8.98455 2.69865 8.72434 3.67925 8.51303 5.04066C8.30985 6.36166 8.23665 7.39093 8.2854 8.12841C8.30172 8.33089 8.26915 8.50922 8.18791 8.66326C8.09026 8.84151 7.94402 8.93878 7.75701 8.95498C7.54562 8.97118 7.32619 8.87399 7.1148 8.65516C6.35878 7.88521 5.7572 6.73445 5.31825 5.2028C4.78979 6.2401 4.39959 7.01807 4.14758 7.53672C3.66794 8.45253 3.26149 8.92258 2.92004 8.94688C2.70053 8.96308 2.5136 8.77664 2.35103 8.38774C1.93646 7.32606 1.48932 5.27569 1.00975 2.23669C0.977178 2.02596 1.02592 1.83953 1.13974 1.69375ZM18.6097 2.96607C18.317 2.45552 17.8861 2.1476 17.309 2.02596C17.1545 1.99357 17.0082 1.97737 16.87 1.97737C16.0896 1.97737 15.4555 2.38255 14.9596 3.193C14.5368 3.8818 14.3255 4.64358 14.3255 5.47832C14.3255 6.10234 14.4556 6.63718 14.7157 7.08294C15.0084 7.59349 15.4393 7.90141 16.0164 8.02297C16.1708 8.05544 16.3171 8.07164 16.4554 8.07164C17.2439 8.07164 17.878 7.66646 18.3658 6.85601C18.7885 6.15903 18.9999 5.39725 18.9999 4.56259C19.008 3.93048 18.8698 3.40365 18.6097 2.96607ZM17.5854 5.2109C17.4716 5.74575 17.2683 6.14283 16.9675 6.41025C16.7318 6.62098 16.5123 6.71007 16.3091 6.66958C16.114 6.62908 15.9513 6.45893 15.8294 6.14283C15.7318 5.8916 15.6831 5.64038 15.6831 5.40535C15.6831 5.2028 15.6994 5.00017 15.74 4.81381C15.8132 4.48152 15.9514 4.15733 16.1708 3.84941C16.4392 3.45225 16.7237 3.29027 17.0163 3.34696C17.2114 3.38745 17.3741 3.55769 17.4959 3.87371C17.5935 4.12493 17.6422 4.37616 17.6422 4.61118C17.6422 4.82191 17.626 5.02454 17.5854 5.2109ZM13.5207 2.96607C13.2281 2.45552 12.789 2.1476 12.22 2.02596C12.0656 1.99357 11.9193 1.97737 11.781 1.97737C11.0006 1.97737 10.3665 2.38255 9.87064 3.193C9.44794 3.8818 9.23656 4.64358 9.23656 5.47832C9.23656 6.10234 9.36662 6.63718 9.62675 7.08294C9.91938 7.59349 10.3503 7.90141 10.9274 8.02297C11.0819 8.05544 11.2282 8.07164 11.3664 8.07164C12.155 8.07164 12.789 7.66646 13.2768 6.85601C13.6996 6.15903 13.9109 5.39725 13.9109 4.56259C13.9109 3.93048 13.7808 3.40365 13.5207 2.96607ZM12.4883 5.2109C12.3745 5.74575 12.1712 6.14283 11.8704 6.41025C11.6347 6.62098 11.4152 6.71007 11.2119 6.66958C11.0169 6.62908 10.8543 6.45893 10.7323 6.14283C10.6348 5.8916 10.586 5.64038 10.586 5.40535C10.586 5.2028 10.6023 5.00017 10.6429 4.81381C10.7161 4.48152 10.8543 4.15733 11.0738 3.84941C11.3421 3.45225 11.6266 3.29027 11.9192 3.34696C12.1143 3.38745 12.277 3.55769 12.3988 3.87371C12.4965 4.12493 12.5451 4.37616 12.5451 4.61118C12.5534 4.82191 12.5289 5.02454 12.4883 5.2109Z" fill="white"/>
</g>
<defs>
<clipPath id="clip0_15_1716">
<rect width="20" height="11.9149" fill="white"/>
</clipPath>
</defs>
</svg>
