<svg width="120" height="72" viewBox="0 0 120 72" fill="none" xmlns="http://www.w3.org/2000/svg">
<g clip-path="url(#clip0_14_897)">
<path d="M11.1416 0H108.81C114.991 0 119.994 5.02353 119.994 11.2296V48.6607C119.994 54.8668 114.991 59.8904 108.81 59.8904H73.7846L78.5921 71.7106L57.4493 59.8904H11.1904C5.00953 59.8904 0.00609731 54.8668 0.00609731 48.6607V11.2296C-0.0431168 5.07294 4.95985 0 11.1416 0Z" fill="#E2E2DE"/>
<path d="M6.83848 10.2353C7.52138 9.3045 8.5455 8.81509 9.91131 8.71721C12.3992 8.52097 13.8138 9.69603 14.155 12.2429C15.667 22.4781 17.3253 31.1464 19.0811 38.2471L29.7629 17.8259C30.7387 15.9647 31.9583 14.9854 33.4216 14.8876C35.5678 14.7407 36.8844 16.1116 37.4211 19.001C38.6406 25.5139 40.2014 31.048 42.0547 35.7492C43.323 23.3106 45.4692 14.3487 48.4933 8.81509C49.2245 7.44379 50.2978 6.75815 51.7124 6.65979C52.8345 6.56238 53.8586 6.90497 54.7852 7.63956C55.7118 8.37415 56.1998 9.3045 56.2973 10.4311C56.346 11.3125 56.1998 12.0471 55.8098 12.7817C53.9073 16.3078 52.3461 22.2334 51.0782 30.4603C49.8591 38.4428 49.4199 44.6626 49.7124 49.1191C49.8104 50.3426 49.6149 51.4203 49.1275 52.3511C48.5416 53.4283 47.6642 54.016 46.5421 54.1139C45.2738 54.2118 43.9572 53.6245 42.6889 52.3021C38.1527 47.6494 34.5432 40.6956 31.9096 31.44C28.7388 37.7083 26.3976 42.4094 24.8855 45.5436C22.0077 51.0777 19.569 53.9181 17.5203 54.065C16.2032 54.1628 15.0816 53.0363 14.1062 50.6861C11.6188 44.2706 8.93594 31.8805 6.05855 13.5163C5.8631 12.2429 6.15557 11.1163 6.83848 10.2353ZM111.658 17.9238C109.902 14.8386 107.317 12.9779 103.854 12.2429C102.927 12.0471 102.05 11.9492 101.22 11.9492C96.5375 11.9492 92.733 14.3977 89.7577 19.2951C87.2211 23.4574 85.9532 28.0607 85.9532 33.105C85.9532 36.8758 86.7336 40.1078 88.2944 42.8014C90.0502 45.8866 92.6356 47.7473 96.0984 48.4819C97.025 48.6781 97.9029 48.776 98.7325 48.776C103.464 48.776 107.268 46.3276 110.195 41.4301C112.731 37.2184 113.999 32.6151 113.999 27.5713C114.048 23.7516 113.219 20.568 111.658 17.9238ZM105.512 31.489C104.829 34.721 103.61 37.1205 101.805 38.7365C100.391 40.0099 99.0737 40.5483 97.8546 40.3036C96.6838 40.0588 95.7079 39.0306 94.9767 37.1205C94.3909 35.6024 94.0989 34.0843 94.0989 32.664C94.0989 31.44 94.1963 30.2156 94.4401 29.0894C94.8792 27.0814 95.7084 25.1224 97.025 23.2617C98.635 20.8617 100.342 19.8829 102.098 20.2254C103.269 20.4701 104.244 21.4989 104.976 23.4085C105.561 24.9266 105.854 26.4447 105.854 27.865C105.854 29.1384 105.756 30.3629 105.512 31.489ZM81.1241 17.9238C79.3684 14.8386 76.7342 12.9779 73.3202 12.2429C72.3936 12.0471 71.5157 11.9492 70.6861 11.9492C66.0037 11.9492 62.1992 14.3977 59.2239 19.2951C56.6877 23.4574 55.4194 28.0607 55.4194 33.105C55.4194 36.8758 56.1998 40.1078 57.7606 42.8014C59.5163 45.8866 62.1017 47.7473 65.5645 48.4819C66.4916 48.6781 67.369 48.776 68.1986 48.776C72.9298 48.776 76.7342 46.3276 79.6608 41.4301C82.1975 37.2184 83.4653 32.6151 83.4653 27.5713C83.4653 23.7516 82.6849 20.568 81.1241 17.9238ZM74.9297 31.489C74.2468 34.721 73.0272 37.1205 71.2227 38.7365C69.8082 40.0099 68.4911 40.5483 67.2715 40.3036C66.1012 40.0588 65.1258 39.0306 64.3937 37.1205C63.8087 35.6024 63.5163 34.0843 63.5163 32.664C63.5163 31.44 63.6138 30.2156 63.8575 29.0894C64.2967 27.0814 65.1258 25.1224 66.4429 23.2617C68.0524 20.8617 69.7594 19.8829 71.5152 20.2254C72.686 20.4701 73.6619 21.4989 74.393 23.4085C74.9789 24.9266 75.2709 26.4447 75.2709 27.865C75.3201 29.1384 75.1734 30.3629 74.9297 31.489Z" fill="white"/>
</g>
<defs>
<clipPath id="clip0_14_897">
<rect width="120" height="72" fill="white"/>
</clipPath>
</defs>
</svg>
