<svg width="350" height="353" viewBox="0 0 350 353" fill="none" xmlns="http://www.w3.org/2000/svg">
<g opacity="0.05">
<path d="M175 176.331C115.5 152.35 139.3 56.4258 175 56.4258C210.7 56.4258 234.5 152.35 175 176.331Z" stroke="#2CACC6" stroke-width="3.5" stroke-linejoin="round"/>
<path opacity="0.7" d="M175 176.331C198.8 116.378 294 140.359 294 176.331C294 212.302 198.8 236.283 175 176.331Z" stroke="#2CACC6" stroke-width="3.5" stroke-linejoin="round"/>
<path d="M175 176.331C234.5 200.312 210.7 296.235 175 296.235C139.3 296.235 115.5 200.312 175 176.331Z" stroke="#E86487" stroke-width="3.5" stroke-linejoin="round"/>
<path opacity="0.7" d="M175 176.331C151.2 236.283 56 212.302 56 176.331C56 140.359 151.2 116.378 175 176.331Z" stroke="#E86487" stroke-width="3.5" stroke-linejoin="round"/>
<path d="M175 193.964C184.665 193.964 192.5 186.069 192.5 176.331C192.5 166.592 184.665 158.698 175 158.698C165.335 158.698 157.5 166.592 157.5 176.331C157.5 186.069 165.335 193.964 175 193.964Z" stroke="#2CACC6" stroke-width="2.1"/>
</g>
</svg>
